<svg xmlns="http://www.w3.org/2000/svg" xmlns:xlink="http://www.w3.org/1999/xlink" width="1280" zoomAndPan="magnify" viewBox="0 0 960 959.999988" height="1280" preserveAspectRatio="xMidYMid meet" version="1.0"><defs><clipPath id="4eab10cede"><path d="M 180.460938 103.152344 L 764.59375 103.152344 L 764.59375 918.539062 L 180.460938 918.539062 Z M 180.460938 103.152344 " clip-rule="nonzero"/></clipPath><clipPath id="9cc008fbdd"><path d="M 750.46875 52 L 801.296875 52 L 801.296875 103 L 750.46875 103 Z M 750.46875 52 " clip-rule="nonzero"/></clipPath></defs><path fill="#ffffff" d="M 658.019531 324.847656 L 719.347656 166.492188 L 589.046875 115.972656 L 525.628906 279.71875 C 511.625 315.878906 478.449219 340.519531 439.949219 345.003906 C 334.636719 357.269531 239.917969 428.5 203.875 537.570312 C 158.523438 674.816406 225.695312 826.167969 357.855469 884.589844 C 506.449219 950.277344 678.0625 878.03125 736.097656 728.191406 C 776.613281 623.574219 750.707031 509.628906 678.960938 432.789062 C 651.871094 403.777344 643.679688 361.867188 658.019531 324.847656 " fill-opacity="1" fill-rule="nonzero"/><g clip-path="url(#4eab10cede)"><path fill="#2dadf6" d="M 594.457031 128.242188 L 534.464844 283.144531 C 519.359375 322.160156 483.5625 349.46875 441.046875 354.421875 C 335.746094 366.6875 246.1875 439.746094 212.878906 540.546875 C 169.292969 672.449219 234.65625 819.761719 361.683594 875.914062 C 430.859375 906.492188 507.3125 907.441406 576.953125 878.597656 C 646.640625 849.730469 700.015625 795.097656 727.257812 724.761719 C 764.902344 627.574219 743.222656 515.507812 672.035156 439.265625 C 642.628906 407.765625 633.652344 361.511719 649.179688 321.417969 L 707.089844 171.90625 Z M 472.488281 918.539062 C 432.300781 918.539062 392.132812 910.105469 354.023438 893.261719 C 218.171875 833.207031 148.265625 675.660156 194.878906 534.589844 C 230.492188 426.8125 326.261719 348.699219 438.851562 335.582031 C 474.363281 331.449219 504.230469 308.730469 516.796875 276.292969 L 583.636719 103.707031 L 731.613281 161.074219 L 666.855469 328.273438 C 653.941406 361.617188 661.410156 400.105469 685.886719 426.316406 C 762.007812 507.84375 785.1875 627.683594 744.933594 731.617188 C 715.800781 806.828125 658.722656 865.253906 584.203125 896.121094 C 548.101562 911.078125 510.289062 918.539062 472.488281 918.539062 " fill-opacity="1" fill-rule="nonzero"/></g><path fill="#ffffff" d="M 749.007812 177.984375 L 559.390625 104.480469 C 556.242188 103.257812 552.703125 104.824219 551.488281 107.96875 L 535.15625 150.128906 C 533.9375 153.28125 535.503906 156.820312 538.648438 158.039062 L 728.261719 231.546875 C 731.40625 232.765625 734.945312 231.207031 736.167969 228.054688 L 752.496094 185.894531 C 753.71875 182.75 752.152344 179.207031 749.007812 177.984375 " fill-opacity="1" fill-rule="nonzero"/><path fill="#2dadf6" d="M 570.082031 120.179688 C 567.441406 120.179688 564.8125 120.726562 562.324219 121.828125 C 557.621094 123.902344 554.011719 127.683594 552.15625 132.476562 C 548.328125 142.367188 553.257812 153.53125 563.144531 157.367188 L 710.617188 214.539062 C 720.488281 218.363281 731.664062 213.441406 735.496094 203.550781 C 737.351562 198.761719 737.230469 193.53125 735.15625 188.828125 C 733.082031 184.128906 729.304688 180.515625 724.511719 178.660156 L 577.035156 121.488281 C 574.78125 120.617188 572.429688 120.179688 570.082031 120.179688 Z M 717.519531 234.800781 C 712.941406 234.804688 708.285156 233.972656 703.765625 232.222656 L 556.292969 175.046875 C 536.660156 167.4375 526.875 145.265625 534.480469 125.625 C 538.171875 116.105469 545.339844 108.597656 554.667969 104.476562 C 564.003906 100.355469 574.375 100.113281 583.882812 103.804688 L 731.359375 160.976562 C 740.871094 164.664062 748.378906 171.835938 752.5 181.171875 C 756.617188 190.503906 756.855469 200.890625 753.167969 210.402344 C 747.3125 225.519531 732.835938 234.800781 717.519531 234.800781 " fill-opacity="1" fill-rule="nonzero"/><path fill="#ff83b5" d="M 667.398438 525.828125 C 594.097656 504.46875 515.0625 560.695312 442.714844 535.804688 C 395.488281 519.550781 360.980469 480.261719 340.632812 450.808594 C 309.019531 474.570312 283.417969 507.148438 268.082031 546.753906 C 224.34375 659.683594 280.394531 786.703125 393.269531 830.460938 C 506.140625 874.21875 633.097656 818.144531 676.839844 705.214844 C 700.378906 644.4375 694.972656 579.597656 667.398438 525.828125 " fill-opacity="1" fill-rule="nonzero"/><path fill="#2dadf6" d="M 628.878906 47.628906 C 623.847656 60.609375 609.261719 67.050781 596.289062 62.023438 C 583.320312 56.992188 576.882812 42.398438 581.90625 29.421875 C 586.929688 16.445312 601.519531 10 614.492188 15.027344 C 627.464844 20.058594 633.902344 34.652344 628.878906 47.628906 " fill-opacity="1" fill-rule="nonzero"/><path fill="#ffffff" d="M 436.539062 613.992188 C 431.515625 626.96875 416.925781 633.417969 403.953125 628.386719 C 390.980469 623.359375 384.542969 608.761719 389.566406 595.785156 C 394.597656 582.808594 409.183594 576.363281 422.15625 581.394531 C 435.125 586.421875 441.5625 601.019531 436.539062 613.992188 " fill-opacity="1" fill-rule="nonzero"/><path fill="#ffffff" d="M 548.742188 582.675781 C 545.839844 590.179688 537.40625 593.90625 529.902344 591 C 522.402344 588.089844 518.679688 579.652344 521.585938 572.148438 C 524.492188 564.644531 532.929688 560.917969 540.429688 563.824219 C 547.929688 566.734375 551.652344 575.171875 548.742188 582.675781 " fill-opacity="1" fill-rule="nonzero"/><path fill="#ffffff" d="M 435.6875 676.011719 C 432.78125 683.511719 424.34375 687.238281 416.847656 684.332031 C 409.351562 681.425781 405.621094 672.984375 408.53125 665.484375 C 411.433594 657.980469 419.871094 654.253906 427.371094 657.160156 C 434.871094 660.070312 438.597656 668.507812 435.6875 676.011719 " fill-opacity="1" fill-rule="nonzero"/><path fill="#ffffff" d="M 366.238281 535.449219 C 363.332031 542.953125 354.898438 546.675781 347.398438 543.769531 C 339.894531 540.863281 336.175781 532.421875 339.082031 524.917969 C 341.984375 517.414062 350.421875 513.6875 357.921875 516.597656 C 365.421875 519.503906 369.144531 527.945312 366.238281 535.449219 " fill-opacity="1" fill-rule="nonzero"/><g clip-path="url(#9cc008fbdd)"><path fill="#2dadf6" d="M 799.59375 86.789062 C 794.570312 99.765625 779.980469 106.210938 767.011719 101.179688 C 754.035156 96.152344 747.597656 81.554688 752.621094 68.582031 C 757.652344 55.605469 772.238281 49.15625 785.210938 54.1875 C 798.179688 59.214844 804.617188 73.8125 799.59375 86.789062 " fill-opacity="1" fill-rule="nonzero"/></g><path fill="#2dadf6" d="M 538 79.910156 C 534.929688 87.84375 526.015625 91.78125 518.085938 88.707031 C 510.164062 85.636719 506.226562 76.714844 509.300781 68.785156 C 512.371094 60.855469 521.285156 56.917969 529.210938 59.988281 C 537.136719 63.0625 541.074219 71.984375 538 79.910156 " fill-opacity="1" fill-rule="nonzero"/><path fill="#2dadf6" d="M 684.09375 79.546875 C 681.019531 87.472656 672.105469 91.414062 664.179688 88.339844 C 656.25 85.265625 652.316406 76.347656 655.386719 68.417969 C 658.457031 60.484375 667.375 56.550781 675.300781 59.621094 C 683.226562 62.699219 687.164062 71.617188 684.09375 79.546875 " fill-opacity="1" fill-rule="nonzero"/><path fill="#ffffff" d="M 516.292969 791.570312 C 513.148438 791.570312 510.277344 789.464844 509.429688 786.28125 C 508.421875 782.484375 510.679688 778.59375 514.472656 777.585938 C 552.023438 767.597656 586.070312 747.59375 612.9375 719.71875 C 615.664062 716.898438 620.160156 716.820312 622.984375 719.539062 C 625.8125 722.265625 625.894531 726.769531 623.167969 729.597656 C 594.503906 759.332031 558.183594 780.679688 518.128906 791.328125 C 517.515625 791.492188 516.898438 791.570312 516.292969 791.570312 " fill-opacity="1" fill-rule="nonzero"/><path fill="#ffffff" d="M 460.164062 798.917969 C 447.800781 798.917969 435.417969 797.902344 423.238281 795.871094 C 419.363281 795.226562 416.746094 791.5625 417.394531 787.691406 C 418.035156 783.8125 421.691406 781.171875 425.570312 781.839844 C 440.015625 784.242188 454.757812 785.128906 469.390625 784.492188 C 473.410156 784.347656 476.628906 787.363281 476.804688 791.285156 C 476.976562 795.210938 473.933594 798.53125 470.011719 798.703125 C 466.738281 798.847656 463.449219 798.917969 460.164062 798.917969 " fill-opacity="1" fill-rule="nonzero"/><path fill="#addddf" d="M 615.546875 400.238281 C 612.773438 400.238281 610.144531 398.605469 608.996094 395.894531 C 604.359375 384.914062 602.941406 370.480469 604.796875 353.003906 C 606.285156 338.945312 609.980469 324.226562 615.78125 309.253906 L 637.894531 252.152344 C 639.3125 248.496094 643.425781 246.671875 647.09375 248.09375 C 650.753906 249.511719 652.570312 253.632812 651.152344 257.296875 L 629.035156 314.390625 C 623.691406 328.199219 620.289062 341.691406 618.929688 354.5 C 617.359375 369.347656 618.449219 381.742188 622.089844 390.351562 C 623.621094 393.972656 621.925781 398.144531 618.3125 399.675781 C 617.410156 400.058594 616.46875 400.238281 615.546875 400.238281 " fill-opacity="1" fill-rule="nonzero"/></svg>