<svg xmlns="http://www.w3.org/2000/svg" xmlns:xlink="http://www.w3.org/1999/xlink" width="1280" zoomAndPan="magnify" viewBox="0 0 960 959.999988" height="1280" preserveAspectRatio="xMidYMid meet" version="1.0"><defs><filter x="0%" y="0%" width="100%" height="100%" id="8aa49875be"><feColorMatrix values="0 0 0 0 1 0 0 0 0 1 0 0 0 0 1 0 0 0 1 0" color-interpolation-filters="sRGB"/></filter><clipPath id="8aa70cb09c"><path d="M 44 191 L 921.574219 191 L 921.574219 898 L 44 898 Z M 44 191 " clip-rule="nonzero"/></clipPath><clipPath id="806d92a3d0"><path d="M 46 506 L 921.574219 506 L 921.574219 898 L 46 898 Z M 46 506 " clip-rule="nonzero"/></clipPath><mask id="d8e97bf42b"><g filter="url(#8aa49875be)"><rect x="-96" width="1152" fill="#000000" y="-95.999999" height="1151.999986" fill-opacity="0.45"/></g></mask><clipPath id="1a2adcfa49"><rect x="0" width="57" y="0" height="7"/></clipPath><mask id="672884ed6f"><g filter="url(#8aa49875be)"><rect x="-96" width="1152" fill="#000000" y="-95.999999" height="1151.999986" fill-opacity="0.45"/></g></mask><clipPath id="c5d055c348"><rect x="0" width="60" y="0" height="4"/></clipPath></defs><g clip-path="url(#8aa70cb09c)"><path fill="#545454" d="M 884.359375 385.84375 L 717.054688 191.480469 C 716.527344 191.554688 711.097656 192.285156 710.570312 192.355469 L 881.238281 387.289062 C 881.5625 394.683594 876.632812 401.375 865.144531 407.183594 L 291.457031 481.820312 C 272.746094 473.511719 256.324219 462.488281 242.503906 448.371094 L 101.894531 257.636719 L 85.480469 261.441406 C 56.128906 349.730469 38.0625 422.050781 46.898438 506.523438 L 69.394531 589.832031 C 69.394531 589.832031 155.175781 744.074219 181.992188 778.90625 C 208.78125 813.742188 273.125 888.378906 289.207031 893.347656 C 305.292969 898.316406 412.539062 908.28125 626.996094 863.484375 C 841.457031 818.710938 873.628906 808.773438 873.628906 808.773438 C 898.34375 775.785156 912.613281 734.546875 921.882812 689.339844 C 912.382812 567.804688 906.824219 419.960938 884.359375 385.84375 Z M 884.359375 385.84375 " fill-opacity="1" fill-rule="nonzero"/></g><path fill="#91cddb" d="M 294.578125 480.375 L 326.746094 714.226562 C 330.964844 742.011719 356.921875 755.09375 385.726562 754.03125 L 811.0625 704.273438 C 860.421875 697.0625 869.082031 675.160156 868.265625 639.59375 L 868.265625 405.742188 Z M 294.578125 480.375 " fill-opacity="1" fill-rule="nonzero"/><path fill="#545454" d="M 466.148438 668.539062 C 466.148438 669.875 466.078125 671.203125 465.9375 672.53125 C 465.796875 673.859375 465.585938 675.175781 465.304688 676.484375 C 465.023438 677.789062 464.675781 679.082031 464.257812 680.359375 C 463.84375 681.632812 463.359375 682.886719 462.808594 684.121094 C 462.257812 685.351562 461.644531 686.554688 460.96875 687.730469 C 460.289062 688.90625 459.554688 690.050781 458.753906 691.15625 C 457.957031 692.265625 457.101562 693.335938 456.191406 694.367188 C 455.277344 695.398438 454.316406 696.382812 453.300781 697.328125 C 452.285156 698.269531 451.21875 699.164062 450.109375 700.007812 C 449 700.855469 447.847656 701.648438 446.652344 702.390625 C 445.457031 703.128906 444.226562 703.816406 442.960938 704.445312 C 441.691406 705.070312 440.394531 705.640625 439.066406 706.152344 C 437.742188 706.660156 436.390625 707.109375 435.015625 707.496094 C 433.640625 707.882812 432.246094 708.207031 430.839844 708.46875 C 429.429688 708.726562 428.007812 708.921875 426.578125 709.054688 C 425.148438 709.183594 423.71875 709.25 422.28125 709.25 C 420.84375 709.25 419.410156 709.183594 417.980469 709.054688 C 416.550781 708.921875 415.132812 708.726562 413.722656 708.46875 C 412.3125 708.207031 410.921875 707.882812 409.546875 707.496094 C 408.171875 707.109375 406.820312 706.660156 405.492188 706.152344 C 404.164062 705.640625 402.867188 705.070312 401.601562 704.445312 C 400.332031 703.816406 399.101562 703.128906 397.910156 702.390625 C 396.714844 701.648438 395.5625 700.855469 394.449219 700.007812 C 393.339844 699.164062 392.277344 698.269531 391.261719 697.328125 C 390.246094 696.382812 389.28125 695.398438 388.371094 694.367188 C 387.457031 693.335938 386.601562 692.265625 385.804688 691.15625 C 385.007812 690.050781 384.269531 688.90625 383.59375 687.730469 C 382.914062 686.554688 382.300781 685.351562 381.75 684.121094 C 381.203125 682.886719 380.71875 681.632812 380.300781 680.359375 C 379.882812 679.082031 379.535156 677.789062 379.253906 676.484375 C 378.976562 675.175781 378.765625 673.859375 378.625 672.53125 C 378.484375 671.203125 378.410156 669.875 378.410156 668.539062 C 378.410156 667.207031 378.484375 665.878906 378.625 664.550781 C 378.765625 663.222656 378.976562 661.90625 379.253906 660.597656 C 379.535156 659.289062 379.882812 658 380.300781 656.722656 C 380.71875 655.445312 381.203125 654.191406 381.75 652.960938 C 382.300781 651.730469 382.914062 650.527344 383.59375 649.351562 C 384.269531 648.175781 385.007812 647.03125 385.804688 645.921875 C 386.601562 644.816406 387.457031 643.746094 388.371094 642.714844 C 389.28125 641.683594 390.246094 640.695312 391.261719 639.753906 C 392.277344 638.8125 393.339844 637.917969 394.449219 637.070312 C 395.5625 636.226562 396.714844 635.433594 397.910156 634.691406 C 399.101562 633.949219 400.332031 633.265625 401.601562 632.636719 C 402.867188 632.007812 404.164062 631.441406 405.492188 630.929688 C 406.820312 630.417969 408.171875 629.96875 409.546875 629.582031 C 410.921875 629.195312 412.3125 628.871094 413.722656 628.613281 C 415.132812 628.351562 416.550781 628.15625 417.980469 628.027344 C 419.410156 627.894531 420.84375 627.832031 422.28125 627.832031 C 423.71875 627.832031 425.148438 627.894531 426.578125 628.027344 C 428.007812 628.15625 429.429688 628.351562 430.839844 628.613281 C 432.246094 628.871094 433.640625 629.195312 435.015625 629.582031 C 436.390625 629.96875 437.742188 630.417969 439.066406 630.929688 C 440.394531 631.441406 441.691406 632.007812 442.960938 632.636719 C 444.226562 633.265625 445.457031 633.949219 446.652344 634.691406 C 447.847656 635.433594 449 636.226562 450.109375 637.070312 C 451.21875 637.917969 452.285156 638.8125 453.300781 639.753906 C 454.316406 640.695312 455.277344 641.683594 456.191406 642.714844 C 457.101562 643.746094 457.957031 644.816406 458.753906 645.921875 C 459.554688 647.03125 460.289062 648.175781 460.96875 649.351562 C 461.644531 650.527344 462.257812 651.730469 462.808594 652.960938 C 463.359375 654.191406 463.84375 655.445312 464.257812 656.722656 C 464.675781 658 465.023438 659.289062 465.304688 660.597656 C 465.585938 661.90625 465.796875 663.222656 465.9375 664.550781 C 466.078125 665.878906 466.148438 667.207031 466.148438 668.539062 Z M 466.148438 668.539062 " fill-opacity="1" fill-rule="nonzero"/><path fill="#d9f0f8" d="M 460.785156 676.003906 C 460.785156 676.929688 460.738281 677.855469 460.640625 678.773438 C 460.542969 679.695312 460.394531 680.609375 460.199219 681.519531 C 460.007812 682.425781 459.765625 683.324219 459.472656 684.210938 C 459.183594 685.097656 458.847656 685.96875 458.46875 686.824219 C 458.085938 687.679688 457.660156 688.515625 457.1875 689.332031 C 456.71875 690.148438 456.207031 690.941406 455.652344 691.710938 C 455.097656 692.480469 454.503906 693.222656 453.871094 693.9375 C 453.238281 694.65625 452.570312 695.339844 451.863281 695.996094 C 451.15625 696.648438 450.417969 697.269531 449.648438 697.859375 C 448.875 698.445312 448.078125 698.996094 447.246094 699.511719 C 446.417969 700.023438 445.5625 700.5 444.683594 700.9375 C 443.804688 701.375 442.902344 701.769531 441.980469 702.125 C 441.058594 702.476562 440.121094 702.789062 439.164062 703.058594 C 438.210938 703.328125 437.242188 703.550781 436.265625 703.730469 C 435.285156 703.914062 434.300781 704.046875 433.308594 704.140625 C 432.316406 704.230469 431.320312 704.273438 430.320312 704.273438 C 429.324219 704.273438 428.328125 704.230469 427.335938 704.140625 C 426.34375 704.046875 425.359375 703.914062 424.378906 703.730469 C 423.398438 703.550781 422.433594 703.328125 421.480469 703.058594 C 420.523438 702.789062 419.585938 702.476562 418.664062 702.125 C 417.742188 701.769531 416.839844 701.375 415.960938 700.9375 C 415.082031 700.5 414.226562 700.023438 413.398438 699.511719 C 412.566406 698.996094 411.765625 698.445312 410.996094 697.859375 C 410.226562 697.269531 409.488281 696.648438 408.78125 695.996094 C 408.074219 695.339844 407.40625 694.65625 406.773438 693.9375 C 406.140625 693.222656 405.546875 692.480469 404.992188 691.710938 C 404.4375 690.941406 403.925781 690.148438 403.457031 689.332031 C 402.984375 688.515625 402.558594 687.679688 402.175781 686.824219 C 401.796875 685.96875 401.460938 685.097656 401.167969 684.210938 C 400.878906 683.324219 400.636719 682.425781 400.445312 681.519531 C 400.25 680.609375 400.101562 679.695312 400.003906 678.773438 C 399.90625 677.855469 399.859375 676.929688 399.859375 676.003906 C 399.859375 675.078125 399.90625 674.15625 400.003906 673.234375 C 400.101562 672.3125 400.25 671.398438 400.445312 670.488281 C 400.636719 669.582031 400.878906 668.683594 401.171875 667.796875 C 401.460938 666.910156 401.796875 666.039062 402.175781 665.183594 C 402.558594 664.328125 402.984375 663.492188 403.457031 662.675781 C 403.925781 661.859375 404.4375 661.066406 404.992188 660.296875 C 405.546875 659.527344 406.140625 658.785156 406.773438 658.070312 C 407.40625 657.351562 408.074219 656.667969 408.78125 656.011719 C 409.488281 655.359375 410.226562 654.738281 410.996094 654.148438 C 411.765625 653.5625 412.566406 653.011719 413.398438 652.496094 C 414.226562 651.984375 415.082031 651.507812 415.960938 651.070312 C 416.839844 650.632812 417.742188 650.238281 418.664062 649.882812 C 419.585938 649.53125 420.523438 649.21875 421.480469 648.949219 C 422.433594 648.679688 423.398438 648.457031 424.378906 648.277344 C 425.359375 648.09375 426.34375 647.960938 427.335938 647.867188 C 428.328125 647.777344 429.324219 647.734375 430.320312 647.734375 C 431.320312 647.734375 432.316406 647.777344 433.308594 647.867188 C 434.300781 647.960938 435.285156 648.09375 436.265625 648.277344 C 437.242188 648.457031 438.210938 648.679688 439.164062 648.949219 C 440.121094 649.21875 441.058594 649.53125 441.980469 649.882812 C 442.902344 650.238281 443.804688 650.632812 444.683594 651.070312 C 445.5625 651.507812 446.417969 651.984375 447.246094 652.496094 C 448.078125 653.011719 448.875 653.5625 449.648438 654.148438 C 450.417969 654.738281 451.15625 655.359375 451.863281 656.011719 C 452.570312 656.667969 453.238281 657.351562 453.871094 658.070312 C 454.503906 658.785156 455.097656 659.527344 455.652344 660.296875 C 456.207031 661.066406 456.71875 661.859375 457.1875 662.675781 C 457.660156 663.492188 458.085938 664.328125 458.46875 665.183594 C 458.847656 666.039062 459.183594 666.910156 459.472656 667.796875 C 459.765625 668.683594 460.007812 669.582031 460.199219 670.488281 C 460.394531 671.398438 460.542969 672.3125 460.640625 673.234375 C 460.738281 674.15625 460.785156 675.078125 460.785156 676.003906 Z M 460.785156 676.003906 " fill-opacity="1" fill-rule="nonzero"/><path fill="#545454" d="M 836.097656 618.785156 C 836.097656 620.117188 836.027344 621.449219 835.882812 622.777344 C 835.742188 624.101562 835.53125 625.417969 835.253906 626.726562 C 834.972656 628.035156 834.625 629.328125 834.207031 630.601562 C 833.789062 631.878906 833.304688 633.132812 832.757812 634.363281 C 832.207031 635.597656 831.59375 636.800781 830.914062 637.976562 C 830.238281 639.152344 829.5 640.292969 828.703125 641.402344 C 827.90625 642.511719 827.050781 643.582031 826.136719 644.613281 C 825.226562 645.640625 824.261719 646.628906 823.246094 647.570312 C 822.230469 648.515625 821.167969 649.410156 820.058594 650.253906 C 818.945312 651.101562 817.792969 651.894531 816.597656 652.632812 C 815.40625 653.375 814.175781 654.058594 812.90625 654.6875 C 811.640625 655.316406 810.34375 655.886719 809.015625 656.394531 C 807.6875 656.90625 806.335938 657.355469 804.960938 657.742188 C 803.585938 658.128906 802.195312 658.453125 800.785156 658.714844 C 799.375 658.972656 797.957031 659.167969 796.527344 659.300781 C 795.097656 659.429688 793.664062 659.496094 792.226562 659.496094 C 790.792969 659.496094 789.359375 659.429688 787.929688 659.300781 C 786.5 659.167969 785.078125 658.972656 783.667969 658.714844 C 782.261719 658.453125 780.867188 658.128906 779.492188 657.742188 C 778.117188 657.355469 776.765625 656.90625 775.441406 656.394531 C 774.113281 655.886719 772.816406 655.316406 771.546875 654.6875 C 770.28125 654.058594 769.050781 653.375 767.855469 652.632812 C 766.660156 651.894531 765.507812 651.101562 764.398438 650.253906 C 763.289062 649.410156 762.222656 648.515625 761.207031 647.570312 C 760.191406 646.628906 759.230469 645.640625 758.316406 644.613281 C 757.40625 643.582031 756.550781 642.511719 755.753906 641.402344 C 754.953125 640.292969 754.21875 639.152344 753.539062 637.976562 C 752.863281 636.800781 752.25 635.597656 751.699219 634.363281 C 751.148438 633.132812 750.664062 631.878906 750.25 630.601562 C 749.832031 629.328125 749.484375 628.035156 749.203125 626.726562 C 748.921875 625.417969 748.710938 624.101562 748.570312 622.777344 C 748.429688 621.449219 748.359375 620.117188 748.359375 618.785156 C 748.359375 617.453125 748.429688 616.121094 748.570312 614.796875 C 748.710938 613.46875 748.921875 612.152344 749.203125 610.84375 C 749.484375 609.535156 749.832031 608.242188 750.25 606.96875 C 750.664062 605.691406 751.148438 604.4375 751.699219 603.207031 C 752.25 601.972656 752.863281 600.769531 753.539062 599.59375 C 754.21875 598.417969 754.953125 597.277344 755.753906 596.167969 C 756.550781 595.058594 757.40625 593.988281 758.316406 592.960938 C 759.230469 591.929688 760.191406 590.941406 761.207031 590 C 762.222656 589.054688 763.289062 588.160156 764.398438 587.316406 C 765.507812 586.46875 766.660156 585.675781 767.855469 584.9375 C 769.050781 584.195312 770.28125 583.511719 771.546875 582.882812 C 772.816406 582.253906 774.113281 581.683594 775.441406 581.175781 C 776.765625 580.664062 778.117188 580.214844 779.492188 579.828125 C 780.867188 579.441406 782.261719 579.117188 783.667969 578.859375 C 785.078125 578.597656 786.5 578.402344 787.929688 578.273438 C 789.359375 578.140625 790.792969 578.074219 792.226562 578.074219 C 793.664062 578.074219 795.097656 578.140625 796.527344 578.273438 C 797.957031 578.402344 799.375 578.597656 800.785156 578.859375 C 802.195312 579.117188 803.585938 579.441406 804.960938 579.828125 C 806.335938 580.214844 807.6875 580.664062 809.015625 581.175781 C 810.34375 581.683594 811.640625 582.253906 812.90625 582.882812 C 814.175781 583.511719 815.40625 584.195312 816.597656 584.9375 C 817.792969 585.675781 818.945312 586.46875 820.058594 587.316406 C 821.167969 588.160156 822.230469 589.054688 823.246094 590 C 824.261719 590.941406 825.226562 591.929688 826.136719 592.960938 C 827.050781 593.988281 827.90625 595.058594 828.703125 596.167969 C 829.5 597.277344 830.238281 598.417969 830.914062 599.59375 C 831.59375 600.769531 832.207031 601.972656 832.757812 603.207031 C 833.304688 604.4375 833.789062 605.691406 834.207031 606.96875 C 834.625 608.242188 834.972656 609.535156 835.253906 610.84375 C 835.53125 612.152344 835.742188 613.46875 835.882812 614.796875 C 836.027344 616.121094 836.097656 617.453125 836.097656 618.785156 Z M 836.097656 618.785156 " fill-opacity="1" fill-rule="nonzero"/><path fill="#d9f0f8" d="M 830.734375 626.25 C 830.734375 627.175781 830.683594 628.097656 830.585938 629.019531 C 830.488281 629.941406 830.34375 630.855469 830.148438 631.761719 C 829.953125 632.671875 829.710938 633.570312 829.421875 634.453125 C 829.132812 635.339844 828.796875 636.210938 828.414062 637.066406 C 828.03125 637.921875 827.605469 638.757812 827.136719 639.574219 C 826.667969 640.390625 826.152344 641.183594 825.601562 641.953125 C 825.046875 642.722656 824.453125 643.46875 823.820312 644.183594 C 823.1875 644.898438 822.515625 645.585938 821.8125 646.238281 C 821.105469 646.894531 820.367188 647.515625 819.597656 648.101562 C 818.824219 648.6875 818.023438 649.242188 817.195312 649.753906 C 816.363281 650.269531 815.511719 650.746094 814.628906 651.179688 C 813.75 651.617188 812.851562 652.011719 811.929688 652.367188 C 811.007812 652.722656 810.066406 653.03125 809.113281 653.300781 C 808.160156 653.570312 807.191406 653.796875 806.214844 653.976562 C 805.234375 654.15625 804.25 654.292969 803.257812 654.382812 C 802.261719 654.472656 801.269531 654.519531 800.269531 654.519531 C 799.273438 654.519531 798.277344 654.472656 797.285156 654.382812 C 796.292969 654.292969 795.304688 654.15625 794.328125 653.976562 C 793.347656 653.796875 792.382812 653.570312 791.425781 653.300781 C 790.472656 653.03125 789.535156 652.722656 788.613281 652.367188 C 787.691406 652.011719 786.789062 651.617188 785.910156 651.179688 C 785.03125 650.746094 784.175781 650.269531 783.34375 649.753906 C 782.515625 649.242188 781.714844 648.6875 780.945312 648.101562 C 780.171875 647.515625 779.433594 646.894531 778.730469 646.238281 C 778.023438 645.585938 777.355469 644.898438 776.722656 644.183594 C 776.089844 643.46875 775.496094 642.722656 774.941406 641.953125 C 774.386719 641.183594 773.875 640.390625 773.402344 639.574219 C 772.933594 638.757812 772.507812 637.921875 772.125 637.066406 C 771.742188 636.210938 771.40625 635.339844 771.117188 634.453125 C 770.828125 633.570312 770.585938 632.671875 770.390625 631.761719 C 770.195312 630.855469 770.050781 629.941406 769.953125 629.019531 C 769.855469 628.097656 769.804688 627.175781 769.804688 626.25 C 769.804688 625.320312 769.855469 624.398438 769.953125 623.476562 C 770.050781 622.554688 770.195312 621.640625 770.390625 620.734375 C 770.585938 619.824219 770.828125 618.925781 771.117188 618.042969 C 771.40625 617.15625 771.742188 616.285156 772.125 615.429688 C 772.507812 614.574219 772.933594 613.738281 773.402344 612.921875 C 773.875 612.105469 774.386719 611.3125 774.941406 610.542969 C 775.496094 609.773438 776.089844 609.027344 776.722656 608.3125 C 777.355469 607.597656 778.023438 606.910156 778.730469 606.257812 C 779.433594 605.601562 780.171875 604.980469 780.945312 604.394531 C 781.714844 603.808594 782.515625 603.253906 783.34375 602.742188 C 784.175781 602.226562 785.03125 601.75 785.910156 601.316406 C 786.789062 600.878906 787.691406 600.484375 788.613281 600.128906 C 789.535156 599.773438 790.472656 599.464844 791.425781 599.195312 C 792.382812 598.925781 793.347656 598.699219 794.328125 598.519531 C 795.304688 598.339844 796.292969 598.203125 797.285156 598.113281 C 798.277344 598.023438 799.273438 597.976562 800.269531 597.976562 C 801.269531 597.976562 802.261719 598.023438 803.257812 598.113281 C 804.25 598.203125 805.234375 598.339844 806.214844 598.519531 C 807.191406 598.699219 808.160156 598.925781 809.113281 599.195312 C 810.066406 599.464844 811.007812 599.773438 811.929688 600.128906 C 812.851562 600.484375 813.75 600.878906 814.628906 601.316406 C 815.511719 601.75 816.363281 602.226562 817.195312 602.742188 C 818.023438 603.253906 818.824219 603.808594 819.597656 604.394531 C 820.367188 604.980469 821.105469 605.601562 821.8125 606.257812 C 822.515625 606.910156 823.1875 607.597656 823.820312 608.3125 C 824.453125 609.027344 825.046875 609.773438 825.601562 610.542969 C 826.152344 611.3125 826.667969 612.105469 827.136719 612.921875 C 827.605469 613.738281 828.03125 614.574219 828.414062 615.429688 C 828.796875 616.285156 829.132812 617.15625 829.421875 618.042969 C 829.710938 618.925781 829.953125 619.824219 830.148438 620.734375 C 830.34375 621.640625 830.488281 622.554688 830.585938 623.476562 C 830.683594 624.398438 830.734375 625.320312 830.734375 626.25 Z M 830.734375 626.25 " fill-opacity="1" fill-rule="nonzero"/><path fill="#545454" d="M 510.050781 638.6875 L 514.054688 673.328125 C 514.578125 677.445312 517.808594 679.382812 521.390625 679.226562 L 574.3125 671.855469 C 580.453125 670.785156 581.53125 667.542969 581.429688 662.273438 L 581.429688 627.632812 Z M 510.050781 638.6875 " fill-opacity="1" fill-rule="nonzero"/><path fill="#545454" d="M 639.929688 620.980469 L 643.929688 655.621094 C 644.457031 659.738281 647.6875 661.675781 651.269531 661.515625 L 704.195312 654.148438 C 710.339844 653.078125 711.414062 649.832031 711.3125 644.566406 L 711.3125 609.925781 Z M 639.929688 620.980469 " fill-opacity="1" fill-rule="nonzero"/><g clip-path="url(#806d92a3d0)"><path fill="#ffbd59" d="M 921.882812 689.339844 C 912.613281 734.546875 898.34375 775.785156 873.628906 808.773438 C 873.628906 808.773438 841.457031 818.710938 626.996094 863.484375 C 412.539062 908.28125 305.292969 898.316406 289.207031 893.347656 C 273.125 888.378906 208.78125 813.742188 181.992188 778.90625 C 155.175781 744.074219 69.394531 589.832031 69.394531 589.832031 L 46.898438 506.523438 C 46.898438 506.523438 257.039062 783.878906 305.292969 793.839844 C 353.550781 803.777344 491.886719 791.203125 618.417969 772.605469 C 744.945312 754.039062 900.445312 744.074219 921.882812 689.339844 Z M 921.882812 689.339844 " fill-opacity="1" fill-rule="nonzero"/></g><path fill="#d9f0f8" d="M 486.734375 657.613281 C 478.882812 633.773438 457.472656 615.664062 430.894531 613.289062 C 395.242188 610.105469 363.738281 636.441406 360.554688 672.09375 C 360.085938 677.359375 360.257812 682.523438 361.015625 687.515625 C 358.359375 679.40625 357.28125 670.644531 358.089844 661.617188 C 361.273438 625.96875 392.753906 599.628906 428.402344 602.8125 C 458.765625 605.523438 482.371094 628.753906 486.734375 657.613281 Z M 486.734375 657.613281 " fill-opacity="1" fill-rule="nonzero"/><path fill="#d9f0f8" d="M 852.605469 597.929688 C 844.753906 574.089844 823.34375 555.980469 796.765625 553.605469 C 761.113281 550.421875 729.613281 576.757812 726.429688 612.410156 C 725.957031 617.675781 726.132812 622.839844 726.886719 627.832031 C 724.230469 619.722656 723.15625 610.960938 723.960938 601.933594 C 727.144531 566.285156 758.625 539.945312 794.273438 543.128906 C 824.636719 545.839844 848.242188 569.070312 852.605469 597.929688 Z M 852.605469 597.929688 " fill-opacity="1" fill-rule="nonzero"/><path fill="#d9f0f8" d="M 681.617188 527.890625 C 679.777344 502.613281 637.128906 485.113281 586.351562 488.804688 C 535.578125 492.496094 495.90625 515.976562 497.742188 541.253906 C 499.582031 566.53125 542.230469 584.03125 593.003906 580.339844 C 643.78125 576.652344 683.453125 553.167969 681.617188 527.890625 Z M 592.660156 575.605469 C 545.140625 579.058594 505.28125 563.488281 503.636719 540.824219 C 501.988281 518.164062 539.175781 496.996094 586.699219 493.542969 C 634.21875 490.089844 674.078125 505.660156 675.722656 528.320312 C 677.371094 550.980469 640.183594 572.148438 592.660156 575.605469 Z M 592.660156 575.605469 " fill-opacity="1" fill-rule="nonzero"/><path fill="#d9f0f8" d="M 439.363281 569.996094 C 439.378906 570.113281 439.34375 570.238281 439.253906 570.371094 C 439.164062 570.5 439.019531 570.640625 438.824219 570.785156 C 438.625 570.929688 438.378906 571.082031 438.078125 571.238281 C 437.777344 571.394531 437.425781 571.554688 437.023438 571.722656 C 436.621094 571.890625 436.171875 572.058594 435.671875 572.234375 C 435.171875 572.410156 434.625 572.589844 434.035156 572.773438 C 433.441406 572.953125 432.808594 573.140625 432.128906 573.328125 C 431.449219 573.515625 430.730469 573.703125 429.972656 573.894531 C 429.214844 574.085938 428.417969 574.277344 427.585938 574.46875 C 426.753906 574.664062 425.890625 574.855469 424.992188 575.046875 C 424.09375 575.238281 423.171875 575.429688 422.21875 575.621094 C 421.261719 575.808594 420.285156 575.996094 419.285156 576.183594 C 418.285156 576.371094 417.265625 576.550781 416.226562 576.734375 C 415.191406 576.914062 414.136719 577.089844 413.070312 577.261719 C 412.007812 577.433594 410.933594 577.601562 409.847656 577.765625 C 408.765625 577.929688 407.679688 578.085938 406.589844 578.238281 C 405.5 578.390625 404.414062 578.539062 403.324219 578.679688 C 402.238281 578.820312 401.160156 578.953125 400.089844 579.078125 C 399.015625 579.207031 397.957031 579.324219 396.910156 579.4375 C 395.859375 579.550781 394.832031 579.652344 393.816406 579.75 C 392.804688 579.84375 391.8125 579.933594 390.84375 580.011719 C 389.875 580.089844 388.933594 580.160156 388.019531 580.222656 C 387.101562 580.285156 386.21875 580.339844 385.367188 580.382812 C 384.511719 580.425781 383.695312 580.457031 382.914062 580.484375 C 382.132812 580.507812 381.386719 580.523438 380.683594 580.53125 C 379.980469 580.535156 379.316406 580.53125 378.699219 580.519531 C 378.078125 580.507812 377.507812 580.484375 376.976562 580.453125 C 376.449219 580.421875 375.96875 580.378906 375.539062 580.332031 C 375.105469 580.28125 374.722656 580.222656 374.390625 580.152344 C 374.058594 580.085938 373.777344 580.007812 373.550781 579.921875 C 373.320312 579.835938 373.144531 579.746094 373.023438 579.640625 C 372.898438 579.539062 372.828125 579.429688 372.8125 579.3125 C 372.796875 579.195312 372.832031 579.070312 372.921875 578.941406 C 373.015625 578.808594 373.15625 578.667969 373.355469 578.523438 C 373.550781 578.378906 373.796875 578.230469 374.097656 578.070312 C 374.398438 577.914062 374.75 577.753906 375.152344 577.585938 C 375.554688 577.417969 376.003906 577.25 376.503906 577.074219 C 377.003906 576.898438 377.550781 576.71875 378.140625 576.535156 C 378.734375 576.355469 379.367188 576.167969 380.046875 575.980469 C 380.726562 575.792969 381.445312 575.605469 382.203125 575.414062 C 382.960938 575.222656 383.757812 575.03125 384.589844 574.839844 C 385.421875 574.644531 386.285156 574.453125 387.183594 574.261719 C 388.082031 574.070312 389.007812 573.878906 389.960938 573.6875 C 390.914062 573.5 391.890625 573.3125 392.890625 573.125 C 393.890625 572.9375 394.910156 572.757812 395.949219 572.574219 C 396.988281 572.394531 398.039062 572.21875 399.105469 572.046875 C 400.167969 571.875 401.242188 571.707031 402.328125 571.542969 C 403.410156 571.378906 404.496094 571.222656 405.585938 571.070312 C 406.675781 570.917969 407.765625 570.769531 408.851562 570.628906 C 409.9375 570.488281 411.015625 570.355469 412.085938 570.230469 C 413.160156 570.101562 414.21875 569.984375 415.265625 569.871094 C 416.316406 569.757812 417.34375 569.65625 418.359375 569.558594 C 419.371094 569.464844 420.363281 569.375 421.332031 569.296875 C 422.300781 569.21875 423.242188 569.148438 424.15625 569.085938 C 425.074219 569.023438 425.957031 568.972656 426.808594 568.925781 C 427.664062 568.882812 428.480469 568.851562 429.261719 568.824219 C 430.042969 568.800781 430.789062 568.785156 431.492188 568.777344 C 432.195312 568.773438 432.859375 568.777344 433.476562 568.789062 C 434.097656 568.800781 434.667969 568.824219 435.199219 568.855469 C 435.726562 568.886719 436.207031 568.929688 436.640625 568.976562 C 437.070312 569.027344 437.453125 569.085938 437.785156 569.15625 C 438.117188 569.222656 438.398438 569.300781 438.625 569.386719 C 438.855469 569.472656 439.03125 569.566406 439.15625 569.667969 C 439.277344 569.769531 439.347656 569.878906 439.363281 569.996094 Z M 439.363281 569.996094 " fill-opacity="1" fill-rule="nonzero"/><path fill="#d9f0f8" d="M 813.847656 517.5625 C 813.863281 517.679688 813.828125 517.804688 813.734375 517.9375 C 813.644531 518.070312 813.503906 518.207031 813.304688 518.351562 C 813.109375 518.496094 812.859375 518.648438 812.558594 518.804688 C 812.257812 518.960938 811.90625 519.121094 811.507812 519.289062 C 811.105469 519.457031 810.652344 519.628906 810.15625 519.804688 C 809.65625 519.980469 809.109375 520.15625 808.519531 520.339844 C 807.925781 520.523438 807.292969 520.707031 806.613281 520.894531 C 805.933594 521.082031 805.214844 521.273438 804.457031 521.460938 C 803.695312 521.652344 802.902344 521.84375 802.070312 522.039062 C 801.238281 522.230469 800.371094 522.421875 799.476562 522.613281 C 798.578125 522.808594 797.652344 522.996094 796.699219 523.1875 C 795.746094 523.378906 794.769531 523.566406 793.769531 523.75 C 792.769531 523.9375 791.75 524.121094 790.710938 524.300781 C 789.671875 524.480469 788.621094 524.65625 787.554688 524.828125 C 786.488281 525.003906 785.414062 525.171875 784.332031 525.332031 C 783.25 525.496094 782.164062 525.65625 781.074219 525.808594 C 779.984375 525.960938 778.894531 526.105469 777.808594 526.246094 C 776.722656 526.386719 775.644531 526.519531 774.570312 526.648438 C 773.5 526.773438 772.441406 526.894531 771.390625 527.003906 C 770.34375 527.117188 769.3125 527.222656 768.300781 527.316406 C 767.289062 527.414062 766.296875 527.5 765.328125 527.578125 C 764.359375 527.660156 763.417969 527.730469 762.5 527.792969 C 761.585938 527.851562 760.703125 527.90625 759.847656 527.949219 C 758.996094 527.992188 758.179688 528.027344 757.398438 528.050781 C 756.613281 528.078125 755.871094 528.09375 755.167969 528.097656 C 754.464844 528.105469 753.800781 528.101562 753.183594 528.085938 C 752.5625 528.074219 751.988281 528.050781 751.460938 528.019531 C 750.933594 527.988281 750.453125 527.949219 750.019531 527.898438 C 749.589844 527.847656 749.207031 527.789062 748.875 527.722656 C 748.542969 527.652344 748.261719 527.578125 748.03125 527.492188 C 747.804688 527.40625 747.628906 527.3125 747.503906 527.210938 C 747.382812 527.109375 747.3125 527 747.296875 526.882812 C 747.277344 526.761719 747.316406 526.640625 747.40625 526.507812 C 747.496094 526.375 747.640625 526.238281 747.835938 526.09375 C 748.035156 525.945312 748.28125 525.796875 748.582031 525.640625 C 748.882812 525.484375 749.234375 525.320312 749.636719 525.15625 C 750.039062 524.988281 750.488281 524.816406 750.988281 524.640625 C 751.488281 524.464844 752.03125 524.285156 752.625 524.105469 C 753.214844 523.921875 753.851562 523.738281 754.53125 523.550781 C 755.210938 523.363281 755.929688 523.171875 756.6875 522.980469 C 757.445312 522.789062 758.242188 522.597656 759.074219 522.40625 C 759.90625 522.214844 760.769531 522.023438 761.667969 521.828125 C 762.5625 521.636719 763.488281 521.445312 764.441406 521.257812 C 765.394531 521.066406 766.371094 520.878906 767.375 520.691406 C 768.375 520.507812 769.394531 520.324219 770.429688 520.144531 C 771.46875 519.964844 772.523438 519.789062 773.585938 519.613281 C 774.652344 519.441406 775.726562 519.273438 776.808594 519.109375 C 777.894531 518.949219 778.980469 518.789062 780.070312 518.636719 C 781.160156 518.484375 782.246094 518.339844 783.332031 518.199219 C 784.417969 518.058594 785.5 517.921875 786.570312 517.796875 C 787.644531 517.671875 788.703125 517.550781 789.75 517.4375 C 790.796875 517.328125 791.828125 517.222656 792.839844 517.128906 C 793.855469 517.03125 794.847656 516.945312 795.816406 516.863281 C 796.785156 516.785156 797.726562 516.714844 798.640625 516.652344 C 799.554688 516.589844 800.441406 516.539062 801.292969 516.496094 C 802.144531 516.453125 802.964844 516.417969 803.746094 516.394531 C 804.527344 516.367188 805.273438 516.351562 805.976562 516.347656 C 806.679688 516.339844 807.339844 516.34375 807.960938 516.355469 C 808.578125 516.371094 809.152344 516.390625 809.679688 516.421875 C 810.210938 516.453125 810.691406 516.496094 811.121094 516.546875 C 811.554688 516.597656 811.9375 516.65625 812.269531 516.722656 C 812.601562 516.792969 812.882812 516.867188 813.109375 516.953125 C 813.339844 517.039062 813.515625 517.132812 813.636719 517.234375 C 813.761719 517.335938 813.832031 517.445312 813.847656 517.5625 Z M 813.847656 517.5625 " fill-opacity="1" fill-rule="nonzero"/><path fill="#d9f0f8" d="M 714.953125 674.296875 C 714.96875 674.414062 714.933594 674.539062 714.839844 674.667969 C 714.75 674.800781 714.609375 674.941406 714.410156 675.085938 C 714.214844 675.230469 713.964844 675.378906 713.664062 675.535156 C 713.363281 675.695312 713.011719 675.855469 712.613281 676.023438 C 712.210938 676.1875 711.757812 676.359375 711.261719 676.535156 C 710.761719 676.710938 710.214844 676.890625 709.625 677.074219 C 709.03125 677.253906 708.394531 677.441406 707.71875 677.628906 C 707.039062 677.816406 706.320312 678.003906 705.5625 678.195312 C 704.800781 678.386719 704.007812 678.578125 703.175781 678.769531 C 702.34375 678.960938 701.476562 679.15625 700.582031 679.347656 C 699.683594 679.539062 698.757812 679.730469 697.804688 679.921875 C 696.851562 680.109375 695.875 680.296875 694.875 680.484375 C 693.875 680.667969 692.855469 680.851562 691.816406 681.03125 C 690.777344 681.214844 689.726562 681.390625 688.660156 681.5625 C 687.59375 681.734375 686.519531 681.902344 685.4375 682.066406 C 684.355469 682.230469 683.269531 682.386719 682.179688 682.539062 C 681.089844 682.691406 680 682.839844 678.914062 682.980469 C 677.828125 683.121094 676.75 683.253906 675.675781 683.378906 C 674.605469 683.507812 673.546875 683.625 672.496094 683.738281 C 671.449219 683.847656 670.417969 683.953125 669.40625 684.050781 C 668.394531 684.144531 667.402344 684.234375 666.433594 684.3125 C 665.464844 684.390625 664.523438 684.460938 663.605469 684.523438 C 662.691406 684.585938 661.808594 684.636719 660.953125 684.679688 C 660.101562 684.726562 659.285156 684.757812 658.5 684.785156 C 657.71875 684.808594 656.976562 684.824219 656.273438 684.832031 C 655.570312 684.835938 654.90625 684.832031 654.289062 684.820312 C 653.667969 684.808594 653.09375 684.785156 652.566406 684.753906 C 652.039062 684.722656 651.558594 684.679688 651.125 684.628906 C 650.695312 684.582031 650.3125 684.523438 649.980469 684.453125 C 649.648438 684.386719 649.367188 684.308594 649.136719 684.222656 C 648.910156 684.136719 648.734375 684.042969 648.609375 683.941406 C 648.488281 683.839844 648.417969 683.730469 648.402344 683.613281 C 648.382812 683.496094 648.421875 683.371094 648.511719 683.238281 C 648.601562 683.109375 648.746094 682.96875 648.941406 682.824219 C 649.136719 682.679688 649.386719 682.527344 649.6875 682.371094 C 649.988281 682.214844 650.339844 682.054688 650.742188 681.886719 C 651.144531 681.71875 651.59375 681.546875 652.09375 681.375 C 652.59375 681.199219 653.136719 681.019531 653.730469 680.835938 C 654.320312 680.652344 654.957031 680.46875 655.636719 680.28125 C 656.3125 680.09375 657.03125 679.90625 657.792969 679.714844 C 658.550781 679.523438 659.347656 679.332031 660.179688 679.140625 C 661.011719 678.945312 661.875 678.753906 662.773438 678.5625 C 663.667969 678.371094 664.59375 678.179688 665.546875 677.988281 C 666.5 677.800781 667.476562 677.609375 668.480469 677.425781 C 669.480469 677.238281 670.5 677.054688 671.535156 676.875 C 672.574219 676.695312 673.625 676.519531 674.691406 676.347656 C 675.757812 676.175781 676.832031 676.007812 677.914062 675.84375 C 679 675.679688 680.085938 675.523438 681.175781 675.371094 C 682.265625 675.21875 683.351562 675.070312 684.4375 674.929688 C 685.523438 674.789062 686.605469 674.65625 687.675781 674.53125 C 688.75 674.402344 689.808594 674.285156 690.855469 674.171875 C 691.902344 674.058594 692.933594 673.957031 693.945312 673.859375 C 694.960938 673.761719 695.953125 673.675781 696.921875 673.597656 C 697.890625 673.515625 698.832031 673.445312 699.746094 673.386719 C 700.660156 673.324219 701.546875 673.269531 702.398438 673.226562 C 703.25 673.183594 704.070312 673.148438 704.851562 673.125 C 705.632812 673.101562 706.375 673.085938 707.082031 673.078125 C 707.785156 673.074219 708.445312 673.074219 709.066406 673.089844 C 709.683594 673.101562 710.257812 673.125 710.785156 673.15625 C 711.316406 673.1875 711.796875 673.226562 712.226562 673.277344 C 712.660156 673.328125 713.042969 673.386719 713.375 673.457031 C 713.707031 673.523438 713.988281 673.601562 714.214844 673.6875 C 714.445312 673.769531 714.621094 673.863281 714.742188 673.964844 C 714.867188 674.070312 714.9375 674.179688 714.953125 674.296875 Z M 714.953125 674.296875 " fill-opacity="1" fill-rule="nonzero"/><path fill="#d9f0f8" d="M 581.445312 693.738281 C 581.460938 693.855469 581.421875 693.980469 581.332031 694.109375 C 581.242188 694.242188 581.097656 694.378906 580.902344 694.527344 C 580.707031 694.671875 580.457031 694.820312 580.15625 694.976562 C 579.855469 695.132812 579.503906 695.296875 579.101562 695.464844 C 578.703125 695.628906 578.25 695.800781 577.75 695.976562 C 577.253906 696.152344 576.707031 696.332031 576.113281 696.515625 C 575.523438 696.695312 574.886719 696.882812 574.210938 697.070312 C 573.53125 697.257812 572.8125 697.445312 572.050781 697.636719 C 571.292969 697.828125 570.5 698.019531 569.667969 698.210938 C 568.835938 698.402344 567.96875 698.597656 567.074219 698.789062 C 566.175781 698.980469 565.25 699.171875 564.296875 699.359375 C 563.34375 699.550781 562.367188 699.738281 561.367188 699.925781 C 560.367188 700.109375 559.347656 700.292969 558.308594 700.472656 C 557.269531 700.652344 556.21875 700.832031 555.152344 701.003906 C 554.085938 701.175781 553.011719 701.34375 551.929688 701.507812 C 550.847656 701.671875 549.761719 701.828125 548.671875 701.980469 C 547.582031 702.132812 546.492188 702.28125 545.40625 702.421875 C 544.320312 702.558594 543.242188 702.695312 542.167969 702.820312 C 541.097656 702.949219 540.035156 703.066406 538.988281 703.179688 C 537.941406 703.289062 536.910156 703.394531 535.898438 703.492188 C 534.882812 703.585938 533.894531 703.675781 532.925781 703.753906 C 531.957031 703.832031 531.015625 703.902344 530.097656 703.964844 C 529.183594 704.027344 528.300781 704.078125 527.445312 704.121094 C 526.59375 704.164062 525.777344 704.199219 524.992188 704.226562 C 524.210938 704.25 523.46875 704.265625 522.765625 704.269531 C 522.058594 704.277344 521.398438 704.273438 520.777344 704.261719 C 520.160156 704.25 519.585938 704.226562 519.058594 704.195312 C 518.53125 704.164062 518.050781 704.121094 517.617188 704.070312 C 517.183594 704.023438 516.804688 703.960938 516.472656 703.894531 C 516.140625 703.828125 515.859375 703.75 515.628906 703.664062 C 515.402344 703.578125 515.226562 703.484375 515.101562 703.382812 C 514.980469 703.28125 514.910156 703.171875 514.890625 703.054688 C 514.875 702.9375 514.914062 702.8125 515.003906 702.679688 C 515.09375 702.546875 515.238281 702.410156 515.433594 702.265625 C 515.628906 702.121094 515.878906 701.96875 516.179688 701.8125 C 516.480469 701.65625 516.832031 701.496094 517.234375 701.328125 C 517.636719 701.160156 518.085938 700.988281 518.585938 700.8125 C 519.085938 700.640625 519.628906 700.460938 520.222656 700.277344 C 520.8125 700.09375 521.449219 699.910156 522.128906 699.722656 C 522.804688 699.535156 523.523438 699.347656 524.285156 699.15625 C 525.042969 698.964844 525.839844 698.773438 526.671875 698.578125 C 527.503906 698.386719 528.367188 698.195312 529.265625 698.003906 C 530.160156 697.8125 531.085938 697.621094 532.039062 697.429688 C 532.992188 697.238281 533.96875 697.050781 534.96875 696.867188 C 535.972656 696.679688 536.992188 696.496094 538.027344 696.316406 C 539.066406 696.136719 540.117188 695.960938 541.183594 695.789062 C 542.25 695.617188 543.324219 695.449219 544.40625 695.285156 C 545.488281 695.121094 546.578125 694.964844 547.667969 694.808594 C 548.757812 694.65625 549.84375 694.511719 550.929688 694.371094 C 552.015625 694.230469 553.09375 694.097656 554.167969 693.96875 C 555.238281 693.84375 556.300781 693.722656 557.347656 693.613281 C 558.394531 693.5 559.425781 693.398438 560.4375 693.300781 C 561.453125 693.203125 562.441406 693.117188 563.410156 693.039062 C 564.378906 692.957031 565.324219 692.886719 566.238281 692.828125 C 567.152344 692.765625 568.039062 692.710938 568.890625 692.667969 C 569.742188 692.625 570.5625 692.589844 571.34375 692.566406 C 572.125 692.542969 572.867188 692.527344 573.574219 692.519531 C 574.277344 692.515625 574.9375 692.515625 575.558594 692.53125 C 576.175781 692.542969 576.75 692.566406 577.277344 692.597656 C 577.804688 692.628906 578.285156 692.667969 578.71875 692.71875 C 579.152344 692.769531 579.535156 692.828125 579.867188 692.898438 C 580.199219 692.964844 580.476562 693.042969 580.707031 693.125 C 580.933594 693.210938 581.113281 693.304688 581.234375 693.40625 C 581.359375 693.507812 581.425781 693.621094 581.445312 693.738281 Z M 581.445312 693.738281 " fill-opacity="1" fill-rule="nonzero"/><path fill="#545454" d="M 106.917969 256.472656 L 155.175781 251.503906 L 164.785156 233.683594 C 137.339844 231.5625 113.324219 227.878906 101.566406 221.636719 C 106.917969 256.472656 106.917969 256.472656 106.917969 256.472656 Z M 106.917969 256.472656 " fill-opacity="1" fill-rule="nonzero"/><g mask="url(#d8e97bf42b)"><g transform="matrix(1, 0, 0, 1, 361, 226)"><g clip-path="url(#1a2adcfa49)"><path fill="#d9f0f8" d="M 55.886719 1.277344 C 36.886719 3.089844 18.691406 4.6875 1.730469 5.984375 C 19.253906 4.683594 37.324219 3.105469 55.886719 1.277344 Z M 55.886719 1.277344 " fill-opacity="1" fill-rule="nonzero"/></g></g></g><g mask="url(#672884ed6f)"><g transform="matrix(1, 0, 0, 1, 243, 234)"><g clip-path="url(#c5d055c348)"><path fill="#d9f0f8" d="M 1.164062 2.332031 C 19.203125 2.523438 38.195312 2.234375 58.089844 1.488281 C 54.261719 1.625 30.917969 2.398438 1.164062 2.332031 Z M 1.164062 2.332031 " fill-opacity="1" fill-rule="nonzero"/></g></g></g><path fill="#76cdd3" d="M 416.886719 227.277344 C 398.324219 229.105469 380.253906 230.683594 362.730469 231.984375 C 339.777344 233.742188 319.066406 234.964844 301.65625 235.46875 C 301.65625 235.46875 301.453125 235.476562 301.089844 235.488281 C 281.195312 236.234375 262.203125 236.523438 244.164062 236.332031 C 242.628906 236.328125 241.085938 236.324219 239.519531 236.316406 C 215.996094 236.207031 189.050781 235.554688 164.785156 233.683594 L 155.175781 251.503906 L 106.917969 256.472656 L 101.894531 257.636719 L 242.503906 448.371094 C 256.324219 462.488281 272.746094 473.511719 291.457031 481.820312 L 865.144531 407.183594 C 876.632812 401.375 881.5625 394.683594 881.238281 387.289062 L 710.570312 192.355469 C 689.972656 195.132812 667.449219 198.117188 643.75 201.171875 C 571.46875 210.472656 488.429688 220.445312 416.886719 227.277344 Z M 416.886719 227.277344 " fill-opacity="1" fill-rule="nonzero"/><path fill="#d9f0f8" d="M 416.886719 227.277344 C 398.324219 229.105469 380.253906 230.683594 362.730469 231.984375 C 339.777344 233.742188 319.066406 234.964844 301.65625 235.46875 C 301.65625 235.46875 301.453125 235.476562 301.089844 235.488281 C 281.195312 236.234375 262.203125 236.523438 244.164062 236.332031 C 242.628906 236.328125 241.085938 236.324219 239.519531 236.316406 C 215.996094 236.207031 189.050781 235.554688 164.785156 233.683594 L 155.175781 251.503906 L 106.917969 256.472656 L 101.894531 257.636719 L 242.503906 448.371094 C 256.324219 462.488281 272.746094 473.511719 291.457031 481.820312 L 865.144531 407.183594 C 876.632812 401.375 881.5625 394.683594 881.238281 387.289062 L 710.570312 192.355469 C 689.972656 195.132812 667.449219 198.117188 643.75 201.171875 C 571.46875 210.472656 488.429688 220.445312 416.886719 227.277344 Z M 416.886719 227.277344 " fill-opacity="1" fill-rule="nonzero"/><path fill="#ffbd59" d="M 820.867188 176.867188 C 811.617188 178.300781 769.585938 184.394531 712.136719 192.132812 C 711.625 192.207031 711.085938 192.285156 710.574219 192.363281 C 689.980469 195.128906 667.441406 198.125 643.75 201.171875 C 571.46875 210.472656 488.429688 220.433594 416.890625 227.273438 C 397.886719 229.089844 379.699219 230.679688 362.71875 231.984375 C 341.359375 233.574219 320.789062 234.753906 301.09375 235.496094 C 297.25 235.625 273.917969 236.390625 244.15625 236.339844 C 242.617188 236.339844 241.082031 236.316406 239.519531 236.316406 C 216.003906 236.210938 189.0625 235.546875 164.777344 233.675781 C 137.347656 231.550781 113.320312 227.886719 101.566406 221.636719 C 106.917969 256.472656 106.917969 256.472656 106.917969 256.472656 L 101.898438 257.625 L 85.480469 261.441406 L 74.75 171.898438 C 74.75 171.898438 69.625 145.285156 96.210938 137.0625 C 176.613281 112.191406 221.308594 108.375 369.632812 87.296875 C 619.648438 51.820312 777.117188 92.289062 777.117188 92.289062 C 777.117188 92.289062 870.375 106.941406 873.628906 137.0625 C 875.292969 152.535156 856.417969 171.332031 820.867188 176.867188 Z M 820.867188 176.867188 " fill-opacity="1" fill-rule="nonzero"/><path fill="#d9f0f8" d="M 301.65625 235.46875 C 319.066406 234.964844 339.777344 233.742188 362.730469 231.984375 C 341.355469 233.574219 320.789062 234.75 301.089844 235.488281 C 301.453125 235.476562 301.65625 235.46875 301.65625 235.46875 Z M 301.65625 235.46875 " fill-opacity="1" fill-rule="nonzero"/><path fill="#91cddb" d="M 750.300781 293.792969 C 750.300781 314.050781 738.238281 332.621094 717.054688 348.578125 C 706.960938 356.160156 694.796875 363.152344 680.863281 369.425781 C 630.789062 392.09375 557.945312 405.746094 476.878906 405.746094 C 395.480469 405.746094 321.199219 393.070312 270.050781 371.246094 C 249.738281 362.613281 233.0625 352.523438 221.027344 341.203125 C 207.117188 328.164062 199.410156 313.488281 199.410156 297.53125 C 199.410156 275.503906 214.136719 254.449219 239.519531 236.316406 C 274.351562 236.492188 301.65625 235.46875 301.65625 235.46875 C 380.367188 233.191406 526.285156 216.285156 643.75 201.171875 C 708.550781 222.535156 750.300781 256.089844 750.300781 293.792969 Z M 750.300781 293.792969 " fill-opacity="1" fill-rule="nonzero"/><path fill="#ffbd59" d="M 717.054688 348.578125 C 706.960938 356.160156 694.796875 363.152344 680.863281 369.425781 C 630.789062 392.09375 557.945312 405.746094 476.878906 405.746094 C 395.480469 405.746094 321.199219 393.070312 270.050781 371.246094 C 249.738281 362.613281 233.0625 352.523438 221.027344 341.203125 C 259.035156 297.453125 354.445312 266.4375 466.144531 266.4375 C 584.042969 266.4375 683.78125 300.988281 717.054688 348.578125 Z M 717.054688 348.578125 " fill-opacity="1" fill-rule="nonzero"/><path fill="#ffbd59" d="M 581.085938 360.332031 L 599.269531 394.390625 C 630.285156 388.238281 657.972656 379.789062 680.863281 369.425781 C 635.066406 340.175781 560.761719 321.144531 476.878906 321.144531 C 391.253906 321.144531 315.589844 340.972656 270.050781 371.246094 C 297.867188 383.113281 332.5625 392.25 371.488281 398.140625 L 382.21875 369.117188 L 427.480469 385.816406 L 420.878906 403.664062 C 432.9375 404.566406 445.261719 405.175781 457.789062 405.484375 L 457.789062 378.640625 L 506.035156 378.640625 L 506.035156 405.140625 C 520.617188 404.542969 534.847656 403.488281 548.65625 402.023438 L 538.542969 383.078125 Z M 581.085938 360.332031 " fill-opacity="1" fill-rule="nonzero"/><path fill="#76cdd3" d="M 521.96875 264.625 C 523.027344 270.015625 513.878906 276.617188 501.515625 279.378906 C 489.699219 282.023438 479.226562 280.191406 477.398438 275.316406 L 477.203125 274.632812 C 476.128906 269.257812 485.277344 262.65625 497.640625 259.894531 C 509.988281 257.117188 520.875 259.234375 521.96875 264.625 Z M 521.96875 264.625 " fill-opacity="1" fill-rule="nonzero"/><path fill="#d9f0f8" d="M 521.96875 264.625 L 529.984375 306.070312 C 529.984375 306.070312 528.6875 307.890625 526.300781 310.1875 C 520.835938 315.433594 509.523438 323.035156 494.359375 316.4375 L 494.34375 316.453125 C 492.410156 315.617188 490.410156 314.535156 488.347656 313.203125 L 477.398438 275.316406 C 479.226562 280.191406 489.699219 282.023438 501.515625 279.378906 C 513.878906 276.617188 523.027344 270.015625 521.96875 264.625 Z M 521.96875 264.625 " fill-opacity="1" fill-rule="nonzero"/><path fill="#91cddb" d="M 526.300781 310.1875 C 526.300781 310.1875 526.300781 310.1875 540.507812 362.121094 C 524.917969 377.8125 506.8125 369.445312 506.8125 369.445312 L 494.34375 316.453125 L 494.359375 316.4375 C 509.523438 323.035156 520.835938 315.433594 526.300781 310.1875 Z M 526.300781 310.1875 " fill-opacity="1" fill-rule="nonzero"/><path fill="#76cdd3" d="M 475.507812 268.183594 C 474.304688 273.914062 461.652344 277.984375 447.230469 277.28125 C 433.441406 276.609375 423.039062 271.8125 423.203125 266.382812 L 423.292969 265.636719 C 424.476562 259.917969 437.128906 255.84375 451.550781 256.550781 C 465.960938 257.238281 476.683594 262.445312 475.507812 268.183594 Z M 475.507812 268.183594 " fill-opacity="1" fill-rule="nonzero"/><path fill="#d9f0f8" d="M 475.507812 268.183594 L 466.078125 312.210938 C 466.078125 312.210938 463.898438 313.683594 460.347656 315.324219 C 452.222656 319.070312 436.824219 323.535156 423.472656 312.609375 L 423.453125 312.621094 C 421.746094 311.234375 420.078125 309.578125 418.449219 307.652344 L 423.203125 266.382812 C 423.039062 271.8125 433.441406 276.609375 447.230469 277.28125 C 461.652344 277.984375 474.304688 273.914062 475.507812 268.183594 Z M 475.507812 268.183594 " fill-opacity="1" fill-rule="nonzero"/><path fill="#91cddb" d="M 460.347656 315.324219 C 460.347656 315.324219 460.347656 315.324219 452.976562 371.667969 C 429.484375 383.085938 413.761719 369.539062 413.761719 369.539062 L 423.453125 312.621094 L 423.472656 312.609375 C 436.824219 323.535156 452.222656 319.070312 460.347656 315.324219 Z M 460.347656 315.324219 " fill-opacity="1" fill-rule="nonzero"/><path fill="#545454" d="M 450.097656 385.320312 L 513.726562 385.320312 L 513.726562 345.214844 C 502.46875 324.449219 463.015625 326.460938 450.097656 345.214844 Z M 450.097656 385.320312 " fill-opacity="1" fill-rule="nonzero"/><path fill="#d9f0f8" d="M 457.789062 378.640625 L 457.789062 405.484375 C 464.109375 405.640625 470.460938 405.746094 476.878906 405.746094 C 486.730469 405.746094 496.453125 405.539062 506.035156 405.140625 L 506.035156 378.640625 Z M 457.789062 378.640625 " fill-opacity="1" fill-rule="nonzero"/><path fill="#545454" d="M 573.257812 331.476562 L 589.089844 356.066406 L 581.085938 360.332031 L 538.542969 383.078125 L 531.84375 386.652344 L 516.726562 358.351562 C 529.675781 340.804688 559.125 331.476562 573.257812 331.476562 Z M 573.257812 331.476562 " fill-opacity="1" fill-rule="nonzero"/><path fill="#d9f0f8" d="M 581.085938 360.332031 L 538.542969 383.078125 L 548.65625 402.023438 C 566.308594 400.148438 583.226562 397.570312 599.269531 394.390625 Z M 581.085938 360.332031 " fill-opacity="1" fill-rule="nonzero"/><path fill="#545454" d="M 447.097656 358.871094 L 435.980469 388.96875 L 427.480469 385.816406 L 382.21875 369.117188 L 375.097656 366.480469 L 386.214844 336.382812 C 407.9375 334.410156 428.144531 342.480469 447.097656 358.871094 Z M 447.097656 358.871094 " fill-opacity="1" fill-rule="nonzero"/><path fill="#d9f0f8" d="M 382.21875 369.117188 L 371.488281 398.140625 C 387.308594 400.535156 403.820312 402.390625 420.878906 403.664062 L 427.480469 385.816406 Z M 382.21875 369.117188 " fill-opacity="1" fill-rule="nonzero"/></svg>