<svg xmlns="http://www.w3.org/2000/svg" xmlns:xlink="http://www.w3.org/1999/xlink" width="1280" zoomAndPan="magnify" viewBox="0 0 960 959.999988" height="1280" preserveAspectRatio="xMidYMid meet" version="1.0"><defs><clipPath id="6b42f10694"><path d="M 60 58.105469 L 903.265625 58.105469 L 903.265625 892 L 60 892 Z M 60 58.105469 " clip-rule="nonzero"/></clipPath><clipPath id="e860303603"><path d="M 56.515625 58.105469 L 890 58.105469 L 890 901.855469 L 56.515625 901.855469 Z M 56.515625 58.105469 " clip-rule="nonzero"/></clipPath></defs><g clip-path="url(#6b42f10694)"><path fill="#cb6ce6" d="M 161.8125 109.011719 C 161.8125 81.09375 139.1875 58.472656 111.269531 58.472656 C 83.359375 58.472656 60.734375 81.09375 60.734375 109.011719 C 60.734375 136.925781 83.359375 159.546875 111.269531 159.546875 C 139.1875 159.546875 161.8125 136.925781 161.8125 109.011719 M 903.539062 841.328125 C 903.539062 813.414062 880.914062 790.792969 852.996094 790.792969 C 825.085938 790.792969 802.460938 813.414062 802.460938 841.328125 C 802.460938 869.246094 825.085938 891.867188 852.996094 891.867188 C 880.914062 891.867188 903.539062 869.246094 903.539062 841.328125 M 275.03125 325.335938 C 286.863281 337.167969 306.046875 337.167969 317.878906 325.335938 C 329.707031 313.507812 329.707031 294.328125 317.878906 282.496094 C 306.046875 270.660156 286.863281 270.660156 275.03125 282.496094 C 263.199219 294.328125 263.199219 313.507812 275.03125 325.335938 M 677.828125 685.289062 C 665.996094 697.113281 646.8125 697.113281 634.980469 685.289062 C 623.148438 673.457031 623.148438 654.277344 634.980469 642.441406 C 646.8125 630.605469 665.996094 630.605469 677.828125 642.441406 C 689.652344 654.277344 689.652344 673.457031 677.828125 685.289062 M 589.890625 585.890625 C 603.503906 571.972656 616.957031 557.894531 629.867188 543.320312 C 642.773438 528.738281 655.210938 513.757812 667.144531 498.394531 C 691.011719 467.683594 712.800781 435.339844 731.632812 401.476562 C 741.101562 384.582031 749.511719 367.128906 757.046875 349.425781 C 764.578125 331.722656 770.828125 313.535156 775.433594 295.1875 C 776.503906 290.589844 777.550781 285.988281 778.425781 281.382812 C 779.105469 276.753906 780.105469 272.15625 780.472656 267.558594 L 781.21875 260.660156 L 781.53125 253.820312 C 781.574219 252.6875 781.660156 251.550781 781.671875 250.417969 L 781.59375 247.042969 C 781.496094 244.8125 781.582031 242.550781 781.359375 240.347656 C 780.160156 222.699219 774.410156 206.386719 763.359375 196.859375 C 752.359375 187.265625 736.546875 184.035156 719.773438 184.710938 C 702.894531 185.570312 685.425781 189.964844 668.328125 195.902344 C 634.03125 208.144531 601.082031 226.375 569.519531 246.601562 C 553.726562 256.792969 538.371094 267.730469 523.15625 278.882812 C 507.929688 290.042969 493.289062 302.039062 478.632812 313.992188 C 449.539062 338.21875 421.546875 363.875 394.710938 390.71875 C 381.316406 404.152344 368.066406 417.75 355.359375 431.816406 C 342.617188 445.851562 329.914062 459.9375 317.9375 474.589844 C 293.667969 503.644531 270.972656 533.9375 250.480469 565.449219 C 230.21875 596.992188 211.976562 629.972656 199.738281 664.28125 C 193.761719 681.386719 189.402344 698.878906 188.539062 715.78125 C 187.867188 732.582031 191.113281 748.4375 200.746094 759.464844 C 210.324219 770.550781 226.671875 776.300781 244.347656 777.496094 C 246.542969 777.714844 248.808594 777.636719 251.046875 777.726562 L 254.421875 777.804688 C 255.550781 777.792969 256.691406 777.703125 257.828125 777.664062 L 264.675781 777.339844 L 271.566406 776.601562 C 276.175781 776.226562 280.777344 775.230469 285.402344 774.550781 C 290.007812 773.652344 294.609375 772.609375 299.210938 771.539062 C 317.566406 766.925781 335.753906 760.664062 353.453125 753.117188 C 371.15625 745.589844 388.597656 737.144531 405.492188 727.675781 C 439.355469 708.835938 471.691406 687.039062 502.394531 663.152344 C 517.757812 651.222656 532.75 638.78125 547.320312 625.878906 C 561.894531 612.964844 575.96875 599.503906 589.890625 585.890625 M 589.890625 585.890625 C 576.101562 599.636719 562.144531 613.226562 547.691406 626.285156 C 533.234375 639.328125 518.777344 652.40625 503.671875 664.734375 C 473.707031 689.679688 442.40625 713.105469 409.523438 734.414062 C 376.511719 755.472656 341.933594 774.683594 304.089844 788.007812 C 285.125 794.464844 265.242188 799.53125 244.007812 800.371094 C 233.402344 800.730469 222.378906 799.730469 211.386719 796.675781 C 200.433594 793.644531 189.445312 788.0625 180.449219 779.765625 C 171.460938 771.460938 164.84375 760.761719 160.765625 749.742188 C 156.679688 738.699219 154.632812 727.328125 154.011719 716.289062 C 153.789062 713.503906 153.875 710.808594 153.804688 708.050781 L 153.765625 703.929688 C 153.789062 702.574219 153.894531 701.246094 153.953125 699.886719 L 154.40625 691.792969 L 155.308594 683.855469 C 155.804688 678.5 156.914062 673.40625 157.738281 668.160156 C 158.75 663.023438 159.917969 657.917969 161.132812 652.839844 C 166.296875 632.683594 173.082031 613.269531 181.085938 594.535156 C 189.121094 575.8125 197.960938 557.546875 207.855469 539.964844 C 227.511719 504.726562 250.039062 471.378906 274.601562 439.765625 C 286.878906 423.949219 299.695312 408.59375 312.902344 393.59375 C 326.160156 378.640625 339.960938 364.199219 353.925781 349.929688 C 368.15625 335.925781 382.628906 322.160156 397.574219 308.890625 C 412.503906 295.597656 427.914062 282.839844 443.714844 270.546875 C 475.292969 245.941406 508.636719 223.40625 543.886719 203.734375 C 561.476562 193.847656 579.71875 184.957031 598.457031 176.949219 C 617.191406 168.929688 636.613281 162.132812 656.789062 156.972656 C 661.875 155.769531 666.96875 154.59375 672.117188 153.566406 C 677.359375 152.742188 682.457031 151.636719 687.816406 151.140625 L 695.765625 150.234375 L 703.871094 149.785156 C 705.226562 149.722656 706.554688 149.621094 707.921875 149.59375 L 712.042969 149.636719 C 714.800781 149.707031 717.503906 149.621094 720.285156 149.84375 C 731.335938 150.472656 742.726562 152.515625 753.785156 156.617188 C 764.820312 160.707031 775.550781 167.339844 783.863281 176.347656 C 792.171875 185.363281 797.765625 196.371094 800.808594 207.347656 C 803.859375 218.359375 804.859375 229.394531 804.496094 240.007812 C 803.644531 261.261719 798.582031 281.152344 792.105469 300.117188 C 778.75 337.976562 759.527344 372.546875 738.449219 405.550781 C 717.128906 438.433594 693.699219 469.730469 668.742188 499.683594 C 656.414062 514.785156 643.335938 529.246094 630.285156 543.695312 C 617.226562 558.144531 603.636719 572.101562 589.890625 585.890625 " fill-opacity="1" fill-rule="nonzero"/></g><path fill="#bdbbbc" d="M 448.988281 339.585938 C 448.976562 339.566406 448.960938 339.558594 448.945312 339.542969 C 458.707031 330.863281 468.605469 322.34375 478.632812 313.992188 C 483.117188 310.335938 487.613281 306.664062 492.117188 303.023438 C 492.132812 303.03125 492.144531 303.046875 492.160156 303.066406 C 487.628906 306.691406 483.144531 310.359375 478.65625 314.039062 C 468.636719 322.386719 458.746094 330.890625 448.988281 339.585938 " fill-opacity="1" fill-rule="nonzero"/><path fill="#b7701f" d="M 448.945312 339.542969 C 434.023438 327.234375 418.757812 315.351562 403.144531 304.023438 C 416.347656 292.496094 429.914062 281.371094 443.75 270.558594 C 444.378906 270.050781 445.011719 269.582031 445.664062 269.085938 C 460.804688 279.328125 475.496094 290.066406 489.855469 301.25 C 490.613281 301.839844 491.351562 302.421875 492.117188 303.023438 C 487.613281 306.664062 483.117188 310.335938 478.632812 313.992188 C 468.605469 322.34375 458.707031 330.863281 448.945312 339.542969 " fill-opacity="1" fill-rule="nonzero"/><g clip-path="url(#e860303603)"><path fill="#ff66c4" d="M 107.082031 800.445312 C 79.167969 800.445312 56.542969 823.066406 56.542969 850.980469 C 56.542969 878.898438 79.167969 901.519531 107.082031 901.519531 C 134.996094 901.519531 157.621094 878.898438 157.621094 850.980469 C 157.621094 823.066406 134.996094 800.445312 107.082031 800.445312 Z M 839.398438 58.714844 C 811.484375 58.714844 788.863281 81.339844 788.863281 109.257812 C 788.863281 137.167969 811.484375 159.792969 839.398438 159.792969 C 867.316406 159.792969 889.9375 137.167969 889.9375 109.257812 C 889.9375 81.339844 867.316406 58.714844 839.398438 58.714844 Z M 334.335938 543.320312 C 321.429688 528.75 308.988281 513.765625 297.058594 498.40625 C 273.179688 467.695312 251.375 435.355469 232.535156 401.5 C 223.0625 384.597656 214.628906 367.164062 207.089844 349.453125 C 199.550781 331.761719 193.289062 313.570312 188.667969 295.214844 C 187.597656 290.617188 186.554688 286.015625 185.664062 281.410156 C 184.984375 276.78125 183.976562 272.179688 183.613281 267.574219 L 182.867188 260.679688 L 182.550781 253.835938 C 182.507812 252.695312 182.417969 251.558594 182.410156 250.425781 L 182.488281 247.054688 C 182.578125 244.8125 182.496094 242.550781 182.714844 240.347656 C 183.914062 222.675781 189.660156 206.328125 200.746094 196.746094 C 211.769531 187.121094 227.636719 183.871094 244.433594 184.546875 C 261.328125 185.410156 278.828125 189.761719 295.929688 195.742188 C 330.242188 207.988281 363.214844 226.21875 394.765625 246.480469 C 426.269531 266.972656 456.5625 289.675781 485.625 313.9375 C 500.273438 325.914062 514.355469 338.617188 528.390625 351.363281 C 542.457031 364.070312 556.058594 377.320312 569.492188 390.71875 C 596.332031 417.550781 621.992188 445.546875 646.214844 474.640625 C 658.171875 489.292969 670.175781 503.941406 681.324219 519.167969 C 692.488281 534.371094 703.417969 549.738281 713.605469 565.519531 C 733.832031 597.082031 752.074219 630.042969 764.308594 664.324219 C 770.246094 681.429688 774.636719 698.90625 775.496094 715.773438 C 776.175781 732.546875 772.949219 748.371094 763.359375 759.359375 C 753.820312 770.414062 737.519531 776.160156 719.859375 777.367188 C 717.660156 777.585938 715.402344 777.507812 713.164062 777.59375 L 709.789062 777.671875 C 708.660156 777.664062 707.519531 777.574219 706.390625 777.53125 L 699.550781 777.21875 L 692.660156 776.480469 C 688.050781 776.117188 683.453125 775.117188 678.828125 774.4375 C 674.230469 773.550781 669.628906 772.515625 665.023438 771.445312 C 646.675781 766.828125 628.488281 760.585938 610.785156 753.058594 C 593.089844 745.515625 575.636719 737.101562 558.738281 727.632812 C 524.867188 708.796875 492.523438 687.019531 461.816406 663.144531 C 446.449219 651.214844 431.472656 638.773438 416.886719 625.878906 C 402.320312 612.957031 388.238281 599.503906 374.320312 585.890625 C 360.703125 571.972656 347.25 557.894531 334.335938 543.320312 Z M 416.515625 626.285156 C 430.96875 639.339844 445.429688 652.414062 460.53125 664.742188 C 490.492188 689.699219 521.773438 713.128906 554.660156 734.457031 C 587.664062 755.535156 622.234375 774.761719 660.089844 788.105469 C 679.054688 794.59375 698.949219 799.652344 720.199219 800.503906 C 730.816406 800.863281 741.847656 799.859375 752.867188 796.816406 C 763.835938 793.773438 774.84375 788.183594 783.863281 779.871094 C 792.871094 771.550781 799.503906 760.828125 803.589844 749.796875 C 807.695312 738.726562 809.738281 727.347656 810.363281 716.289062 C 810.589844 713.503906 810.503906 710.800781 810.570312 708.042969 L 810.617188 703.921875 C 810.589844 702.566406 810.488281 701.226562 810.425781 699.878906 L 809.972656 691.777344 L 809.078125 683.828125 C 808.574219 678.464844 807.46875 673.367188 806.652344 668.117188 C 805.617188 662.976562 804.445312 657.871094 803.234375 652.796875 C 798.085938 632.625 791.285156 613.199219 783.261719 594.460938 C 775.253906 575.71875 766.359375 557.484375 756.472656 539.886719 C 736.804688 504.648438 714.269531 471.292969 689.664062 439.722656 C 677.367188 423.914062 664.613281 408.507812 651.328125 393.578125 C 638.058594 378.632812 624.285156 364.15625 610.277344 349.929688 C 596.011719 335.96875 581.570312 322.167969 566.613281 308.910156 C 551.617188 295.695312 536.261719 282.886719 520.441406 270.609375 C 488.839844 246.042969 455.492188 223.515625 420.253906 203.859375 C 402.664062 193.964844 384.398438 185.121094 365.683594 177.09375 C 346.945312 169.089844 327.527344 162.296875 307.367188 157.132812 C 302.292969 155.925781 297.195312 154.75 292.046875 153.742188 C 286.804688 152.914062 281.714844 151.8125 276.355469 151.316406 L 268.417969 150.414062 L 260.324219 149.960938 C 258.972656 149.898438 257.636719 149.792969 256.277344 149.765625 L 252.15625 149.8125 C 249.402344 149.878906 246.707031 149.792969 243.925781 150.019531 C 232.886719 150.636719 221.511719 152.679688 210.46875 156.765625 C 199.457031 160.847656 188.746094 167.46875 180.445312 176.453125 C 172.152344 185.449219 166.570312 196.433594 163.53125 207.386719 C 160.484375 218.386719 159.484375 229.402344 159.839844 240.007812 C 160.683594 261.242188 165.75 281.128906 172.203125 300.09375 C 185.535156 337.941406 204.738281 372.511719 225.792969 405.527344 C 247.105469 438.410156 270.527344 469.710938 295.476562 499.671875 C 307.800781 514.777344 320.878906 529.234375 333.921875 543.695312 C 346.980469 558.144531 360.570312 572.101562 374.320312 585.890625 C 388.109375 599.636719 402.0625 613.234375 416.515625 626.285156 Z M 243.835938 716.476562 C 255.667969 728.3125 274.847656 728.3125 286.683594 716.476562 C 298.515625 704.652344 298.515625 685.460938 286.683594 673.640625 C 274.847656 661.804688 255.667969 661.804688 243.835938 673.640625 C 232.003906 685.460938 232.003906 704.652344 243.835938 716.476562 Z M 709.027344 294.144531 C 697.191406 305.972656 678.011719 305.972656 666.175781 294.144531 C 654.34375 282.3125 654.34375 263.128906 666.175781 251.296875 C 678.011719 239.460938 697.191406 239.460938 709.027344 251.296875 C 720.851562 263.128906 720.851562 282.3125 709.027344 294.144531 " fill-opacity="1" fill-rule="nonzero"/></g></svg>