<svg xmlns="http://www.w3.org/2000/svg" xmlns:xlink="http://www.w3.org/1999/xlink" width="1280" zoomAndPan="magnify" viewBox="0 0 960 959.999988" height="1280" preserveAspectRatio="xMidYMid meet" version="1.0"><defs><clipPath id="1aba0cb48a"><path d="M 73.535156 235 L 409 235 L 409 714 L 73.535156 714 Z M 73.535156 235 " clip-rule="nonzero"/></clipPath></defs><path fill="#004aad" d="M 306.820312 203.410156 C 303.601562 203.410156 301.855469 204.167969 301.625 204.742188 C 301.601562 204.765625 300.957031 206.515625 305.164062 211.640625 C 313.421875 221.644531 323.996094 231.050781 336.574219 239.578125 C 355.777344 252.617188 376.746094 262.710938 398.914062 269.585938 C 405.28125 271.566406 410.9375 271.496094 412.066406 269.449219 C 413.054688 267.65625 411.285156 263.609375 407.558594 259.101562 C 383.507812 230.082031 348.371094 209.917969 311.167969 203.800781 C 309.511719 203.523438 308.0625 203.410156 306.820312 203.410156 Z M 407.121094 285.730469 C 403.28125 285.730469 399.074219 285.039062 394.566406 283.636719 C 370.996094 276.347656 348.714844 265.609375 328.296875 251.742188 C 314.570312 242.429688 302.980469 232.082031 293.804688 221 C 287.253906 213.042969 285.296875 205.664062 288.011719 199.109375 C 291.460938 190.761719 300.796875 187.175781 313.582031 189.292969 C 354.210938 195.984375 392.613281 218.011719 418.894531 249.71875 C 429.21875 262.207031 427.910156 271.175781 424.988281 276.507812 C 421.652344 282.578125 415.308594 285.730469 407.121094 285.730469 " fill-opacity="1" fill-rule="nonzero"/><path fill="#004aad" d="M 404.890625 325.855469 C 403.488281 325.855469 402.085938 325.785156 400.683594 325.671875 C 367.800781 322.820312 337.128906 311.023438 311.996094 291.617188 C 308.773438 289.132812 308.175781 284.511719 310.660156 281.292969 C 313.167969 278.074219 317.765625 277.472656 320.984375 279.957031 C 343.886719 297.664062 371.894531 308.402344 401.972656 311.023438 C 414.363281 312.082031 426.691406 306.171875 433.980469 295.59375 C 446.027344 278.140625 443.335938 259.125 426.046875 239.121094 C 390.636719 198.074219 357.203125 179.796875 306.84375 173.839844 C 287.4375 171.515625 273.457031 186.992188 265.15625 200.375 C 258.648438 210.882812 260.121094 225.414062 268.765625 235.71875 C 274.308594 242.339844 280.539062 248.410156 287.230469 253.746094 C 290.402344 256.273438 290.933594 260.894531 288.378906 264.09375 C 285.851562 267.265625 281.226562 267.792969 278.054688 265.242188 C 270.582031 259.285156 263.660156 252.546875 257.476562 245.144531 C 244.621094 229.808594 242.691406 208.699219 252.667969 192.601562 C 267.800781 168.25 287.136719 156.707031 308.570312 159.238281 C 362.304688 165.5625 399.578125 185.933594 437.199219 229.507812 C 458.789062 254.503906 461.964844 280.945312 446.097656 303.941406 C 436.625 317.714844 421.101562 325.855469 404.890625 325.855469 " fill-opacity="1" fill-rule="nonzero"/><g clip-path="url(#1aba0cb48a)"><path fill="#004aad" d="M 156.785156 713.765625 C 141.355469 713.765625 125.742188 709.375 112.449219 700.613281 C 88.511719 684.773438 73.269531 655.246094 73.660156 625.421875 C 74.050781 596.265625 87.730469 569.847656 99.804688 546.53125 L 189.066406 373.773438 C 189.136719 373.613281 189.207031 373.476562 189.273438 373.335938 L 258.578125 239.328125 C 260.441406 235.71875 264.902344 234.292969 268.488281 236.175781 C 272.121094 238.039062 273.523438 242.476562 271.664062 246.085938 L 202.542969 379.730469 C 202.496094 379.867188 202.425781 379.984375 202.359375 380.144531 L 112.886719 553.269531 C 101.550781 575.15625 88.71875 599.945312 88.375 625.628906 C 88.054688 650.578125 100.699219 675.183594 120.566406 688.335938 C 140.984375 701.789062 169.199219 702.523438 189.160156 690.152344 C 208.496094 678.125 219.878906 655.890625 229.929688 636.253906 C 258.785156 579.78125 287.667969 523.328125 316.546875 466.855469 L 347.382812 406.609375 C 347.453125 406.472656 347.519531 406.355469 347.589844 406.242188 C 348.878906 403.597656 350.257812 400.976562 351.613281 398.332031 C 351.683594 398.21875 351.730469 398.054688 351.796875 397.941406 C 365.9375 370.257812 380.058594 342.640625 394.246094 314.976562 C 396.085938 311.34375 400.523438 309.917969 404.132812 311.78125 C 407.765625 313.621094 409.191406 318.058594 407.328125 321.667969 C 393.234375 349.195312 379.183594 376.671875 365.132812 404.21875 C 365.042969 404.378906 364.972656 404.5625 364.882812 404.726562 C 363.410156 407.53125 361.960938 410.359375 360.558594 413.164062 C 360.464844 413.371094 360.375 413.53125 360.257812 413.714844 L 329.652344 473.570312 C 300.773438 530.019531 271.890625 586.496094 243.035156 642.945312 C 232.640625 663.226562 219.742188 688.472656 196.910156 702.636719 C 184.953125 710.089844 170.925781 713.765625 156.785156 713.765625 " fill-opacity="1" fill-rule="nonzero"/></g><path fill="#004aad" d="M 358.351562 408.679688 C 358.28125 408.679688 358.191406 408.679688 358.097656 408.679688 C 354.144531 408.542969 350.992188 405.324219 350.992188 401.367188 L 350.992188 401.277344 C 351.523438 394.03125 342.875 387.089844 334.644531 382.8125 C 300.015625 364.96875 258.164062 359.542969 219.878906 367.933594 C 212.75 369.519531 207.417969 371.957031 204.839844 374.832031 C 202.128906 377.867188 197.460938 378.121094 194.449219 375.40625 C 191.414062 372.695312 191.160156 368.050781 193.871094 365.011719 C 198.609375 359.726562 206.289062 355.863281 216.707031 353.5625 C 258.304688 344.433594 303.761719 350.34375 341.402344 369.75 C 357.730469 378.210938 366.582031 389.894531 365.710938 401.828125 C 365.410156 405.667969 362.214844 408.679688 358.351562 408.679688 " fill-opacity="1" fill-rule="nonzero"/><path fill="#004aad" d="M 305.695312 424.867188 C 274.46875 424.867188 243.289062 419.003906 214.222656 407.53125 C 208.519531 405.277344 202.035156 402.449219 196.816406 397.621094 C 190.238281 391.457031 187.160156 383.25 188.539062 375.613281 C 188.5625 375.523438 188.585938 375.429688 188.605469 375.316406 C 188.882812 373.867188 189.617188 372.488281 190.652344 371.429688 C 193.527344 368.554688 198.195312 368.554688 201.070312 371.429688 C 202.957031 373.335938 203.597656 376.027344 202.980469 378.441406 C 202.609375 381.019531 204.105469 384.28125 206.839844 386.835938 C 210.175781 389.917969 215.003906 392.007812 219.648438 393.871094 C 254.761719 407.714844 293.183594 412.886719 330.804688 408.792969 C 336.828125 408.175781 344.96875 407.300781 348.945312 404.519531 C 350.257812 403.277344 352.027344 402.515625 353.960938 402.515625 C 358.027344 402.515625 361.316406 405.804688 361.316406 409.875 C 361.316406 412.222656 360.214844 414.335938 358.511719 415.691406 C 351.359375 421.417969 340.390625 422.589844 332.367188 423.441406 C 323.515625 424.40625 314.617188 424.867188 305.695312 424.867188 " fill-opacity="1" fill-rule="nonzero"/><path fill="#004aad" d="M 262.855469 464.117188 C 260.761719 464.117188 258.648438 464.855469 257.222656 466.234375 C 254.648438 468.808594 254.300781 473.753906 256.53125 476.628906 C 258.738281 479.503906 263.613281 480.445312 266.742188 478.628906 C 268.351562 477.683594 270.835938 474.835938 271.042969 471.707031 C 271.085938 470.902344 271.273438 468.488281 267.636719 465.636719 C 266.328125 464.625 264.601562 464.117188 262.855469 464.117188 Z M 263.085938 494.265625 C 256.140625 494.265625 249.175781 491.207031 244.875 485.59375 C 238.160156 476.902344 239.058594 463.496094 246.875 455.773438 C 254.691406 448.046875 268.097656 447.285156 276.722656 454.070312 C 283 459.015625 286.195312 465.613281 285.734375 472.695312 C 285.160156 481.226562 279.527344 488.195312 274.214844 491.320312 C 270.8125 493.296875 266.949219 494.265625 263.085938 494.265625 " fill-opacity="1" fill-rule="nonzero"/><path fill="#004aad" d="M 196.332031 508.105469 C 192.355469 508.105469 188.171875 510.335938 186.421875 513.855469 C 184.078125 518.570312 186.171875 525.535156 190.769531 528.203125 C 195.390625 530.917969 202.519531 529.375 205.691406 524.984375 C 207.09375 523.097656 208.246094 519.832031 207.347656 516.386719 C 206.519531 513.210938 204.128906 510.707031 200.242188 508.933594 C 199.023438 508.359375 197.691406 508.105469 196.332031 508.105469 Z M 196.125 544.300781 C 191.6875 544.300781 187.25 543.195312 183.339844 540.917969 C 172.050781 534.320312 167.429688 518.914062 173.246094 507.277344 C 179.179688 495.390625 194.378906 490.035156 206.382812 495.550781 C 214.246094 499.164062 219.648438 505.253906 221.582031 512.660156 C 223.445312 519.8125 221.972656 527.652344 217.601562 533.652344 C 212.613281 540.527344 204.359375 544.300781 196.125 544.300781 " fill-opacity="1" fill-rule="nonzero"/><path fill="#004aad" d="M 160.070312 600.566406 C 152.691406 600.566406 145.378906 606.15625 143.515625 613.304688 C 141.628906 620.664062 145.632812 629.46875 152.4375 632.898438 C 157.519531 635.449219 164.210938 635.171875 169.0625 632.230469 C 172.511719 630.113281 178.121094 625.03125 176.605469 614.890625 C 175.5 607.351562 168.394531 600.933594 160.761719 600.589844 C 160.53125 600.566406 160.300781 600.566406 160.070312 600.566406 Z M 160.09375 649.335938 C 155.171875 649.335938 150.230469 648.257812 145.839844 646.050781 C 132.730469 639.449219 125.625 623.789062 129.28125 609.625 C 132.890625 595.601562 147.011719 585.277344 161.472656 585.875 C 175.984375 586.5625 189.042969 598.359375 191.160156 612.730469 C 193.136719 626.066406 187.757812 638.046875 176.742188 644.785156 C 171.777344 647.820312 165.933594 649.335938 160.09375 649.335938 " fill-opacity="1" fill-rule="nonzero"/><path fill="#004aad" d="M 376.65625 56.476562 C 376.011719 56.476562 375.367188 56.523438 374.722656 56.636719 C 368.167969 57.71875 362.71875 64.5 363.066406 71.148438 C 363.410156 77.769531 369.527344 83.953125 376.171875 84.347656 C 379.917969 84.597656 385.597656 82.691406 388.75 78.757812 C 391.300781 75.609375 391.855469 71.628906 390.429688 66.59375 C 388.796875 60.84375 382.65625 56.476562 376.65625 56.476562 Z M 376.699219 99.085938 C 376.21875 99.085938 375.734375 99.0625 375.273438 99.039062 C 361.179688 98.1875 349.085938 86.023438 348.347656 71.90625 C 347.636719 57.789062 358.375 44.429688 372.308594 42.128906 C 386.242188 39.828125 400.730469 49.003906 404.59375 62.59375 C 407.28125 72.113281 405.742188 81.125 400.222656 88 C 393.96875 95.75 384.195312 99.085938 376.699219 99.085938 " fill-opacity="1" fill-rule="nonzero"/><path fill="#004aad" d="M 469.550781 156.480469 L 469.621094 156.480469 Z M 445.707031 137.324219 C 437.265625 137.324219 428.988281 144.523438 427.929688 153.050781 C 426.851562 161.929688 433.65625 171.585938 442.53125 173.703125 C 446.832031 174.714844 451.039062 173.976562 454.398438 171.609375 C 458.722656 168.550781 461.433594 163.054688 462.238281 155.675781 C 462.699219 151.648438 461.25 147.304688 458.308594 143.71875 C 455.25 140.039062 451.085938 137.714844 446.878906 137.371094 C 446.488281 137.324219 446.097656 137.324219 445.707031 137.324219 Z M 446.1875 188.855469 C 443.84375 188.855469 441.476562 188.578125 439.128906 188.003906 C 422.894531 184.140625 411.308594 167.652344 413.332031 151.257812 C 415.398438 134.402344 431.3125 121.320312 448.074219 122.699219 C 456.214844 123.367188 464.078125 127.621094 469.644531 134.359375 C 475.117188 140.980469 477.761719 149.351562 476.863281 157.285156 C 475.230469 172.070312 468.355469 179.773438 462.882812 183.636719 C 458.007812 187.0625 452.191406 188.855469 446.1875 188.855469 " fill-opacity="1" fill-rule="nonzero"/><path fill="#004aad" d="M 579.050781 195.269531 C 577.257812 195.269531 575.460938 195.5 573.714844 195.960938 C 562.332031 198.902344 554.125 211.664062 556.171875 223.230469 C 558.195312 234.84375 570.242188 243.996094 581.96875 242.914062 C 587.925781 242.363281 595.972656 238.589844 600.59375 231.417969 C 604.34375 225.578125 604.941406 218.792969 602.320312 211.273438 C 602.320312 211.25 602.320312 211.25 602.320312 211.25 C 599.054688 201.847656 588.984375 195.269531 579.050781 195.269531 Z M 580.085938 257.722656 C 561.988281 257.722656 544.8125 243.765625 541.660156 225.785156 C 538.304688 206.746094 551.296875 186.554688 570.011719 181.703125 C 588.707031 176.851562 609.886719 188.164062 616.230469 206.445312 C 621.429688 221.390625 617.3125 232.613281 612.964844 239.394531 C 606.574219 249.328125 594.9375 256.480469 583.351562 257.5625 C 582.269531 257.675781 581.164062 257.722656 580.085938 257.722656 " fill-opacity="1" fill-rule="nonzero"/><path fill="#004aad" d="M 672.5 98.695312 C 669.648438 98.695312 666.910156 99.339844 664.542969 100.578125 C 660.542969 102.695312 657.367188 106.71875 655.851562 111.640625 C 654.332031 116.5625 654.699219 121.6875 656.816406 125.691406 C 658.953125 129.691406 663 132.863281 667.921875 134.359375 C 672.84375 135.851562 677.949219 135.484375 681.972656 133.347656 C 687.261719 130.519531 696.089844 120.675781 689.652344 108.351562 C 687.535156 104.328125 683.511719 101.15625 678.59375 99.636719 C 676.570312 99.015625 674.5 98.695312 672.5 98.695312 Z M 673.902344 149.972656 C 670.476562 149.972656 667.003906 149.464844 663.621094 148.429688 C 655 145.785156 647.78125 140.039062 643.824219 132.585938 C 639.871094 125.160156 639.132812 115.941406 641.777344 107.316406 C 644.445312 98.695312 650.238281 91.496094 657.691406 87.566406 C 665.117188 83.632812 674.339844 82.898438 682.960938 85.585938 C 691.582031 88.253906 698.757812 94.050781 702.667969 101.523438 C 713.246094 121.6875 700.988281 139.855469 688.894531 146.316406 C 684.386719 148.730469 679.191406 149.972656 673.902344 149.972656 " fill-opacity="1" fill-rule="nonzero"/><path fill="#004aad" d="M 680.617188 205.15625 C 680.523438 205.15625 680.429688 205.15625 680.339844 205.15625 C 676.570312 205.226562 673.304688 206.789062 671.601562 209.320312 C 669.921875 211.847656 669.714844 215.460938 671.097656 218.976562 C 672.453125 222.496094 675.050781 225.023438 677.992188 225.738281 C 681.167969 226.519531 687.308594 224.011719 690.15625 219.734375 C 692.386719 216.402344 692.089844 212.90625 689.238281 208.976562 C 687.492188 206.582031 684.269531 205.15625 680.617188 205.15625 Z M 679.191406 240.589844 C 677.601562 240.589844 676.015625 240.40625 674.523438 240.0625 C 666.886719 238.199219 660.496094 232.3125 657.367188 224.3125 C 654.265625 216.332031 655.023438 207.664062 659.390625 201.132812 C 663.761719 194.601562 671.488281 190.601562 680.0625 190.441406 C 688.546875 190.097656 696.503906 193.980469 701.125 200.328125 C 707.65625 209.296875 708.117188 219.34375 702.390625 227.921875 C 697.261719 235.601562 687.742188 240.589844 679.191406 240.589844 " fill-opacity="1" fill-rule="nonzero"/><path fill="#004aad" d="M 603.125 370.234375 C 597.445312 370.234375 591.464844 369.589844 585.765625 367.242188 C 575.140625 362.898438 565.964844 350.964844 569.023438 338.570312 C 571.578125 328.222656 580.980469 322.496094 588.914062 318.65625 C 631.15625 298.191406 678.222656 288.71875 725.132812 291.292969 C 743.273438 292.28125 754.933594 299.640625 757.09375 311.4375 C 759.140625 322.613281 751.828125 333.191406 736.539062 341.214844 C 710.507812 354.851562 682.570312 364.09375 653.503906 368.691406 C 649.480469 369.335938 645.734375 366.578125 645.089844 362.554688 C 644.46875 358.550781 647.203125 354.78125 651.207031 354.160156 C 678.683594 349.8125 705.105469 341.078125 729.707031 328.175781 C 733.019531 326.429688 743.757812 320.289062 742.609375 314.082031 C 741.640625 308.792969 732.167969 306.425781 724.328125 305.988281 C 679.925781 303.574219 635.339844 312.519531 595.328125 331.902344 C 590.292969 334.339844 584.382812 337.695312 583.304688 342.089844 C 582.222656 346.503906 586.683594 351.722656 591.351562 353.632812 C 597.8125 356.253906 606.066406 355.5625 613.378906 354.941406 C 617.359375 354.644531 620.992188 357.585938 621.335938 361.632812 C 621.679688 365.679688 618.691406 369.246094 614.621094 369.589844 C 611.082031 369.910156 607.171875 370.234375 603.125 370.234375 " fill-opacity="1" fill-rule="nonzero"/><path fill="#004aad" d="M 710.644531 278.417969 C 666.796875 278.417969 622.921875 288.671875 582.359375 308.515625 C 573.070312 313.070312 563.460938 318.359375 556.261719 326.039062 C 549.960938 332.777344 546.71875 340.730469 546.628906 349.675781 C 546.605469 352.230469 547.042969 355.058594 547.984375 358.324219 L 550.46875 367.058594 C 553.894531 379.199219 563.710938 388.675781 576.082031 391.800781 C 625.980469 404.425781 721.867188 389.113281 762.636719 353.21875 C 775.925781 341.535156 781.835938 328.867188 780.226562 315.597656 C 780.226562 315.574219 780.226562 315.574219 780.226562 315.574219 L 780.15625 314.886719 C 778.5 301.34375 769.648438 289.777344 757.023438 284.671875 C 750.265625 281.933594 743.207031 280.210938 736.078125 279.566406 C 727.617188 278.808594 719.128906 278.417969 710.644531 278.417969 Z M 617.265625 410.863281 C 600.59375 410.863281 585.1875 409.300781 572.472656 406.058594 C 555.019531 401.644531 541.15625 388.261719 536.304688 371.085938 L 533.820312 362.371094 C 532.488281 357.722656 531.867188 353.515625 531.910156 349.515625 C 532.027344 336.777344 536.625 325.488281 545.523438 315.988281 C 554.375 306.539062 565.828125 300.238281 575.898438 295.316406 C 626.71875 270.414062 682.570312 259.929688 737.410156 264.917969 C 745.988281 265.703125 754.449219 267.746094 762.542969 271.035156 C 780.113281 278.140625 792.460938 294.261719 794.757812 313.09375 L 794.851562 313.828125 C 797.035156 331.972656 789.261719 349.402344 772.363281 364.277344 C 737.917969 394.585938 670.910156 410.863281 617.265625 410.863281 " fill-opacity="1" fill-rule="nonzero"/><path fill="#004aad" d="M 766.453125 920.003906 C 739.757812 920.003906 714.554688 911.21875 696.757812 895.261719 C 668.613281 870.011719 659.988281 829.335938 653.6875 799.628906 C 625.519531 666.765625 597.308594 533.816406 569.09375 400.929688 C 568.242188 396.953125 570.773438 393.042969 574.75 392.191406 C 578.703125 391.34375 582.636719 393.894531 583.488281 397.871094 C 611.703125 530.757812 639.914062 663.710938 668.082031 796.59375 C 675.695312 832.511719 683.859375 863.921875 706.574219 884.292969 C 724.949219 900.734375 752.886719 908.183594 781.375 904.230469 C 815.914062 899.445312 845.714844 878.269531 857.304688 850.308594 C 869.46875 821.105469 863.027344 788.132812 854.039062 751.179688 L 799.886719 528.019531 C 799.585938 526.894531 799.3125 525.699219 799.058594 524.480469 C 799.035156 524.410156 799.011719 524.316406 798.988281 524.25 L 759.417969 361.3125 C 758.472656 357.355469 760.886719 353.378906 764.84375 352.414062 C 768.796875 351.445312 772.777344 353.882812 773.71875 357.839844 L 813.222656 520.546875 C 813.269531 520.707031 813.316406 520.847656 813.339844 521.007812 C 813.613281 522.15625 813.867188 523.28125 814.164062 524.433594 L 868.339844 747.707031 C 875.746094 778.199219 885.90625 819.933594 870.894531 855.964844 C 857.347656 888.640625 822.996094 913.3125 783.398438 918.808594 C 777.71875 919.589844 772.039062 920.003906 766.453125 920.003906 " fill-opacity="1" fill-rule="nonzero"/><path fill="#004aad" d="M 800.046875 528.570312 Z M 708.230469 500.175781 C 684.042969 500.175781 660.679688 503.460938 638.925781 510.015625 C 631.796875 512.109375 624.507812 514.707031 619.175781 519.351562 C 615.128906 522.824219 611.585938 528.6875 612.757812 534.066406 C 613.519531 537.722656 616.484375 541.355469 620.875 544.046875 C 625.683594 547.011719 631.683594 548.667969 636.925781 549.980469 C 682.042969 561.429688 726.605469 562.003906 765.832031 551.613281 C 772.914062 549.75 781.03125 547.21875 787.609375 542.667969 C 793.65625 538.550781 800.460938 533.171875 799.839844 527.882812 C 799.839844 527.835938 799.839844 527.789062 799.839844 527.789062 C 799.726562 527.214844 799.65625 526.664062 799.679688 526.089844 C 799.472656 525.699219 799.289062 525.285156 799.152344 524.847656 C 797.65625 520.777344 794.207031 516.84375 789.675781 514.0625 C 783.972656 510.5 777.214844 508.589844 768.773438 506.796875 C 748.332031 502.382812 728.007812 500.175781 708.230469 500.175781 Z M 706.851562 573.734375 C 682.9375 573.734375 658.195312 570.558594 633.339844 564.257812 C 627.0625 562.695312 619.773438 560.648438 613.171875 556.601562 C 605.21875 551.703125 599.953125 544.804688 598.363281 537.125 C 596.203125 527.078125 600.480469 515.992188 609.5625 508.199219 C 616.992188 501.738281 626.441406 498.355469 634.695312 495.898438 C 676.636719 483.296875 724.050781 482.078125 771.855469 492.402344 C 780.457031 494.242188 789.515625 496.609375 797.425781 501.554688 C 804.898438 506.152344 810.464844 512.730469 813.0625 520.039062 C 813.085938 520.109375 813.109375 520.203125 813.132812 520.269531 C 813.382812 521.03125 813.523438 521.835938 813.523438 522.617188 C 813.523438 522.683594 813.523438 522.730469 813.523438 522.800781 C 813.730469 523.167969 813.890625 523.558594 814.027344 523.972656 C 814.1875 524.480469 814.371094 525.46875 814.441406 525.996094 C 816.210938 540.964844 802.023438 550.644531 795.953125 554.785156 C 787.539062 560.625 777.902344 563.636719 769.582031 565.84375 C 749.734375 571.109375 728.628906 573.734375 706.851562 573.734375 " fill-opacity="1" fill-rule="nonzero"/><path fill="#004aad" d="M 701.953125 635.242188 C 694.113281 635.242188 686.089844 640.53125 683.695312 648.027344 C 680.84375 656.925781 686.25 667.941406 695.054688 671.113281 C 703.839844 674.308594 715.039062 669.296875 718.554688 660.628906 C 720.417969 655.984375 720.097656 650.074219 717.707031 645.222656 C 716.09375 641.933594 712.832031 637.632812 706.367188 635.816406 C 704.921875 635.425781 703.449219 635.242188 701.953125 635.242188 Z M 700.503906 686.75 C 696.964844 686.773438 693.421875 686.175781 690.042969 684.957031 C 673.992188 679.160156 664.472656 659.777344 669.671875 643.519531 C 674.914062 627.261719 693.882812 617.007812 710.347656 621.652344 C 719.453125 624.226562 726.765625 630.273438 730.925781 638.738281 C 735.15625 647.359375 735.640625 657.59375 732.191406 666.144531 C 727.15625 678.65625 713.796875 686.75 700.503906 686.75 " fill-opacity="1" fill-rule="nonzero"/><path fill="#004aad" d="M 791.011719 677.621094 C 790.34375 677.621094 789.675781 677.710938 789.054688 677.894531 C 785.332031 678.953125 782.527344 683.4375 783.167969 687.277344 C 783.835938 691.117188 787.929688 694.453125 791.863281 694.152344 C 794.136719 694.015625 797.425781 692.382812 798.96875 689.921875 C 800.183594 687.945312 800.207031 685.597656 799.035156 682.703125 C 797.792969 679.714844 794.300781 677.621094 791.011719 677.621094 Z M 791.46875 708.871094 C 780.59375 708.871094 770.546875 700.546875 768.683594 689.785156 C 766.75 678.5625 774.0625 666.90625 784.984375 663.753906 C 795.886719 660.582031 808.324219 666.605469 812.648438 677.113281 C 815.636719 684.402344 815.199219 691.714844 811.429688 697.71875 C 806.945312 704.890625 798.828125 708.457031 792.78125 708.847656 C 792.34375 708.871094 791.90625 708.871094 791.46875 708.871094 " fill-opacity="1" fill-rule="nonzero"/><path fill="#004aad" d="M 717.589844 746.144531 C 715.152344 746.144531 712.644531 747.039062 711.082031 748.789062 C 708.230469 752.007812 708.460938 757.9375 711.566406 760.996094 C 714.648438 764.03125 720.742188 764.21875 724.050781 761.34375 C 725.800781 759.847656 726.832031 757.59375 726.855469 755.316406 C 726.855469 752.71875 725.5 750.167969 722.972656 747.960938 C 721.546875 746.71875 719.589844 746.144531 717.589844 746.144531 Z M 718.027344 778.175781 C 711.886719 778.175781 705.75 775.921875 701.242188 771.484375 C 692.550781 762.929688 692.019531 748.074219 700.089844 739.015625 C 708.230469 729.886719 723.429688 728.875 732.605469 736.832031 C 732.605469 736.832031 732.605469 736.832031 732.605469 736.855469 C 738.398438 741.890625 741.597656 748.464844 741.574219 755.363281 C 741.550781 761.871094 738.582031 768.285156 733.640625 772.519531 C 729.226562 776.289062 723.613281 778.175781 718.027344 778.175781 " fill-opacity="1" fill-rule="nonzero"/><path fill="#004aad" d="M 786.710938 789.347656 C 785.722656 789.347656 784.710938 789.441406 783.722656 789.625 C 777.351562 790.773438 771.765625 795.671875 769.785156 801.835938 C 767.808594 807.996094 769.535156 815.242188 774.042969 819.863281 C 779.492188 825.425781 789.011719 826.761719 795.703125 822.875 C 799.585938 820.644531 804.027344 815.816406 805.128906 810.089844 C 806.027344 805.492188 804.644531 800.824219 801.035156 796.226562 C 797.679688 791.925781 792.183594 789.347656 786.710938 789.347656 Z M 787.125 839.777344 C 778.410156 839.777344 769.695312 836.441406 763.53125 830.164062 C 755.164062 821.609375 752.128906 808.734375 755.761719 797.351562 C 759.417969 785.96875 769.375 777.253906 781.125 775.140625 C 792.894531 773.023438 805.265625 777.738281 812.625 787.140625 C 820.535156 797.238281 820.765625 806.734375 819.570312 812.894531 C 817.453125 823.863281 809.636719 831.820312 803.058594 835.636719 C 798.207031 838.417969 792.667969 839.777344 787.125 839.777344 " fill-opacity="1" fill-rule="nonzero"/></svg>