<svg xmlns="http://www.w3.org/2000/svg" xmlns:xlink="http://www.w3.org/1999/xlink" width="1280" zoomAndPan="magnify" viewBox="0 0 960 959.999988" height="1280" preserveAspectRatio="xMidYMid meet" version="1.0"><defs><clipPath id="115453f30f"><path d="M 71 145 L 893.371094 145 L 893.371094 788 L 71 788 Z M 71 145 " clip-rule="nonzero"/></clipPath></defs><g clip-path="url(#115453f30f)"><path fill="#ed1226" d="M 809.554688 372.410156 C 798.035156 372.410156 788.691406 381.75 788.691406 393.273438 C 788.691406 404.792969 798.035156 414.136719 809.554688 414.136719 C 821.078125 414.136719 830.417969 404.792969 830.417969 393.273438 C 830.417969 381.75 821.078125 372.410156 809.554688 372.410156 M 596.820312 164.0625 C 570.984375 164.0625 550.046875 185.003906 550.046875 210.84375 C 550.046875 236.675781 570.984375 257.613281 596.820312 257.613281 C 622.652344 257.613281 643.589844 236.675781 643.589844 210.84375 C 643.589844 185.003906 622.652344 164.0625 596.820312 164.0625 M 168.007812 521.773438 C 150.925781 521.773438 137.074219 535.628906 137.074219 552.714844 C 137.074219 569.785156 150.925781 583.640625 168.007812 583.640625 C 185.089844 583.640625 198.9375 569.785156 198.9375 552.714844 C 198.9375 535.628906 185.089844 521.773438 168.007812 521.773438 M 857.457031 589.511719 C 837.746094 589.511719 821.773438 605.488281 821.773438 625.195312 C 821.773438 644.902344 837.746094 660.878906 857.457031 660.878906 C 877.164062 660.878906 893.144531 644.902344 893.144531 625.195312 C 893.144531 605.488281 877.164062 589.511719 857.457031 589.511719 M 571.328125 440.894531 C 564.238281 440.894531 558.496094 446.636719 558.496094 453.726562 C 558.496094 460.8125 564.238281 466.554688 571.328125 466.554688 C 578.414062 466.554688 584.15625 460.8125 584.15625 453.726562 C 584.15625 446.636719 578.414062 440.894531 571.328125 440.894531 M 518.285156 456.023438 C 507.726562 456.023438 499.175781 464.582031 499.175781 475.128906 C 499.175781 485.683594 507.726562 494.242188 518.285156 494.242188 C 528.835938 494.242188 537.398438 485.683594 537.398438 475.128906 C 537.398438 464.582031 528.835938 456.023438 518.285156 456.023438 M 568.355469 487.273438 C 552.644531 487.273438 539.90625 500.011719 539.90625 515.726562 C 539.90625 531.441406 552.644531 544.183594 568.355469 544.183594 C 584.082031 544.183594 596.820312 531.441406 596.820312 515.726562 C 596.820312 500.011719 584.082031 487.273438 568.355469 487.273438 M 655.082031 534.648438 C 655.082031 429.714844 570.007812 344.640625 465.074219 344.640625 C 360.136719 344.640625 275.078125 429.714844 275.078125 534.648438 C 275.078125 639.582031 360.136719 724.660156 465.074219 724.660156 C 570.007812 724.660156 655.082031 639.582031 655.082031 534.648438 M 733.539062 324.644531 L 656.804688 378.554688 C 666.445312 390.378906 675.121094 403.277344 682.652344 417.191406 C 724.894531 495.253906 720.847656 585.605469 679.734375 657.066406 L 727.550781 683.476562 C 732.460938 678.324219 738.355469 673.933594 745.128906 670.621094 C 775.652344 655.75 812.449219 668.417969 827.324219 698.929688 C 842.203125 729.449219 829.53125 766.25 799.011719 781.121094 C 768.5 796 731.703125 783.332031 716.824219 752.820312 C 710.195312 739.21875 709.046875 724.371094 712.5 710.773438 L 662.453125 683.128906 C 642.085938 709.941406 615.828125 733.007812 584.292969 750.261719 C 465.042969 815.503906 315.453125 771.730469 250.210938 652.457031 C 248.503906 649.335938 246.886719 646.1875 245.328125 643.03125 L 193.828125 667.09375 C 195.113281 674.09375 195.195312 681.445312 193.878906 688.863281 C 187.957031 722.292969 156.058594 744.59375 122.632812 738.671875 C 89.203125 732.75 66.90625 700.851562 72.828125 667.421875 C 78.75 633.992188 110.648438 611.699219 144.074219 617.625 C 158.976562 620.257812 171.652344 628.0625 180.617188 638.863281 L 233.34375 614.226562 C 206.007812 534.871094 221.609375 448.050781 271.519531 383.539062 C 281.878906 370.148438 283.371094 351.90625 275.238281 337.015625 L 225.867188 246.777344 C 223.867188 243.117188 219.097656 241.496094 215.460938 243.5 C 212.792969 244.976562 209.757812 245.21875 207.039062 244.4375 C 204.335938 243.625 201.917969 241.796875 200.460938 239.117188 C 199 236.445312 198.757812 233.441406 199.535156 230.726562 C 200.347656 228.019531 202.175781 225.605469 204.84375 224.160156 L 345.519531 147.191406 C 350.652344 144.386719 357.273438 145.761719 360.4375 150.691406 C 362.265625 153.53125 362.617188 156.839844 361.773438 159.777344 C 360.964844 162.480469 359.136719 164.898438 356.480469 166.355469 C 354.640625 167.359375 353.382812 169.007812 352.828125 170.886719 C 352.285156 172.757812 352.445312 174.828125 353.460938 176.664062 L 358.992188 186.792969 C 360.183594 188.96875 359.390625 191.71875 357.199219 192.90625 L 337.589844 203.636719 C 335.554688 204.742188 334.15625 206.574219 333.554688 208.640625 C 332.949219 210.707031 333.140625 212.976562 334.253906 215.011719 C 336.460938 219.0625 341.5625 220.558594 345.628906 218.332031 L 365.238281 207.609375 C 367.429688 206.402344 370.164062 207.210938 371.371094 209.386719 L 376.25 218.3125 C 377.441406 220.507812 376.644531 223.242188 374.453125 224.429688 L 354.828125 235.175781 C 352.035156 236.703125 350.476562 239.578125 350.476562 242.527344 C 350.476562 243.878906 350.792969 245.269531 351.492188 246.535156 C 353.71875 250.605469 358.816406 252.101562 362.886719 249.871094 L 382.496094 239.152344 C 384.683594 237.957031 387.4375 238.753906 388.625 240.945312 L 393.503906 249.851562 C 394.699219 252.050781 393.902344 254.78125 391.710938 255.988281 L 372.101562 266.71875 C 370.066406 267.824219 368.667969 269.652344 368.066406 271.722656 C 367.460938 273.773438 367.65625 276.078125 368.765625 278.09375 C 370.976562 282.144531 376.058594 283.640625 380.140625 281.410156 L 400.101562 270.480469 C 402.117188 269.390625 404.613281 270 405.960938 271.867188 C 414.6875 283.777344 429.132812 290.441406 444.144531 289.105469 C 508.347656 283.363281 572.746094 303.210938 622.652344 344.28125 L 706.109375 285.660156 C 702.304688 275.449219 700.222656 264.402344 700.222656 252.875 C 700.222656 200.945312 742.316406 158.855469 794.238281 158.855469 C 846.15625 158.855469 888.25 200.945312 888.25 252.875 C 888.25 304.792969 846.15625 346.886719 794.238281 346.886719 C 771.097656 346.886719 749.917969 338.515625 733.539062 324.644531 M 618.632812 556.351562 C 622.769531 552.636719 629.34375 556.148438 628.445312 561.636719 C 615.574219 640.246094 547.320312 700.222656 465.074219 700.222656 C 373.628906 700.222656 299.515625 626.097656 299.515625 534.648438 L 299.515625 534.578125 C 299.519531 529.960938 301.382812 525.492188 304.695312 522.269531 C 341.628906 486.277344 404.574219 511.847656 466.53125 537.421875 C 526.175781 562.046875 584.910156 586.660156 618.632812 556.351562 " fill-opacity="1" fill-rule="evenodd"/></g><path fill="#cedfe1" d="M 577.871094 570.386719 C 545.984375 570.386719 506.457031 553.902344 466.53125 537.421875 C 427.230469 521.195312 387.527344 504.980469 354.324219 504.46875 C 387.550781 504.945312 427.277344 521.1875 466.617188 537.421875 C 506.542969 553.902344 546.074219 570.386719 577.949219 570.386719 C 578.714844 570.386719 579.472656 570.375 580.21875 570.359375 C 579.4375 570.375 578.664062 570.386719 577.871094 570.386719 " fill-opacity="1" fill-rule="nonzero"/><path fill="#cb6ce6" d="M 550.804688 589.511719 C 514.976562 589.511719 475.695312 570.84375 437.835938 552.175781 C 399.980469 533.511719 363.554688 514.839844 333.460938 514.839844 C 323.078125 514.839844 313.449219 517.0625 304.773438 522.269531 C 317.902344 509.480469 334.328125 504.460938 352.816406 504.460938 C 353.316406 504.460938 353.820312 504.460938 354.324219 504.46875 C 387.527344 504.980469 427.230469 521.195312 466.53125 537.421875 C 506.457031 553.902344 545.984375 570.386719 577.871094 570.386719 C 578.664062 570.386719 579.4375 570.375 580.21875 570.359375 C 595.023438 569.984375 608.101562 565.882812 618.710938 556.351562 C 598.835938 580.527344 575.648438 589.503906 550.804688 589.511719 " fill-opacity="1" fill-rule="nonzero"/></svg>