<svg xmlns="http://www.w3.org/2000/svg" xmlns:xlink="http://www.w3.org/1999/xlink" width="1280" zoomAndPan="magnify" viewBox="0 0 960 959.999988" height="1280" preserveAspectRatio="xMidYMid meet" version="1.0"><defs><clipPath id="9c3574ff33"><path d="M 666 352 L 766 352 L 766 453 L 666 453 Z M 666 352 " clip-rule="nonzero"/></clipPath><clipPath id="dd4d1114f2"><path d="M 504.675781 24.648438 L 882.265625 265.285156 L 455.40625 935.078125 L 77.816406 694.441406 Z M 504.675781 24.648438 " clip-rule="nonzero"/></clipPath><clipPath id="ffd9f0b43c"><path d="M 504.675781 24.648438 L 882.265625 265.285156 L 455.40625 935.078125 L 77.816406 694.441406 Z M 504.675781 24.648438 " clip-rule="nonzero"/></clipPath><clipPath id="ace19b4868"><path d="M 659 346 L 773 346 L 773 460 L 659 460 Z M 659 346 " clip-rule="nonzero"/></clipPath><clipPath id="893b7c3f24"><path d="M 504.675781 24.648438 L 882.265625 265.285156 L 455.40625 935.078125 L 77.816406 694.441406 Z M 504.675781 24.648438 " clip-rule="nonzero"/></clipPath><clipPath id="7473fc3dfb"><path d="M 504.675781 24.648438 L 882.265625 265.285156 L 455.40625 935.078125 L 77.816406 694.441406 Z M 504.675781 24.648438 " clip-rule="nonzero"/></clipPath><clipPath id="d744a984ea"><path d="M 577 126 L 778 126 L 778 265 L 577 265 Z M 577 126 " clip-rule="nonzero"/></clipPath><clipPath id="5cc4700684"><path d="M 504.675781 24.648438 L 882.265625 265.285156 L 455.40625 935.078125 L 77.816406 694.441406 Z M 504.675781 24.648438 " clip-rule="nonzero"/></clipPath><clipPath id="2b3f8386da"><path d="M 504.675781 24.648438 L 882.265625 265.285156 L 455.40625 935.078125 L 77.816406 694.441406 Z M 504.675781 24.648438 " clip-rule="nonzero"/></clipPath><clipPath id="e6146c57a1"><path d="M 570 119 L 785 119 L 785 272 L 570 272 Z M 570 119 " clip-rule="nonzero"/></clipPath><clipPath id="26b12d7621"><path d="M 504.675781 24.648438 L 882.265625 265.285156 L 455.40625 935.078125 L 77.816406 694.441406 Z M 504.675781 24.648438 " clip-rule="nonzero"/></clipPath><clipPath id="121bfa6180"><path d="M 504.675781 24.648438 L 882.265625 265.285156 L 455.40625 935.078125 L 77.816406 694.441406 Z M 504.675781 24.648438 " clip-rule="nonzero"/></clipPath><clipPath id="aefe16a242"><path d="M 242 667 L 442 667 L 442 806 L 242 806 Z M 242 667 " clip-rule="nonzero"/></clipPath><clipPath id="90a74824f2"><path d="M 504.675781 24.648438 L 882.265625 265.285156 L 455.40625 935.078125 L 77.816406 694.441406 Z M 504.675781 24.648438 " clip-rule="nonzero"/></clipPath><clipPath id="6a5cbdfaa6"><path d="M 504.675781 24.648438 L 882.265625 265.285156 L 455.40625 935.078125 L 77.816406 694.441406 Z M 504.675781 24.648438 " clip-rule="nonzero"/></clipPath><clipPath id="ecc3d8bd4e"><path d="M 235 660 L 449 660 L 449 812 L 235 812 Z M 235 660 " clip-rule="nonzero"/></clipPath><clipPath id="25d1f9f1fb"><path d="M 504.675781 24.648438 L 882.265625 265.285156 L 455.40625 935.078125 L 77.816406 694.441406 Z M 504.675781 24.648438 " clip-rule="nonzero"/></clipPath><clipPath id="0ec9f89b61"><path d="M 504.675781 24.648438 L 882.265625 265.285156 L 455.40625 935.078125 L 77.816406 694.441406 Z M 504.675781 24.648438 " clip-rule="nonzero"/></clipPath><clipPath id="47db95fb7b"><path d="M 210 715 L 411 715 L 411 854 L 210 854 Z M 210 715 " clip-rule="nonzero"/></clipPath><clipPath id="32951bfea0"><path d="M 504.675781 24.648438 L 882.265625 265.285156 L 455.40625 935.078125 L 77.816406 694.441406 Z M 504.675781 24.648438 " clip-rule="nonzero"/></clipPath><clipPath id="a186ba0ec2"><path d="M 504.675781 24.648438 L 882.265625 265.285156 L 455.40625 935.078125 L 77.816406 694.441406 Z M 504.675781 24.648438 " clip-rule="nonzero"/></clipPath><clipPath id="60a41c5dc7"><path d="M 204 708 L 418 708 L 418 861 L 204 861 Z M 204 708 " clip-rule="nonzero"/></clipPath><clipPath id="c4d30effbe"><path d="M 504.675781 24.648438 L 882.265625 265.285156 L 455.40625 935.078125 L 77.816406 694.441406 Z M 504.675781 24.648438 " clip-rule="nonzero"/></clipPath><clipPath id="89fa3d5c8c"><path d="M 504.675781 24.648438 L 882.265625 265.285156 L 455.40625 935.078125 L 77.816406 694.441406 Z M 504.675781 24.648438 " clip-rule="nonzero"/></clipPath><clipPath id="cb360431b4"><path d="M 455 352 L 633 352 L 633 475 L 455 475 Z M 455 352 " clip-rule="nonzero"/></clipPath><clipPath id="06250aeb8b"><path d="M 504.675781 24.648438 L 882.265625 265.285156 L 455.40625 935.078125 L 77.816406 694.441406 Z M 504.675781 24.648438 " clip-rule="nonzero"/></clipPath><clipPath id="209cd239ee"><path d="M 504.675781 24.648438 L 882.265625 265.285156 L 455.40625 935.078125 L 77.816406 694.441406 Z M 504.675781 24.648438 " clip-rule="nonzero"/></clipPath><clipPath id="867cfc539b"><path d="M 448 345 L 640 345 L 640 482 L 448 482 Z M 448 345 " clip-rule="nonzero"/></clipPath><clipPath id="81a8ccd222"><path d="M 504.675781 24.648438 L 882.265625 265.285156 L 455.40625 935.078125 L 77.816406 694.441406 Z M 504.675781 24.648438 " clip-rule="nonzero"/></clipPath><clipPath id="84f5f108f5"><path d="M 504.675781 24.648438 L 882.265625 265.285156 L 455.40625 935.078125 L 77.816406 694.441406 Z M 504.675781 24.648438 " clip-rule="nonzero"/></clipPath><clipPath id="09136f68f2"><path d="M 379 442 L 580 442 L 580 582 L 379 582 Z M 379 442 " clip-rule="nonzero"/></clipPath><clipPath id="f0d3fa4112"><path d="M 504.675781 24.648438 L 882.265625 265.285156 L 455.40625 935.078125 L 77.816406 694.441406 Z M 504.675781 24.648438 " clip-rule="nonzero"/></clipPath><clipPath id="af3dc437fb"><path d="M 504.675781 24.648438 L 882.265625 265.285156 L 455.40625 935.078125 L 77.816406 694.441406 Z M 504.675781 24.648438 " clip-rule="nonzero"/></clipPath><clipPath id="6267a582ba"><path d="M 372 436 L 586 436 L 586 588 L 372 588 Z M 372 436 " clip-rule="nonzero"/></clipPath><clipPath id="03113c8b4a"><path d="M 504.675781 24.648438 L 882.265625 265.285156 L 455.40625 935.078125 L 77.816406 694.441406 Z M 504.675781 24.648438 " clip-rule="nonzero"/></clipPath><clipPath id="6d10ddbbee"><path d="M 504.675781 24.648438 L 882.265625 265.285156 L 455.40625 935.078125 L 77.816406 694.441406 Z M 504.675781 24.648438 " clip-rule="nonzero"/></clipPath><clipPath id="6e6a0e1949"><path d="M 177 94 L 747 94 L 747 760 L 177 760 Z M 177 94 " clip-rule="nonzero"/></clipPath><clipPath id="f55d52e49d"><path d="M 504.675781 24.648438 L 882.265625 265.285156 L 455.40625 935.078125 L 77.816406 694.441406 Z M 504.675781 24.648438 " clip-rule="nonzero"/></clipPath><clipPath id="060ac73942"><path d="M 504.675781 24.648438 L 882.265625 265.285156 L 455.40625 935.078125 L 77.816406 694.441406 Z M 504.675781 24.648438 " clip-rule="nonzero"/></clipPath><clipPath id="3651bef2fa"><path d="M 170 87 L 754 87 L 754 766 L 170 766 Z M 170 87 " clip-rule="nonzero"/></clipPath><clipPath id="2b274e93d1"><path d="M 504.675781 24.648438 L 882.265625 265.285156 L 455.40625 935.078125 L 77.816406 694.441406 Z M 504.675781 24.648438 " clip-rule="nonzero"/></clipPath><clipPath id="5b80f055e8"><path d="M 504.675781 24.648438 L 882.265625 265.285156 L 455.40625 935.078125 L 77.816406 694.441406 Z M 504.675781 24.648438 " clip-rule="nonzero"/></clipPath><clipPath id="4f69509c6b"><path d="M 347 218 L 811 218 L 811 884 L 347 884 Z M 347 218 " clip-rule="nonzero"/></clipPath><clipPath id="dc324eacad"><path d="M 504.675781 24.648438 L 882.265625 265.285156 L 455.40625 935.078125 L 77.816406 694.441406 Z M 504.675781 24.648438 " clip-rule="nonzero"/></clipPath><clipPath id="3fa31a8379"><path d="M 504.675781 24.648438 L 882.265625 265.285156 L 455.40625 935.078125 L 77.816406 694.441406 Z M 504.675781 24.648438 " clip-rule="nonzero"/></clipPath><clipPath id="41b99444b4"><path d="M 340 211 L 818 211 L 818 891 L 340 891 Z M 340 211 " clip-rule="nonzero"/></clipPath><clipPath id="53f0b3abbb"><path d="M 504.675781 24.648438 L 882.265625 265.285156 L 455.40625 935.078125 L 77.816406 694.441406 Z M 504.675781 24.648438 " clip-rule="nonzero"/></clipPath><clipPath id="6b9d8606fa"><path d="M 504.675781 24.648438 L 882.265625 265.285156 L 455.40625 935.078125 L 77.816406 694.441406 Z M 504.675781 24.648438 " clip-rule="nonzero"/></clipPath><clipPath id="b0179aef60"><path d="M 205 490 L 306 490 L 306 590 L 205 590 Z M 205 490 " clip-rule="nonzero"/></clipPath><clipPath id="6d76049a6f"><path d="M 504.675781 24.648438 L 882.265625 265.285156 L 455.40625 935.078125 L 77.816406 694.441406 Z M 504.675781 24.648438 " clip-rule="nonzero"/></clipPath><clipPath id="3821f4e30c"><path d="M 504.675781 24.648438 L 882.265625 265.285156 L 455.40625 935.078125 L 77.816406 694.441406 Z M 504.675781 24.648438 " clip-rule="nonzero"/></clipPath><clipPath id="893471a8c3"><path d="M 198 483 L 312 483 L 312 597 L 198 597 Z M 198 483 " clip-rule="nonzero"/></clipPath><clipPath id="936498daf4"><path d="M 504.675781 24.648438 L 882.265625 265.285156 L 455.40625 935.078125 L 77.816406 694.441406 Z M 504.675781 24.648438 " clip-rule="nonzero"/></clipPath><clipPath id="216931b395"><path d="M 504.675781 24.648438 L 882.265625 265.285156 L 455.40625 935.078125 L 77.816406 694.441406 Z M 504.675781 24.648438 " clip-rule="nonzero"/></clipPath></defs><g clip-path="url(#9c3574ff33)"><g clip-path="url(#dd4d1114f2)"><g clip-path="url(#ffd9f0b43c)"><path fill="#ffffff" d="M 765.421875 434.320312 C 719.949219 410.363281 715.199219 411.414062 684.066406 452.316406 C 708.027344 406.84375 706.972656 402.09375 666.050781 370.992188 C 711.542969 394.921875 716.296875 393.867188 747.414062 352.917969 C 723.46875 398.4375 724.519531 403.191406 765.421875 434.320312 " fill-opacity="1" fill-rule="nonzero"/></g></g></g><g clip-path="url(#ace19b4868)"><g clip-path="url(#893b7c3f24)"><g clip-path="url(#7473fc3dfb)"><path stroke-linecap="round" transform="matrix(0.290304, 0.185011, 0.185011, -0.290304, -530.520326, 703.849206)" fill="none" stroke-linejoin="round" d="M 2753.895134 2683.498722 C 2605.098413 2671.194433 2595.102766 2661.204601 2582.693268 2512.400966 C 2570.398548 2661.203787 2560.399147 2671.193335 2411.596454 2683.495787 C 2560.398333 2695.897553 2570.39745 2705.903052 2582.69549 2854.797123 C 2595.101668 2705.903867 2605.097598 2695.898651 2753.895134 2683.498722 Z M 2753.895134 2683.498722 " stroke="#000000" stroke-width="40" stroke-opacity="1" stroke-miterlimit="10"/></g></g></g><g clip-path="url(#d744a984ea)"><g clip-path="url(#5cc4700684)"><g clip-path="url(#2b3f8386da)"><path fill="#2dadf6" d="M 577.371094 144.332031 L 765.925781 264.496094 L 777.320312 246.617188 L 588.769531 126.449219 L 577.371094 144.332031 " fill-opacity="1" fill-rule="nonzero"/></g></g></g><g clip-path="url(#e6146c57a1)"><g clip-path="url(#26b12d7621)"><g clip-path="url(#121bfa6180)"><path stroke-linecap="round" transform="matrix(0.290304, 0.185011, 0.185011, -0.290304, -530.520326, 703.849206)" fill="none" stroke-linejoin="round" d="M 1840.493956 3100.300717 L 2489.999247 3100.305805 L 2489.993839 3161.902732 L 1840.498117 3161.903743 Z M 1840.493956 3100.300717 " stroke="#000000" stroke-width="40" stroke-opacity="1" stroke-miterlimit="10"/></g></g></g><g clip-path="url(#aefe16a242)"><g clip-path="url(#90a74824f2)"><g clip-path="url(#6a5cbdfaa6)"><path fill="#2dadf6" d="M 242.011719 684.902344 L 430.566406 805.066406 L 441.960938 787.183594 L 253.410156 667.019531 L 242.011719 684.902344 " fill-opacity="1" fill-rule="nonzero"/></g></g></g><g clip-path="url(#ecc3d8bd4e)"><g clip-path="url(#25d1f9f1fb)"><g clip-path="url(#0ec9f89b61)"><path stroke-linecap="round" transform="matrix(0.290304, 0.185011, 0.185011, -0.290304, -530.520326, 703.849206)" fill="none" stroke-linejoin="round" d="M 1862.900893 1252.494755 L 2512.406184 1252.499843 L 2512.400776 1314.096771 L 1862.905054 1314.097781 Z M 1862.900893 1252.494755 " stroke="#000000" stroke-width="40" stroke-opacity="1" stroke-miterlimit="10"/></g></g></g><g clip-path="url(#47db95fb7b)"><g clip-path="url(#32951bfea0)"><g clip-path="url(#a186ba0ec2)"><path fill="#5ce1e6" d="M 210.929688 733.671875 L 399.484375 853.835938 L 410.878906 835.953125 L 222.328125 715.789062 L 210.929688 733.671875 " fill-opacity="1" fill-rule="nonzero"/></g></g></g><g clip-path="url(#60a41c5dc7)"><g clip-path="url(#c4d30effbe)"><g clip-path="url(#89fa3d5c8c)"><path stroke-linecap="round" transform="matrix(0.290304, 0.185011, 0.185011, -0.290304, -530.520326, 703.849206)" fill="none" stroke-linejoin="round" d="M 1862.898082 1084.498059 L 2512.403372 1084.503147 L 2512.397964 1146.100075 L 1862.902243 1146.101085 Z M 1862.898082 1084.498059 " stroke="#000000" stroke-width="40" stroke-opacity="1" stroke-miterlimit="10"/></g></g></g><g clip-path="url(#cb360431b4)"><g clip-path="url(#06250aeb8b)"><g clip-path="url(#209cd239ee)"><path fill="#2dadf6" d="M 461.761719 360.074219 C 467.347656 357.714844 473.1875 355.273438 478.742188 352.324219 L 632.632812 450.398438 C 631.414062 458.398438 631.175781 466.453125 631.136719 474.589844 L 455.761719 362.824219 C 457.71875 361.867188 459.734375 360.949219 461.761719 360.074219 " fill-opacity="1" fill-rule="nonzero"/></g></g></g><g clip-path="url(#867cfc539b)"><g clip-path="url(#81a8ccd222)"><g clip-path="url(#84f5f108f5)"><path stroke-linecap="round" transform="matrix(0.290304, 0.185011, 0.185011, -0.290304, -530.520326, 703.849206)" fill="none" stroke-linejoin="round" d="M 1894.101959 2391.304686 C 1904.102429 2405.805265 1914.596829 2420.903196 1923.599879 2436.799934 L 2453.701448 2436.801086 C 2463.205497 2415.300674 2475.19679 2395.197006 2487.804179 2375.203406 L 1883.697001 2375.200753 C 1886.997042 2380.600529 1890.501605 2385.996091 1894.101959 2391.304686 Z M 1894.101959 2391.304686 " stroke="#000000" stroke-width="40" stroke-opacity="1" stroke-miterlimit="10"/></g></g></g><g clip-path="url(#09136f68f2)"><g clip-path="url(#f0d3fa4112)"><g clip-path="url(#af3dc437fb)"><path fill="#2dadf6" d="M 379.09375 460.839844 L 567.644531 581.003906 L 579.042969 563.121094 L 390.488281 442.957031 L 379.09375 460.839844 " fill-opacity="1" fill-rule="nonzero"/></g></g></g><g clip-path="url(#6267a582ba)"><g clip-path="url(#03113c8b4a)"><g clip-path="url(#6d10ddbbee)"><path stroke-linecap="round" transform="matrix(0.290304, 0.185011, 0.185011, -0.290304, -530.520326, 703.849206)" fill="none" stroke-linejoin="round" d="M 1848.898902 2015.405927 L 2498.400722 2015.395347 L 2498.404883 2076.998373 L 1848.899592 2076.993286 Z M 1848.898902 2015.405927 " stroke="#000000" stroke-width="40" stroke-opacity="1" stroke-miterlimit="10"/></g></g></g><g clip-path="url(#6e6a0e1949)"><g clip-path="url(#f55d52e49d)"><g clip-path="url(#060ac73942)"><path fill="#5ce1e6" d="M 612.433594 326.25 C 600.035156 289.851562 588.058594 254.582031 586.644531 218.820312 L 734.84375 313.269531 L 746.238281 295.386719 L 587.445312 194.183594 C 589.902344 171.75 597.371094 148.953125 612.335938 125.46875 C 618.351562 116.035156 615.570312 103.546875 606.136719 97.535156 C 596.730469 91.539062 584.210938 94.277344 578.195312 103.710938 C 558.863281 134.046875 549.730469 163.496094 546.976562 192.03125 L 546.289062 193.105469 L 546.84375 193.457031 C 542.214844 245.492188 558.785156 294.300781 574.132812 339.269531 C 592.453125 393.15625 609.96875 444.648438 593.457031 498.867188 L 429.871094 394.613281 L 418.472656 412.496094 L 585.6875 519.0625 C 582.488281 526.003906 578.699219 532.976562 574.203125 540.03125 C 557.367188 566.449219 537.347656 583.898438 515.121094 595.777344 L 363.203125 498.964844 C 362.800781 507.15625 362.578125 515.382812 362.375 523.582031 L 491.878906 606.113281 C 461.0625 617.253906 427.105469 620.960938 392.210938 624.726562 C 318.679688 632.6875 235.335938 641.703125 180.386719 727.921875 C 174.390625 737.328125 177.191406 749.847656 186.597656 755.839844 C 196.03125 761.855469 208.53125 759.085938 214.527344 749.679688 C 259.039062 679.832031 325.835938 672.640625 396.566406 664.976562 C 470.046875 657.023438 553.394531 648.011719 608.339844 561.789062 C 663.289062 475.570312 636.261719 396.214844 612.433594 326.25 " fill-opacity="1" fill-rule="nonzero"/></g></g></g><g clip-path="url(#3651bef2fa)"><g clip-path="url(#2b274e93d1)"><g clip-path="url(#5b80f055e8)"><path fill="#000000" d="M 244.980469 655.632812 C 243.953125 656.226562 242.933594 656.832031 241.917969 657.445312 C 241.53125 657.675781 241.171875 657.945312 240.835938 658.25 C 240.503906 658.554688 240.199219 658.890625 239.933594 659.253906 C 239.664062 659.617188 239.433594 660.003906 239.242188 660.414062 C 239.050781 660.820312 238.898438 661.246094 238.789062 661.683594 C 238.683594 662.125 238.617188 662.570312 238.597656 663.019531 C 238.574219 663.472656 238.597656 663.921875 238.667969 664.367188 C 238.734375 664.816406 238.84375 665.25 238.996094 665.675781 C 239.152344 666.101562 239.34375 666.507812 239.578125 666.894531 C 239.8125 667.28125 240.082031 667.644531 240.386719 667.976562 C 240.691406 668.3125 241.023438 668.613281 241.386719 668.878906 C 241.75 669.148438 242.136719 669.378906 242.546875 669.570312 C 242.957031 669.761719 243.378906 669.914062 243.820312 670.023438 C 244.257812 670.132812 244.703125 670.195312 245.15625 670.214844 C 245.605469 670.238281 246.054688 670.214844 246.503906 670.148438 C 246.949219 670.078125 247.386719 669.96875 247.8125 669.816406 C 248.238281 669.660156 248.640625 669.46875 249.03125 669.234375 C 249.972656 668.664062 250.925781 668.105469 251.882812 667.546875 C 252.273438 667.320312 252.640625 667.058594 252.976562 666.761719 C 253.316406 666.460938 253.625 666.132812 253.898438 665.773438 C 254.175781 665.414062 254.410156 665.03125 254.609375 664.625 C 254.808594 664.222656 254.96875 663.800781 255.082031 663.363281 C 255.199219 662.925781 255.273438 662.480469 255.300781 662.03125 C 255.332031 661.578125 255.316406 661.128906 255.253906 660.683594 C 255.195312 660.234375 255.09375 659.796875 254.945312 659.367188 C 254.800781 658.941406 254.613281 658.53125 254.386719 658.140625 C 254.160156 657.75 253.898438 657.382812 253.601562 657.042969 C 253.300781 656.703125 252.972656 656.398438 252.613281 656.121094 C 252.253906 655.847656 251.871094 655.609375 251.464844 655.410156 C 251.0625 655.210938 250.640625 655.054688 250.203125 654.9375 C 249.765625 654.820312 249.320312 654.75 248.871094 654.71875 C 248.417969 654.691406 247.96875 654.707031 247.523438 654.765625 C 247.074219 654.824219 246.636719 654.929688 246.207031 655.074219 C 245.78125 655.222656 245.371094 655.40625 244.980469 655.632812 Z M 227.054688 667.347656 C 206.726562 682.269531 189.234375 701.226562 174.582031 724.222656 C 170.5625 730.527344 169.363281 737.339844 170.992188 744.660156 C 172.617188 751.972656 176.582031 757.640625 182.890625 761.660156 C 189.207031 765.6875 196.023438 766.890625 203.335938 765.269531 C 210.648438 763.652344 216.3125 759.6875 220.332031 753.378906 C 230.519531 737.398438 242.410156 724.105469 256.007812 713.507812 C 268.171875 704.023438 282.183594 696.351562 298.035156 690.492188 C 311.460938 685.527344 327.308594 681.507812 345.578125 678.429688 C 356.707031 676.554688 373.898438 674.355469 397.15625 671.835938 L 397.304688 671.820312 L 397.316406 671.820312 C 422.371094 669.109375 441.304688 666.636719 454.117188 664.402344 C 475.847656 660.617188 495.09375 655.539062 511.855469 649.167969 C 532.320312 641.386719 550.585938 631.191406 566.65625 618.582031 C 584.863281 604.296875 600.695312 586.597656 614.148438 565.492188 C 627.601562 544.382812 636.957031 522.558594 642.21875 500.019531 C 646.859375 480.128906 648.386719 459.265625 646.796875 437.429688 C 645.492188 419.546875 641.96875 399.957031 636.222656 378.660156 C 632.835938 366.101562 627.078125 347.894531 618.957031 324.039062 L 618.953125 324.03125 C 610.832031 300.191406 605.203125 282.359375 602.074219 270.535156 C 596.984375 251.296875 594.132812 233.96875 593.523438 218.546875 L 586.644531 218.820312 L 582.941406 224.628906 L 731.144531 319.074219 C 731.523438 319.316406 731.925781 319.519531 732.347656 319.683594 C 732.769531 319.847656 733.199219 319.96875 733.644531 320.050781 C 734.089844 320.128906 734.539062 320.164062 734.992188 320.152344 C 735.445312 320.140625 735.890625 320.089844 736.332031 319.992188 C 736.773438 319.894531 737.199219 319.753906 737.613281 319.570312 C 738.027344 319.390625 738.421875 319.167969 738.789062 318.910156 C 739.160156 318.648438 739.503906 318.355469 739.816406 318.03125 C 740.128906 317.703125 740.40625 317.351562 740.648438 316.96875 L 752.046875 299.085938 C 752.289062 298.707031 752.492188 298.304688 752.65625 297.882812 C 752.820312 297.460938 752.941406 297.027344 753.019531 296.582031 C 753.097656 296.136719 753.132812 295.6875 753.121094 295.238281 C 753.113281 294.785156 753.058594 294.339844 752.960938 293.898438 C 752.863281 293.457031 752.722656 293.027344 752.542969 292.613281 C 752.359375 292.199219 752.140625 291.808594 751.878906 291.4375 C 751.621094 291.066406 751.328125 290.726562 751 290.414062 C 750.675781 290.101562 750.320312 289.824219 749.941406 289.582031 L 591.144531 188.378906 L 587.445312 194.183594 L 594.289062 194.9375 C 596.789062 172.121094 604.742188 150.199219 618.144531 129.167969 C 622.171875 122.847656 623.375 116.03125 621.757812 108.722656 C 620.136719 101.410156 616.167969 95.742188 609.847656 91.714844 C 603.539062 87.695312 596.726562 86.492188 589.414062 88.105469 C 582.09375 89.722656 576.417969 93.691406 572.390625 100.011719 C 553.96875 128.921875 543.210938 159.371094 540.121094 191.367188 L 546.976562 192.03125 L 541.167969 188.328125 L 540.484375 189.402344 C 540.242188 189.785156 540.039062 190.1875 539.875 190.609375 C 539.710938 191.03125 539.589844 191.460938 539.511719 191.90625 C 539.433594 192.351562 539.398438 192.800781 539.40625 193.253906 C 539.417969 193.707031 539.472656 194.152344 539.570312 194.59375 C 539.667969 195.035156 539.804688 195.460938 539.988281 195.875 C 540.171875 196.289062 540.390625 196.683594 540.648438 197.050781 C 540.910156 197.421875 541.203125 197.765625 541.527344 198.078125 C 541.855469 198.390625 542.210938 198.667969 542.589844 198.910156 L 543.140625 199.261719 L 546.84375 193.457031 L 539.984375 192.847656 C 537.871094 216.625 539.96875 242.519531 546.28125 270.527344 C 548.753906 281.511719 552.050781 293.628906 556.167969 306.878906 C 558.648438 314.859375 562.464844 326.398438 567.617188 341.496094 L 567.628906 341.527344 C 573.671875 359.300781 578 372.5625 580.613281 381.316406 C 584.921875 395.734375 588.074219 408.679688 590.078125 420.148438 C 592.445312 433.722656 593.449219 446.484375 593.097656 458.441406 C 592.703125 471.71875 590.625 484.523438 586.871094 496.863281 L 593.457031 498.867188 L 597.15625 493.0625 L 433.570312 388.808594 C 433.1875 388.566406 432.785156 388.363281 432.367188 388.199219 C 431.945312 388.035156 431.511719 387.914062 431.066406 387.835938 C 430.621094 387.757812 430.171875 387.722656 429.71875 387.730469 C 429.269531 387.742188 428.820312 387.796875 428.378906 387.894531 C 427.9375 387.992188 427.511719 388.128906 427.097656 388.3125 C 426.683594 388.496094 426.292969 388.714844 425.921875 388.972656 C 425.550781 389.234375 425.210938 389.527344 424.898438 389.851562 C 424.582031 390.179688 424.304688 390.535156 424.0625 390.914062 L 412.667969 408.796875 C 412.421875 409.179688 412.21875 409.578125 412.054688 410 C 411.890625 410.421875 411.769531 410.855469 411.691406 411.300781 C 411.613281 411.746094 411.578125 412.195312 411.589844 412.648438 C 411.597656 413.097656 411.652344 413.546875 411.75 413.988281 C 411.847656 414.429688 411.988281 414.855469 412.171875 415.269531 C 412.351562 415.683594 412.574219 416.074219 412.832031 416.445312 C 413.089844 416.816406 413.382812 417.15625 413.710938 417.46875 C 414.039062 417.78125 414.390625 418.0625 414.773438 418.304688 L 581.988281 524.871094 L 585.6875 519.0625 L 579.433594 516.183594 C 576.292969 522.996094 572.613281 529.710938 568.394531 536.332031 C 553.46875 559.753906 534.628906 577.546875 511.875 589.707031 L 515.121094 595.78125 L 518.820312 589.972656 L 366.90625 493.15625 C 366.523438 492.914062 366.121094 492.710938 365.703125 492.546875 C 365.28125 492.382812 364.847656 492.261719 364.402344 492.183594 C 363.957031 492.105469 363.507812 492.070312 363.054688 492.078125 C 362.605469 492.089844 362.15625 492.144531 361.714844 492.242188 C 361.273438 492.339844 360.847656 492.480469 360.433594 492.660156 C 360.019531 492.84375 359.628906 493.0625 359.257812 493.324219 C 358.886719 493.582031 358.542969 493.875 358.230469 494.203125 C 357.917969 494.527344 357.640625 494.882812 357.398438 495.261719 C 356.746094 496.289062 356.386719 497.410156 356.328125 498.625 C 356.03125 504.625 355.753906 512.886719 355.492188 523.410156 C 355.476562 524.003906 355.539062 524.585938 355.675781 525.164062 C 355.8125 525.742188 356.019531 526.292969 356.296875 526.816406 C 356.578125 527.339844 356.917969 527.820312 357.320312 528.253906 C 357.722656 528.691406 358.175781 529.066406 358.675781 529.386719 L 488.179688 611.917969 L 491.878906 606.113281 L 489.539062 599.640625 C 476.207031 604.457031 460.507812 608.375 442.441406 611.394531 C 431.316406 613.253906 414.328125 615.414062 391.472656 617.882812 L 391.441406 617.886719 C 377.617188 619.382812 367.175781 620.585938 360.117188 621.496094 C 348.238281 623.027344 337.535156 624.699219 328.003906 626.511719 C 303.71875 631.128906 282.371094 637.59375 263.953125 645.90625 C 263.539062 646.089844 263.152344 646.316406 262.78125 646.578125 C 262.414062 646.839844 262.078125 647.136719 261.765625 647.46875 C 261.457031 647.796875 261.183594 648.152344 260.945312 648.535156 C 260.703125 648.921875 260.503906 649.324219 260.34375 649.746094 C 260.183594 650.167969 260.066406 650.601562 259.992188 651.050781 C 259.917969 651.496094 259.890625 651.945312 259.902344 652.394531 C 259.917969 652.847656 259.976562 653.292969 260.078125 653.734375 C 260.179688 654.175781 260.324219 654.601562 260.511719 655.011719 C 260.695312 655.425781 260.921875 655.816406 261.183594 656.183594 C 261.445312 656.550781 261.742188 656.890625 262.070312 657.199219 C 262.402344 657.507812 262.757812 657.78125 263.140625 658.023438 C 263.523438 658.261719 263.929688 658.460938 264.351562 658.621094 C 264.773438 658.78125 265.207031 658.898438 265.652344 658.972656 C 266.101562 659.046875 266.546875 659.078125 267 659.0625 C 267.453125 659.046875 267.898438 658.988281 268.339844 658.886719 C 268.777344 658.785156 269.207031 658.640625 269.617188 658.457031 C 287.042969 650.59375 307.363281 644.453125 330.578125 640.039062 C 339.839844 638.277344 350.273438 636.648438 361.878906 635.152344 C 368.84375 634.253906 379.195312 633.0625 392.921875 631.574219 L 392.949219 631.570312 C 416.066406 629.078125 433.320312 626.878906 444.707031 624.976562 C 463.597656 621.820312 480.101562 617.691406 494.21875 612.589844 C 495.691406 612.058594 496.84375 611.132812 497.6875 609.8125 C 497.929688 609.433594 498.132812 609.03125 498.296875 608.609375 C 498.460938 608.1875 498.582031 607.753906 498.660156 607.308594 C 498.738281 606.863281 498.773438 606.417969 498.761719 605.964844 C 498.753906 605.511719 498.699219 605.066406 498.601562 604.625 C 498.503906 604.183594 498.363281 603.753906 498.183594 603.339844 C 498 602.929688 497.78125 602.535156 497.519531 602.164062 C 497.261719 601.796875 496.96875 601.453125 496.640625 601.140625 C 496.316406 600.828125 495.960938 600.550781 495.578125 600.308594 L 366.074219 517.773438 L 362.375 523.582031 L 369.257812 523.75 C 369.515625 513.34375 369.789062 505.191406 370.082031 499.300781 L 363.203125 498.964844 L 359.503906 504.769531 L 511.421875 601.585938 C 511.9375 601.914062 512.484375 602.167969 513.066406 602.351562 C 513.652344 602.53125 514.246094 602.636719 514.855469 602.660156 C 515.46875 602.683594 516.070312 602.625 516.664062 602.488281 C 517.261719 602.351562 517.828125 602.140625 518.367188 601.851562 C 543.242188 588.554688 563.789062 569.183594 580.007812 543.734375 C 584.5625 536.585938 588.539062 529.324219 591.941406 521.945312 C 592.113281 521.570312 592.25 521.183594 592.355469 520.785156 C 592.457031 520.382812 592.523438 519.976562 592.554688 519.566406 C 592.585938 519.15625 592.578125 518.742188 592.535156 518.332031 C 592.488281 517.921875 592.410156 517.519531 592.292969 517.125 C 592.175781 516.726562 592.027344 516.34375 591.839844 515.976562 C 591.65625 515.605469 591.4375 515.257812 591.191406 514.925781 C 590.941406 514.597656 590.667969 514.292969 590.363281 514.011719 C 590.0625 513.730469 589.734375 513.480469 589.386719 513.257812 L 422.171875 406.691406 L 418.472656 412.496094 L 424.277344 416.199219 L 435.675781 398.316406 L 429.871094 394.613281 L 426.167969 400.421875 L 589.753906 504.675781 C 590.285156 505.011719 590.847656 505.273438 591.449219 505.453125 C 591.882812 505.585938 592.324219 505.675781 592.773438 505.71875 C 593.222656 505.765625 593.671875 505.765625 594.121094 505.722656 C 594.574219 505.675781 595.015625 505.589844 595.445312 505.460938 C 595.878906 505.328125 596.296875 505.15625 596.695312 504.945312 C 597.09375 504.730469 597.46875 504.480469 597.816406 504.195312 C 598.167969 503.910156 598.484375 503.589844 598.773438 503.242188 C 599.058594 502.894531 599.308594 502.519531 599.523438 502.121094 C 599.738281 501.722656 599.910156 501.304688 600.042969 500.875 C 607.710938 475.691406 608.910156 447.992188 603.640625 417.78125 C 601.546875 405.777344 598.269531 392.308594 593.808594 377.375 C 591.144531 368.460938 586.761719 355.035156 580.664062 337.097656 L 580.648438 337.046875 C 575.539062 322.070312 571.761719 310.652344 569.316406 302.792969 C 565.308594 289.890625 562.109375 278.128906 559.714844 267.5 C 553.714844 240.890625 551.710938 216.414062 553.699219 194.066406 C 553.757812 193.4375 553.726562 192.8125 553.609375 192.195312 C 553.496094 191.574219 553.296875 190.980469 553.019531 190.414062 C 552.742188 189.851562 552.390625 189.332031 551.972656 188.863281 C 551.550781 188.394531 551.074219 187.988281 550.542969 187.648438 L 549.992188 187.296875 L 546.289062 193.105469 L 552.097656 196.804688 L 552.78125 195.730469 C 553.375 194.800781 553.722656 193.789062 553.828125 192.691406 C 556.707031 162.890625 566.761719 134.460938 584.003906 107.410156 C 585.984375 104.300781 588.777344 102.347656 592.382812 101.550781 C 595.988281 100.757812 599.339844 101.347656 602.445312 103.324219 C 605.558594 105.3125 607.515625 108.101562 608.3125 111.699219 C 609.109375 115.296875 608.515625 118.652344 606.53125 121.769531 C 591.976562 144.601562 583.335938 168.492188 580.601562 193.433594 C 580.53125 194.074219 580.546875 194.710938 580.65625 195.34375 C 580.765625 195.976562 580.957031 196.582031 581.234375 197.160156 C 581.511719 197.742188 581.863281 198.269531 582.292969 198.753906 C 582.71875 199.234375 583.203125 199.644531 583.742188 199.992188 L 742.539062 301.191406 L 746.238281 295.386719 L 740.433594 291.6875 L 729.035156 309.570312 L 734.84375 313.269531 L 738.542969 307.464844 L 590.34375 213.015625 C 589.132812 212.242188 587.808594 211.882812 586.371094 211.941406 C 585.917969 211.960938 585.472656 212.019531 585.035156 212.125 C 584.59375 212.230469 584.167969 212.378906 583.757812 212.570312 C 583.347656 212.757812 582.960938 212.984375 582.59375 213.253906 C 582.230469 213.519531 581.894531 213.816406 581.585938 214.148438 C 581.277344 214.480469 581.007812 214.839844 580.773438 215.226562 C 580.535156 215.609375 580.339844 216.015625 580.183594 216.441406 C 580.027344 216.863281 579.914062 217.300781 579.84375 217.746094 C 579.773438 218.191406 579.746094 218.640625 579.761719 219.09375 C 580.414062 235.523438 583.414062 253.84375 588.765625 274.058594 C 591.976562 286.191406 597.691406 304.328125 605.917969 328.46875 L 605.921875 328.480469 C 613.949219 352.050781 619.617188 369.972656 622.929688 382.246094 C 628.445312 402.695312 631.824219 421.421875 633.0625 438.429688 C 634.550781 458.871094 633.132812 478.359375 628.808594 496.890625 C 623.902344 517.902344 615.144531 538.300781 602.535156 558.089844 C 589.925781 577.878906 575.132812 594.429688 558.15625 607.75 C 543.183594 619.496094 526.121094 629.011719 506.960938 636.296875 C 491.023438 642.355469 472.621094 647.203125 451.757812 650.839844 C 439.234375 653.019531 420.59375 655.449219 395.835938 658.128906 L 395.824219 658.128906 L 395.671875 658.144531 C 372.144531 660.695312 354.683594 662.929688 343.289062 664.851562 C 324.171875 668.070312 307.492188 672.3125 293.261719 677.574219 C 276.070312 683.929688 260.832031 692.289062 247.542969 702.648438 C 232.695312 714.21875 219.757812 728.664062 208.71875 745.980469 C 206.742188 749.082031 203.957031 751.03125 200.359375 751.824219 C 196.757812 752.625 193.402344 752.03125 190.289062 750.046875 C 187.1875 748.070312 185.234375 745.277344 184.433594 741.671875 C 183.632812 738.070312 184.21875 734.71875 186.191406 731.621094 C 199.921875 710.078125 216.261719 692.351562 235.203125 678.449219 C 235.566406 678.179688 235.902344 677.878906 236.207031 677.546875 C 236.511719 677.210938 236.78125 676.851562 237.015625 676.464844 C 237.25 676.078125 237.445312 675.671875 237.601562 675.25 C 237.753906 674.824219 237.867188 674.386719 237.933594 673.941406 C 238.003906 673.496094 238.027344 673.046875 238.007812 672.59375 C 237.988281 672.140625 237.921875 671.695312 237.816406 671.257812 C 237.707031 670.816406 237.558594 670.394531 237.367188 669.984375 C 237.175781 669.574219 236.945312 669.1875 236.679688 668.824219 C 236.410156 668.457031 236.109375 668.125 235.777344 667.820312 C 235.445312 667.511719 235.082031 667.242188 234.699219 667.007812 C 234.3125 666.773438 233.90625 666.582031 233.480469 666.425781 C 233.054688 666.273438 232.621094 666.160156 232.171875 666.09375 C 231.726562 666.023438 231.277344 666 230.824219 666.019531 C 230.375 666.039062 229.929688 666.101562 229.488281 666.210938 C 229.050781 666.316406 228.625 666.46875 228.214844 666.660156 C 227.804688 666.851562 227.417969 667.078125 227.054688 667.347656 Z M 227.054688 667.347656 " fill-opacity="1" fill-rule="nonzero"/></g></g></g><g clip-path="url(#4f69509c6b)"><g clip-path="url(#dc324eacad)"><g clip-path="url(#3fa31a8379)"><path fill="#ffbd59" d="M 381.507812 880.058594 C 390.941406 886.070312 403.441406 883.300781 409.4375 873.894531 C 464.382812 787.675781 437.355469 708.320312 413.546875 638.324219 C 390.609375 571.003906 368.9375 507.390625 413.429688 437.574219 C 457.925781 367.753906 524.742188 360.535156 595.46875 352.871094 C 668.953125 344.917969 752.296875 335.90625 807.246094 249.683594 C 813.257812 240.25 810.480469 227.761719 801.046875 221.75 C 791.613281 215.738281 779.121094 218.492188 773.105469 227.925781 C 728.613281 297.746094 661.828125 304.984375 591.097656 312.648438 C 517.585938 320.582031 434.238281 329.597656 379.292969 415.816406 C 324.34375 502.035156 351.371094 581.390625 375.226562 651.375 C 398.148438 718.726562 419.808594 782.292969 375.296875 852.136719 C 369.300781 861.542969 372.070312 874.042969 381.507812 880.058594 " fill-opacity="1" fill-rule="nonzero"/></g></g></g><g clip-path="url(#41b99444b4)"><g clip-path="url(#53f0b3abbb)"><g clip-path="url(#6b9d8606fa)"><path fill="#000000" d="M 397.148438 381.125 L 394.847656 383.679688 C 394.542969 384.015625 394.277344 384.378906 394.042969 384.765625 C 393.8125 385.152344 393.621094 385.5625 393.472656 385.988281 C 393.320312 386.414062 393.210938 386.851562 393.144531 387.296875 C 393.082031 387.746094 393.058594 388.195312 393.082031 388.644531 C 393.105469 389.097656 393.175781 389.542969 393.285156 389.980469 C 393.394531 390.417969 393.546875 390.839844 393.742188 391.25 C 393.9375 391.65625 394.167969 392.042969 394.441406 392.40625 C 394.710938 392.769531 395.011719 393.101562 395.347656 393.402344 C 395.683594 393.707031 396.046875 393.972656 396.433594 394.203125 C 396.824219 394.4375 397.230469 394.628906 397.65625 394.777344 C 398.082031 394.929688 398.519531 395.039062 398.964844 395.101562 C 399.414062 395.167969 399.863281 395.1875 400.316406 395.164062 C 400.765625 395.140625 401.210938 395.074219 401.648438 394.964844 C 402.089844 394.851562 402.511719 394.699219 402.917969 394.507812 C 403.328125 394.3125 403.710938 394.078125 404.074219 393.808594 C 404.4375 393.539062 404.769531 393.234375 405.074219 392.898438 L 407.375 390.34375 C 407.679688 390.007812 407.945312 389.648438 408.179688 389.257812 C 408.410156 388.871094 408.601562 388.464844 408.75 388.039062 C 408.902344 387.613281 409.011719 387.175781 409.078125 386.726562 C 409.140625 386.28125 409.164062 385.832031 409.140625 385.378906 C 409.117188 384.925781 409.046875 384.484375 408.9375 384.042969 C 408.828125 383.605469 408.675781 383.183594 408.480469 382.773438 C 408.285156 382.367188 408.054688 381.980469 407.78125 381.621094 C 407.511719 381.257812 407.210938 380.925781 406.875 380.621094 C 406.539062 380.320312 406.175781 380.050781 405.789062 379.820312 C 405.398438 379.589844 404.992188 379.398438 404.566406 379.246094 C 404.140625 379.09375 403.703125 378.988281 403.253906 378.921875 C 402.808594 378.855469 402.359375 378.835938 401.90625 378.859375 C 401.457031 378.882812 401.011719 378.949219 400.574219 379.0625 C 400.132812 379.171875 399.710938 379.324219 399.304688 379.519531 C 398.894531 379.714844 398.511719 379.945312 398.148438 380.214844 C 397.785156 380.484375 397.453125 380.789062 397.148438 381.125 Z M 377.40625 406.160156 C 376.078125 408.113281 374.769531 410.097656 373.484375 412.117188 C 360.03125 433.226562 350.675781 455.050781 345.417969 477.589844 C 340.773438 497.484375 339.25 518.347656 340.839844 540.183594 C 342.144531 558.074219 345.671875 577.667969 351.425781 598.964844 C 354.820312 611.539062 360.582031 629.75 368.710938 653.597656 L 368.734375 653.671875 C 376.277344 675.828125 381.546875 692.34375 384.546875 703.222656 C 389.472656 721.089844 392.523438 737.15625 393.691406 751.421875 C 395.074219 768.269531 394.035156 784.210938 390.574219 799.25 C 386.707031 816.054688 379.679688 832.449219 369.492188 848.4375 C 365.46875 854.746094 364.269531 861.554688 365.890625 868.867188 C 367.511719 876.179688 371.480469 881.847656 377.796875 885.875 C 384.117188 889.902344 390.933594 891.105469 398.246094 889.488281 C 405.554688 887.867188 411.222656 883.90625 415.242188 877.597656 C 428.691406 856.496094 438.042969 834.679688 443.304688 812.148438 C 447.949219 792.265625 449.480469 771.410156 447.898438 749.578125 C 446.597656 731.699219 443.082031 712.113281 437.34375 690.820312 C 433.960938 678.257812 428.210938 660.050781 420.097656 636.199219 L 420.066406 636.109375 C 412.515625 613.953125 407.238281 597.429688 404.230469 586.542969 C 399.296875 568.667969 396.238281 552.59375 395.0625 538.320312 C 393.675781 521.464844 394.707031 505.511719 398.164062 490.46875 C 402.023438 473.660156 409.050781 457.261719 419.238281 441.273438 C 429.421875 425.292969 441.316406 412 454.917969 401.402344 C 467.09375 391.917969 481.109375 384.246094 496.972656 378.382812 C 510.402344 373.417969 526.261719 369.398438 544.542969 366.316406 C 555.671875 364.441406 572.875 362.242188 596.148438 359.722656 L 596.210938 359.714844 L 596.222656 359.714844 C 621.277344 357.003906 640.210938 354.53125 653.023438 352.296875 C 674.753906 348.511719 694 343.433594 710.761719 337.0625 C 731.226562 329.28125 749.492188 319.085938 765.5625 306.476562 C 783.769531 292.191406 799.601562 274.492188 813.054688 253.386719 C 817.082031 247.0625 818.285156 240.25 816.667969 232.9375 C 815.046875 225.628906 811.078125 219.957031 804.753906 215.929688 C 798.433594 211.902344 791.621094 210.699219 784.308594 212.316406 C 777 213.9375 771.328125 217.90625 767.300781 224.226562 C 757.113281 240.214844 745.214844 253.507812 731.609375 264.109375 C 719.4375 273.597656 705.417969 281.273438 689.554688 287.136719 C 676.121094 292.105469 660.261719 296.128906 641.976562 299.207031 C 630.839844 301.082031 613.632812 303.28125 590.355469 305.804688 C 570.960938 307.898438 556.289062 309.679688 546.339844 311.152344 C 529.558594 313.636719 514.535156 316.667969 501.265625 320.242188 C 467.257812 329.402344 438.550781 343.917969 415.144531 363.785156 C 414.800781 364.078125 414.488281 364.398438 414.207031 364.753906 C 413.925781 365.109375 413.683594 365.484375 413.476562 365.886719 C 413.269531 366.289062 413.105469 366.707031 412.980469 367.144531 C 412.855469 367.578125 412.777344 368.019531 412.738281 368.472656 C 412.703125 368.921875 412.710938 369.371094 412.761719 369.820312 C 412.8125 370.269531 412.910156 370.710938 413.046875 371.140625 C 413.183594 371.570312 413.363281 371.984375 413.582031 372.378906 C 413.804688 372.773438 414.058594 373.144531 414.351562 373.488281 C 414.644531 373.832031 414.96875 374.144531 415.320312 374.425781 C 415.675781 374.707031 416.054688 374.949219 416.457031 375.15625 C 416.859375 375.363281 417.277344 375.527344 417.710938 375.652344 C 418.148438 375.777344 418.589844 375.859375 419.039062 375.894531 C 419.492188 375.929688 419.941406 375.925781 420.390625 375.871094 C 420.839844 375.820312 421.277344 375.726562 421.707031 375.585938 C 422.140625 375.449219 422.550781 375.269531 422.945312 375.050781 C 423.339844 374.832031 423.710938 374.574219 424.054688 374.28125 C 445.894531 355.746094 472.824219 342.164062 504.847656 333.539062 C 517.601562 330.101562 532.105469 327.179688 548.359375 324.773438 C 558.128906 323.328125 572.621094 321.570312 591.839844 319.496094 C 615.386719 316.941406 632.859375 314.707031 644.261719 312.785156 C 663.398438 309.5625 680.085938 305.320312 694.328125 300.054688 C 711.527344 293.695312 726.777344 285.335938 740.074219 274.972656 C 754.929688 263.398438 767.875 248.949219 778.914062 231.628906 C 780.898438 228.511719 783.6875 226.558594 787.285156 225.761719 C 790.886719 224.964844 794.242188 225.558594 797.355469 227.542969 C 800.46875 229.527344 802.425781 232.316406 803.222656 235.917969 C 804.019531 239.515625 803.425781 242.871094 801.441406 245.984375 C 788.832031 265.773438 774.039062 282.324219 757.0625 295.644531 C 742.089844 307.390625 725.027344 316.90625 705.867188 324.191406 C 689.925781 330.25 671.523438 335.097656 650.660156 338.734375 C 638.140625 340.914062 619.5 343.34375 594.742188 346.023438 L 594.726562 346.023438 L 594.664062 346.03125 C 571.125 348.582031 553.652344 350.816406 542.257812 352.738281 C 523.125 355.960938 506.4375 360.203125 492.199219 365.464844 C 475 371.824219 459.753906 380.179688 446.457031 390.539062 C 431.605469 402.113281 418.660156 416.558594 407.625 433.875 C 396.585938 451.195312 388.957031 469.035156 384.742188 487.386719 C 380.96875 503.820312 379.832031 521.171875 381.339844 539.453125 C 382.585938 554.585938 385.792969 571.503906 390.957031 590.207031 C 394.039062 601.355469 399.394531 618.132812 407.03125 640.542969 L 407.0625 640.632812 C 415.078125 664.207031 420.742188 682.128906 424.050781 694.402344 C 429.558594 714.847656 432.929688 733.570312 434.164062 750.574219 C 435.644531 771.011719 434.222656 790.492188 429.898438 809.019531 C 424.992188 830.023438 416.234375 850.414062 403.628906 870.195312 C 401.652344 873.296875 398.867188 875.246094 395.269531 876.042969 C 391.667969 876.839844 388.3125 876.246094 385.199219 874.261719 C 382.085938 872.28125 380.132812 869.488281 379.332031 865.886719 C 378.535156 862.289062 379.125 858.941406 381.101562 855.839844 C 392.140625 838.515625 399.773438 820.683594 403.992188 802.335938 C 407.773438 785.910156 408.914062 768.5625 407.414062 750.296875 C 406.175781 735.167969 402.976562 718.257812 397.820312 699.5625 C 394.75 688.421875 389.398438 671.644531 381.769531 649.234375 L 381.742188 649.15625 C 373.710938 625.585938 368.035156 607.660156 364.71875 595.375 C 359.195312 574.925781 355.816406 556.195312 354.574219 539.183594 C 353.085938 518.742188 354.5 499.253906 358.824219 480.71875 C 363.730469 459.707031 372.488281 439.304688 385.097656 419.515625 C 386.308594 417.613281 387.542969 415.742188 388.792969 413.902344 C 389.046875 413.527344 389.261719 413.132812 389.4375 412.714844 C 389.617188 412.300781 389.75 411.871094 389.839844 411.425781 C 389.933594 410.984375 389.980469 410.539062 389.984375 410.085938 C 389.988281 409.632812 389.945312 409.183594 389.863281 408.742188 C 389.777344 408.296875 389.648438 407.867188 389.480469 407.445312 C 389.308594 407.027344 389.101562 406.628906 388.851562 406.25 C 388.605469 405.875 388.324219 405.523438 388.003906 405.203125 C 387.6875 404.878906 387.34375 404.589844 386.96875 404.335938 C 386.59375 404.082031 386.199219 403.867188 385.785156 403.691406 C 385.367188 403.515625 384.9375 403.382812 384.496094 403.289062 C 384.050781 403.199219 383.605469 403.148438 383.152344 403.148438 C 382.699219 403.144531 382.253906 403.183594 381.808594 403.269531 C 381.363281 403.351562 380.933594 403.480469 380.515625 403.648438 C 380.09375 403.820312 379.695312 404.027344 379.320312 404.277344 C 378.941406 404.523438 378.589844 404.808594 378.269531 405.125 C 377.945312 405.441406 377.660156 405.789062 377.40625 406.160156 Z M 377.40625 406.160156 " fill-opacity="1" fill-rule="nonzero"/></g></g></g><g clip-path="url(#b0179aef60)"><g clip-path="url(#6d76049a6f)"><g clip-path="url(#3821f4e30c)"><path fill="#ffffff" d="M 305.019531 571.6875 C 259.515625 547.710938 254.761719 548.765625 223.664062 589.6875 C 247.59375 544.195312 246.539062 539.441406 205.617188 508.339844 C 251.128906 532.242188 255.882812 531.191406 287.011719 490.285156 C 263.050781 535.757812 264.105469 540.511719 305.019531 571.6875 " fill-opacity="1" fill-rule="nonzero"/></g></g></g><g clip-path="url(#893471a8c3)"><g clip-path="url(#936498daf4)"><g clip-path="url(#216931b395)"><path stroke-linecap="round" transform="matrix(0.290304, 0.185011, 0.185011, -0.290304, -530.520326, 703.849206)" fill="none" stroke-linejoin="round" d="M 1840.500362 1628.206559 C 1691.596595 1615.901329 1681.597478 1605.895829 1669.304594 1457.099235 C 1656.902828 1605.901113 1646.897329 1615.90023 1498.094636 1628.202683 C 1646.901671 1640.701925 1656.906887 1650.697855 1669.300718 1799.504961 C 1681.595437 1650.702141 1691.600937 1640.703023 1840.500362 1628.206559 Z M 1840.500362 1628.206559 " stroke="#000000" stroke-width="40" stroke-opacity="1" stroke-miterlimit="10"/></g></g></g></svg>