<svg xmlns="http://www.w3.org/2000/svg" xmlns:xlink="http://www.w3.org/1999/xlink" width="1080" zoomAndPan="magnify" viewBox="0 0 810 151.500001" height="202" preserveAspectRatio="xMidYMid meet" version="1.0"><defs><g/><clipPath id="961f289c90"><path d="M 149 15.824219 L 250 15.824219 L 250 135.429688 L 149 135.429688 Z M 149 15.824219 " clip-rule="nonzero"/></clipPath></defs><g fill="#ffffff" fill-opacity="1"><g transform="translate(255.315141, 117.340738)"><g><path d="M 33.0625 1.078125 C 27.894531 1.078125 23.296875 0.441406 19.265625 -0.828125 C 15.234375 -2.109375 11.875 -3.785156 9.1875 -5.859375 C 6.5 -7.941406 4.441406 -10.222656 3.015625 -12.703125 L 11.125 -22.609375 L 12.40625 -22.609375 C 14.644531 -19.273438 17.488281 -16.617188 20.9375 -14.640625 C 24.394531 -12.671875 28.4375 -11.6875 33.0625 -11.6875 C 37.007812 -11.6875 39.988281 -12.519531 42 -14.1875 C 44.007812 -15.851562 45.015625 -18.148438 45.015625 -21.078125 C 45.015625 -22.847656 44.691406 -24.328125 44.046875 -25.515625 C 43.398438 -26.703125 42.328125 -27.722656 40.828125 -28.578125 C 39.328125 -29.429688 37.300781 -30.160156 34.75 -30.765625 L 25.15625 -32.96875 C 18.457031 -34.5 13.460938 -37.039062 10.171875 -40.59375 C 6.890625 -44.15625 5.25 -48.773438 5.25 -54.453125 C 5.25 -58.671875 6.300781 -62.378906 8.40625 -65.578125 C 10.519531 -68.773438 13.59375 -71.257812 17.625 -73.03125 C 21.65625 -74.800781 26.476562 -75.6875 32.09375 -75.6875 C 37.84375 -75.6875 42.765625 -74.925781 46.859375 -73.40625 C 50.960938 -71.894531 54.429688 -69.570312 57.265625 -66.4375 L 49.96875 -56.4375 L 48.6875 -56.4375 C 46.570312 -58.65625 44.15625 -60.316406 41.4375 -61.421875 C 38.71875 -62.523438 35.601562 -63.078125 32.09375 -63.078125 C 28.050781 -63.078125 24.972656 -62.363281 22.859375 -60.9375 C 20.753906 -59.507812 19.703125 -57.535156 19.703125 -55.015625 C 19.703125 -52.671875 20.441406 -50.800781 21.921875 -49.40625 C 23.398438 -48.007812 25.957031 -46.921875 29.59375 -46.140625 L 39.390625 -44.09375 C 46.640625 -42.5625 51.894531 -39.96875 55.15625 -36.3125 C 58.425781 -32.65625 60.0625 -27.882812 60.0625 -22 C 60.0625 -17.332031 59.054688 -13.269531 57.046875 -9.8125 C 55.046875 -6.363281 52.019531 -3.6875 47.96875 -1.78125 C 43.914062 0.125 38.945312 1.078125 33.0625 1.078125 Z M 33.0625 1.078125 "/></g></g></g><g fill="#ffffff" fill-opacity="1"><g transform="translate(319.404723, 117.340738)"><g><path d="M 24.4375 0 L 9.703125 0 L 9.703125 -74.609375 L 24.4375 -74.609375 Z M 24.4375 0 "/></g></g></g><g fill="#ffffff" fill-opacity="1"><g transform="translate(353.592637, 117.340738)"><g><path d="M 23.21875 0 L 9.703125 0 L 9.703125 -74.609375 L 28.984375 -74.609375 L 47.875 -19.75 L 48.9375 -19.75 L 67.71875 -74.609375 L 86.546875 -74.609375 L 86.546875 0 L 72.5625 0 L 72.5625 -49.296875 L 71.296875 -49.5 L 54.046875 0 L 41.75 0 L 24.5 -49.5 L 23.21875 -49.296875 Z M 23.21875 0 "/></g></g></g><g fill="#ffffff" fill-opacity="1"><g transform="translate(449.880097, 117.340738)"><g><path d="M 24.4375 -74.609375 L 24.4375 -12.34375 L 57.96875 -12.34375 L 57.96875 0 L 9.703125 0 L 9.703125 -74.609375 Z M 24.4375 -74.609375 "/></g></g></g><g fill="#ffffff" fill-opacity="1"><g transform="translate(510.295755, 117.340738)"><g><path d="M 71.59375 0 L 56.078125 0 L 50.46875 -17.203125 L 21.890625 -17.203125 L 16.28125 0 L 1.125 0 L 26.890625 -74.609375 L 45.828125 -74.609375 Z M 35.46875 -59.046875 L 25.875 -29.59375 L 46.390625 -29.59375 L 36.75 -59.046875 Z M 35.46875 -59.046875 "/></g></g></g><g fill="#ffffff" fill-opacity="1"><g transform="translate(583.008861, 117.340738)"><g><path d="M 9.703125 0 L 9.703125 -74.609375 L 41.546875 -74.609375 C 46.140625 -74.609375 50.023438 -73.882812 53.203125 -72.4375 C 56.378906 -70.988281 58.785156 -68.929688 60.421875 -66.265625 C 62.054688 -63.597656 62.875 -60.441406 62.875 -56.796875 C 62.875 -53.492188 62.070312 -50.582031 60.46875 -48.0625 C 58.875 -45.550781 56.578125 -43.53125 53.578125 -42 L 53.578125 -40.921875 C 58.273438 -39.703125 61.898438 -37.472656 64.453125 -34.234375 C 67.003906 -31.003906 68.28125 -27.046875 68.28125 -22.359375 C 68.28125 -15.210938 66.128906 -9.695312 61.828125 -5.8125 C 57.523438 -1.9375 51.132812 0 42.65625 0 Z M 38.484375 -44.859375 C 45.347656 -44.859375 48.78125 -47.953125 48.78125 -54.140625 C 48.78125 -57.304688 47.929688 -59.660156 46.234375 -61.203125 C 44.535156 -62.753906 41.953125 -63.53125 38.484375 -63.53125 L 24.4375 -63.53125 L 24.4375 -44.859375 Z M 41.1875 -11.6875 C 49.3125 -11.6875 53.375 -15.378906 53.375 -22.765625 C 53.375 -30.179688 49.3125 -33.890625 41.1875 -33.890625 L 24.4375 -33.890625 L 24.4375 -11.6875 Z M 41.1875 -11.6875 "/></g></g></g><g clip-path="url(#961f289c90)"><path fill="#ffffff" d="M 247.472656 115.988281 L 217.757812 73.171875 C 216.554688 71.441406 215.921875 69.410156 215.921875 67.292969 L 215.921875 26.0625 L 216 26.0625 C 218.777344 26.0625 221.039062 23.773438 221.039062 20.960938 C 221.039062 18.148438 218.777344 15.859375 216 15.859375 L 183.257812 15.859375 C 180.476562 15.859375 178.21875 18.148438 178.21875 20.960938 C 178.21875 23.773438 180.476562 26.0625 183.257812 26.0625 L 183.332031 26.0625 L 183.332031 67.292969 C 183.332031 69.410156 182.699219 71.441406 181.496094 73.171875 L 151.757812 116.03125 C 150.6875 117.746094 148.984375 121.324219 149.574219 126 C 149.753906 127.414062 150.132812 128.789062 150.695312 130.09375 C 152.023438 133.15625 155.105469 135.136719 158.550781 135.136719 L 240.703125 135.136719 C 244.148438 135.136719 247.230469 133.15625 248.558594 130.09375 C 249.125 128.789062 249.5 127.414062 249.679688 126 C 250.273438 121.324219 248.566406 117.746094 247.472656 115.988281 Z M 180.109375 20.960938 C 180.109375 19.191406 181.523438 17.753906 183.257812 17.753906 L 216 17.753906 C 217.734375 17.753906 219.144531 19.191406 219.144531 20.960938 C 219.144531 22.730469 217.734375 24.171875 216 24.171875 L 183.257812 24.171875 C 181.523438 24.171875 180.109375 22.730469 180.109375 20.960938 Z M 247.800781 125.761719 C 247.644531 126.996094 247.3125 128.203125 246.820312 129.339844 C 245.792969 131.710938 243.394531 133.242188 240.703125 133.242188 L 158.550781 133.242188 C 155.863281 133.242188 153.460938 131.710938 152.433594 129.339844 C 151.941406 128.203125 151.609375 126.996094 151.453125 125.761719 C 150.914062 121.515625 152.609375 118.242188 153.339844 117.070312 L 183.054688 74.25 C 184.476562 72.203125 185.226562 69.796875 185.226562 67.292969 L 185.226562 59.304688 L 196.558594 59.304688 C 197.082031 59.304688 197.503906 58.882812 197.503906 58.359375 C 197.503906 57.835938 197.082031 57.410156 196.558594 57.410156 L 185.226562 57.410156 L 185.226562 46.839844 L 196.558594 46.839844 C 197.082031 46.839844 197.503906 46.414062 197.503906 45.894531 C 197.503906 45.371094 197.082031 44.945312 196.558594 44.945312 L 185.226562 44.945312 L 185.226562 34.375 L 196.558594 34.375 C 197.082031 34.375 197.503906 33.949219 197.503906 33.425781 C 197.503906 32.90625 197.082031 32.480469 196.558594 32.480469 L 185.226562 32.480469 L 185.226562 26.0625 L 214.03125 26.0625 L 214.03125 67.292969 C 214.03125 69.796875 214.78125 72.203125 216.203125 74.25 L 245.890625 117.03125 C 246.644531 118.238281 248.339844 121.511719 247.800781 125.761719 Z M 247.800781 125.761719 " fill-opacity="1" fill-rule="nonzero"/></g><path fill="#ffffff" d="M 238.507812 128.050781 L 166.335938 128.050781 C 163.011719 128.050781 160.15625 125.652344 159.6875 122.460938 L 159.667969 122.308594 C 159.25 119.015625 160.566406 116.476562 161.125 115.578125 L 168.738281 104.605469 C 169.035156 104.175781 168.929688 103.585938 168.5 103.289062 C 168.070312 102.988281 167.480469 103.097656 167.183594 103.527344 L 159.542969 114.535156 C 158.683594 115.917969 157.316406 118.789062 157.789062 122.546875 L 157.816406 122.746094 C 158.417969 126.847656 162.082031 129.945312 166.335938 129.945312 L 238.507812 129.945312 C 239.03125 129.945312 239.457031 129.519531 239.457031 128.996094 C 239.457031 128.472656 239.03125 128.050781 238.507812 128.050781 Z M 238.507812 128.050781 " fill-opacity="1" fill-rule="nonzero"/><path fill="#ffffff" d="M 214.203125 79.679688 C 214.386719 79.941406 214.679688 80.082031 214.976562 80.082031 C 215.164062 80.082031 215.355469 80.023438 215.519531 79.90625 C 215.945312 79.609375 216.050781 79.015625 215.75 78.589844 L 212.675781 74.222656 C 211.453125 72.480469 210.804688 70.429688 210.804688 68.289062 L 210.804688 54.203125 C 210.804688 53.679688 210.382812 53.257812 209.859375 53.257812 C 209.335938 53.257812 208.910156 53.679688 208.910156 54.203125 L 208.910156 68.292969 C 208.910156 70.824219 209.679688 73.25 211.128906 75.3125 Z M 214.203125 79.679688 " fill-opacity="1" fill-rule="nonzero"/></svg>