<svg xmlns="http://www.w3.org/2000/svg" xmlns:xlink="http://www.w3.org/1999/xlink" width="1080" zoomAndPan="magnify" viewBox="0 0 810 151.500001" height="202" preserveAspectRatio="xMidYMid meet" version="1.0"><defs><g/><clipPath id="46d08abd59"><path d="M 149 15.824219 L 250.644531 15.824219 L 250.644531 135.429688 L 149 135.429688 Z M 149 15.824219 " clip-rule="nonzero"/></clipPath></defs><g fill="#000000" fill-opacity="1"><g transform="translate(255.256665, 112.244387)"><g><path d="M 33.0625 1.078125 C 27.894531 1.078125 23.296875 0.441406 19.265625 -0.828125 C 15.234375 -2.109375 11.875 -3.785156 9.1875 -5.859375 C 6.5 -7.941406 4.441406 -10.222656 3.015625 -12.703125 L 11.125 -22.609375 L 12.40625 -22.609375 C 14.644531 -19.273438 17.488281 -16.617188 20.9375 -14.640625 C 24.394531 -12.671875 28.4375 -11.6875 33.0625 -11.6875 C 37.007812 -11.6875 39.984375 -12.519531 41.984375 -14.1875 C 43.992188 -15.851562 45 -18.148438 45 -21.078125 C 45 -22.847656 44.675781 -24.328125 44.03125 -25.515625 C 43.382812 -26.703125 42.3125 -27.71875 40.8125 -28.5625 C 39.320312 -29.414062 37.300781 -30.148438 34.75 -30.765625 L 25.15625 -32.96875 C 18.457031 -34.5 13.460938 -37.039062 10.171875 -40.59375 C 6.890625 -44.144531 5.25 -48.757812 5.25 -54.4375 C 5.25 -58.65625 6.300781 -62.363281 8.40625 -65.5625 C 10.519531 -68.757812 13.59375 -71.242188 17.625 -73.015625 C 21.65625 -74.785156 26.476562 -75.671875 32.09375 -75.671875 C 37.84375 -75.671875 42.765625 -74.910156 46.859375 -73.390625 C 50.960938 -71.878906 54.425781 -69.5625 57.25 -66.4375 L 49.953125 -56.4375 L 48.671875 -56.4375 C 46.566406 -58.644531 44.148438 -60.300781 41.421875 -61.40625 C 38.703125 -62.507812 35.59375 -63.0625 32.09375 -63.0625 C 28.039062 -63.0625 24.960938 -62.347656 22.859375 -60.921875 C 20.753906 -59.492188 19.703125 -57.519531 19.703125 -55 C 19.703125 -52.65625 20.441406 -50.785156 21.921875 -49.390625 C 23.398438 -47.992188 25.957031 -46.90625 29.59375 -46.125 L 39.390625 -44.09375 C 46.640625 -42.5625 51.894531 -39.960938 55.15625 -36.296875 C 58.425781 -32.640625 60.0625 -27.867188 60.0625 -21.984375 C 60.0625 -17.328125 59.054688 -13.269531 57.046875 -9.8125 C 55.035156 -6.363281 52.003906 -3.6875 47.953125 -1.78125 C 43.910156 0.125 38.945312 1.078125 33.0625 1.078125 Z M 33.0625 1.078125 "/></g></g></g><g fill="#000000" fill-opacity="1"><g transform="translate(319.33812, 112.244387)"><g><path d="M 24.4375 0 L 9.6875 0 L 9.6875 -74.59375 L 24.4375 -74.59375 Z M 24.4375 0 "/></g></g></g><g fill="#000000" fill-opacity="1"><g transform="translate(353.521699, 112.244387)"><g><path d="M 23.21875 0 L 9.6875 0 L 9.6875 -74.59375 L 28.984375 -74.59375 L 47.859375 -19.75 L 48.9375 -19.75 L 67.703125 -74.59375 L 86.546875 -74.59375 L 86.546875 0 L 72.5625 0 L 72.5625 -49.296875 L 71.28125 -49.5 L 54.03125 0 L 41.734375 0 L 24.5 -49.5 L 23.21875 -49.296875 Z M 23.21875 0 "/></g></g></g><g fill="#000000" fill-opacity="1"><g transform="translate(449.796981, 112.244387)"><g><path d="M 24.4375 -74.59375 L 24.4375 -12.34375 L 57.96875 -12.34375 L 57.96875 0 L 9.6875 0 L 9.6875 -74.59375 Z M 24.4375 -74.59375 "/></g></g></g><g fill="#000000" fill-opacity="1"><g transform="translate(510.204976, 112.244387)"><g><path d="M 71.59375 0 L 56.078125 0 L 50.46875 -17.203125 L 21.890625 -17.203125 L 16.28125 0 L 1.125 0 L 26.890625 -74.59375 L 45.828125 -74.59375 Z M 35.46875 -59.03125 L 25.875 -29.59375 L 46.375 -29.59375 L 36.734375 -59.03125 Z M 35.46875 -59.03125 "/></g></g></g><g fill="#000000" fill-opacity="1"><g transform="translate(582.908894, 112.244387)"><g><path d="M 9.6875 0 L 9.6875 -74.59375 L 41.53125 -74.59375 C 46.125 -74.59375 50.007812 -73.867188 53.1875 -72.421875 C 56.375 -70.984375 58.78125 -68.925781 60.40625 -66.25 C 62.039062 -63.582031 62.859375 -60.429688 62.859375 -56.796875 C 62.859375 -53.492188 62.054688 -50.582031 60.453125 -48.0625 C 58.859375 -45.550781 56.566406 -43.53125 53.578125 -42 L 53.578125 -40.921875 C 58.273438 -39.691406 61.894531 -37.460938 64.4375 -34.234375 C 66.988281 -31.003906 68.265625 -27.039062 68.265625 -22.34375 C 68.265625 -15.207031 66.113281 -9.695312 61.8125 -5.8125 C 57.507812 -1.9375 51.125 0 42.65625 0 Z M 38.46875 -44.84375 C 45.34375 -44.84375 48.78125 -47.941406 48.78125 -54.140625 C 48.78125 -57.304688 47.925781 -59.660156 46.21875 -61.203125 C 44.519531 -62.753906 41.9375 -63.53125 38.46875 -63.53125 L 24.4375 -63.53125 L 24.4375 -44.84375 Z M 41.171875 -11.6875 C 49.304688 -11.6875 53.375 -15.375 53.375 -22.75 C 53.375 -30.164062 49.304688 -33.875 41.171875 -33.875 L 24.4375 -33.875 L 24.4375 -11.6875 Z M 41.171875 -11.6875 "/></g></g></g><g clip-path="url(#46d08abd59)"><path fill="#3a322b" d="M 247.835938 116.207031 L 218.011719 73.292969 C 216.804688 71.5625 216.167969 69.523438 216.167969 67.402344 L 216.167969 26.085938 L 216.246094 26.085938 C 219.035156 26.085938 221.304688 23.792969 221.304688 20.972656 C 221.304688 18.152344 219.035156 15.859375 216.246094 15.859375 L 183.382812 15.859375 C 180.59375 15.859375 178.324219 18.152344 178.324219 20.972656 C 178.324219 23.792969 180.59375 26.085938 183.382812 26.085938 L 183.460938 26.085938 L 183.460938 67.402344 C 183.460938 69.523438 182.824219 71.5625 181.617188 73.292969 L 151.765625 116.246094 C 150.695312 117.964844 148.984375 121.550781 149.578125 126.234375 C 149.757812 127.652344 150.136719 129.03125 150.703125 130.339844 C 152.035156 133.410156 155.128906 135.394531 158.585938 135.394531 L 241.042969 135.394531 C 244.5 135.394531 247.59375 133.410156 248.925781 130.339844 C 249.492188 129.035156 249.871094 127.652344 250.050781 126.238281 C 250.644531 121.550781 248.933594 117.964844 247.835938 116.207031 Z M 180.226562 20.972656 C 180.226562 19.199219 181.640625 17.757812 183.382812 17.757812 L 216.246094 17.757812 C 217.984375 17.757812 219.402344 19.199219 219.402344 20.972656 C 219.402344 22.746094 217.984375 24.1875 216.246094 24.1875 L 183.382812 24.1875 C 181.640625 24.1875 180.226562 22.746094 180.226562 20.972656 Z M 248.167969 125.996094 C 248.007812 127.238281 247.675781 128.445312 247.179688 129.585938 C 246.152344 131.960938 243.742188 133.496094 241.042969 133.496094 L 158.585938 133.496094 C 155.886719 133.496094 153.476562 131.960938 152.445312 129.585938 C 151.953125 128.445312 151.621094 127.234375 151.460938 125.996094 C 150.921875 121.742188 152.625 118.460938 153.355469 117.289062 L 183.179688 74.375 C 184.605469 72.324219 185.359375 69.914062 185.359375 67.402344 L 185.359375 59.398438 L 196.734375 59.398438 C 197.257812 59.398438 197.683594 58.972656 197.683594 58.449219 C 197.683594 57.925781 197.257812 57.5 196.734375 57.5 L 185.359375 57.5 L 185.359375 46.90625 L 196.734375 46.90625 C 197.257812 46.90625 197.683594 46.480469 197.683594 45.957031 C 197.683594 45.433594 197.257812 45.007812 196.734375 45.007812 L 185.359375 45.007812 L 185.359375 34.414062 L 196.734375 34.414062 C 197.257812 34.414062 197.683594 33.988281 197.683594 33.464844 C 197.683594 32.941406 197.257812 32.515625 196.734375 32.515625 L 185.359375 32.515625 L 185.359375 26.085938 L 214.269531 26.085938 L 214.269531 67.402344 C 214.269531 69.914062 215.023438 72.324219 216.449219 74.375 L 246.25 117.25 C 247.003906 118.460938 248.707031 121.742188 248.167969 125.996094 Z M 248.167969 125.996094 " fill-opacity="1" fill-rule="nonzero"/></g><path fill="#3a322b" d="M 238.839844 128.292969 L 166.402344 128.292969 C 163.066406 128.292969 160.195312 125.886719 159.730469 122.691406 L 159.707031 122.539062 C 159.289062 119.238281 160.609375 116.691406 161.167969 115.792969 L 168.8125 104.796875 C 169.109375 104.367188 169.003906 103.773438 168.574219 103.476562 C 168.140625 103.175781 167.550781 103.285156 167.25 103.714844 L 159.582031 114.75 C 158.71875 116.132812 157.347656 119.011719 157.820312 122.777344 L 157.847656 122.972656 C 158.453125 127.089844 162.128906 130.1875 166.402344 130.1875 L 238.839844 130.1875 C 239.367188 130.1875 239.789062 129.765625 239.789062 129.242188 C 239.789062 128.714844 239.363281 128.292969 238.839844 128.292969 Z M 238.839844 128.292969 " fill-opacity="1" fill-rule="nonzero"/><path fill="#3a322b" d="M 214.441406 79.816406 C 214.625 80.078125 214.921875 80.21875 215.21875 80.21875 C 215.40625 80.21875 215.597656 80.164062 215.765625 80.046875 C 216.195312 79.746094 216.296875 79.152344 215.996094 78.722656 L 212.914062 74.347656 C 211.683594 72.605469 211.03125 70.546875 211.03125 68.402344 L 211.03125 54.285156 C 211.03125 53.761719 210.609375 53.335938 210.082031 53.335938 C 209.558594 53.335938 209.132812 53.761719 209.132812 54.285156 L 209.132812 68.40625 C 209.132812 70.941406 209.902344 73.375 211.359375 75.441406 Z M 214.441406 79.816406 " fill-opacity="1" fill-rule="nonzero"/></svg>