<svg xmlns="http://www.w3.org/2000/svg" xmlns:xlink="http://www.w3.org/1999/xlink" width="1080" zoomAndPan="magnify" viewBox="0 0 810 151.500001" height="202" preserveAspectRatio="xMidYMid meet" version="1.0"><defs><g/><clipPath id="816f17d395"><path d="M 160.582031 35.046875 L 231.597656 35.046875 L 231.597656 118.769531 L 160.582031 118.769531 Z M 160.582031 35.046875 " clip-rule="nonzero"/></clipPath></defs><g fill="#ffffff" fill-opacity="1"><g transform="translate(239.195631, 120.505145)"><g><path d="M 28.84375 0.9375 C 24.332031 0.9375 20.316406 0.378906 16.796875 -0.734375 C 13.285156 -1.847656 10.359375 -3.304688 8.015625 -5.109375 C 5.671875 -6.921875 3.875 -8.910156 2.625 -11.078125 L 9.703125 -19.71875 L 10.8125 -19.71875 C 12.769531 -16.8125 15.253906 -14.492188 18.265625 -12.765625 C 21.285156 -11.046875 24.8125 -10.1875 28.84375 -10.1875 C 32.289062 -10.1875 34.890625 -10.914062 36.640625 -12.375 C 38.390625 -13.832031 39.265625 -15.835938 39.265625 -18.390625 C 39.265625 -19.929688 38.984375 -21.21875 38.421875 -22.25 C 37.859375 -23.289062 36.921875 -24.179688 35.609375 -24.921875 C 34.304688 -25.671875 32.539062 -26.3125 30.3125 -26.84375 L 21.953125 -28.765625 C 16.097656 -30.097656 11.738281 -32.3125 8.875 -35.40625 C 6.007812 -38.507812 4.578125 -42.539062 4.578125 -47.5 C 4.578125 -51.175781 5.5 -54.410156 7.34375 -57.203125 C 9.1875 -59.992188 11.863281 -62.160156 15.375 -63.703125 C 18.894531 -65.242188 23.101562 -66.015625 28 -66.015625 C 33.019531 -66.015625 37.316406 -65.351562 40.890625 -64.03125 C 44.460938 -62.71875 47.484375 -60.695312 49.953125 -57.96875 L 43.578125 -49.234375 L 42.46875 -49.234375 C 40.625 -51.160156 38.515625 -52.609375 36.140625 -53.578125 C 33.773438 -54.546875 31.0625 -55.03125 28 -55.03125 C 24.46875 -55.03125 21.78125 -54.40625 19.9375 -53.15625 C 18.101562 -51.90625 17.1875 -50.179688 17.1875 -47.984375 C 17.1875 -45.941406 17.832031 -44.3125 19.125 -43.09375 C 20.414062 -41.875 22.644531 -40.925781 25.8125 -40.25 L 34.375 -38.46875 C 40.6875 -37.125 45.265625 -34.859375 48.109375 -31.671875 C 50.960938 -28.484375 52.390625 -24.320312 52.390625 -19.1875 C 52.390625 -15.125 51.515625 -11.582031 49.765625 -8.5625 C 48.015625 -5.550781 45.375 -3.210938 41.84375 -1.546875 C 38.3125 0.109375 33.976562 0.9375 28.84375 0.9375 Z M 28.84375 0.9375 "/></g></g></g><g fill="#ffffff" fill-opacity="1"><g transform="translate(295.104784, 120.505145)"><g><path d="M 21.328125 0 L 8.453125 0 L 8.453125 -65.078125 L 21.328125 -65.078125 Z M 21.328125 0 "/></g></g></g><g fill="#ffffff" fill-opacity="1"><g transform="translate(324.928934, 120.505145)"><g><path d="M 20.25 0 L 8.453125 0 L 8.453125 -65.078125 L 25.28125 -65.078125 L 41.75 -17.234375 L 42.6875 -17.234375 L 59.078125 -65.078125 L 75.5 -65.078125 L 75.5 0 L 63.296875 0 L 63.296875 -43 L 62.1875 -43.1875 L 47.140625 0 L 36.421875 0 L 21.375 -43.1875 L 20.25 -43 Z M 20.25 0 "/></g></g></g><g fill="#ffffff" fill-opacity="1"><g transform="translate(408.92621, 120.505145)"><g><path d="M 21.328125 -65.078125 L 21.328125 -10.765625 L 50.578125 -10.765625 L 50.578125 0 L 8.453125 0 L 8.453125 -65.078125 Z M 21.328125 -65.078125 "/></g></g></g><g fill="#ffffff" fill-opacity="1"><g transform="translate(461.630368, 120.505145)"><g><path d="M 62.453125 0 L 48.921875 0 L 44.03125 -15 L 19.09375 -15 L 14.203125 0 L 0.984375 0 L 23.453125 -65.078125 L 39.984375 -65.078125 Z M 30.9375 -51.5 L 22.578125 -25.8125 L 40.46875 -25.8125 L 32.046875 -51.5 Z M 30.9375 -51.5 "/></g></g></g><g fill="#ffffff" fill-opacity="1"><g transform="translate(525.062346, 120.505145)"><g><path d="M 8.453125 0 L 8.453125 -65.078125 L 36.234375 -65.078125 C 40.242188 -65.078125 43.632812 -64.445312 46.40625 -63.1875 C 49.1875 -61.925781 51.285156 -60.128906 52.703125 -57.796875 C 54.128906 -55.472656 54.84375 -52.722656 54.84375 -49.546875 C 54.84375 -46.671875 54.144531 -44.132812 52.75 -41.9375 C 51.351562 -39.738281 49.351562 -37.972656 46.75 -36.640625 L 46.75 -35.703125 C 50.84375 -34.628906 54 -32.679688 56.21875 -29.859375 C 58.445312 -27.046875 59.5625 -23.59375 59.5625 -19.5 C 59.5625 -13.269531 57.679688 -8.460938 53.921875 -5.078125 C 50.171875 -1.691406 44.601562 0 37.21875 0 Z M 33.5625 -39.125 C 39.5625 -39.125 42.5625 -41.828125 42.5625 -47.234375 C 42.5625 -49.992188 41.816406 -52.046875 40.328125 -53.390625 C 38.847656 -54.742188 36.59375 -55.421875 33.5625 -55.421875 L 21.328125 -55.421875 L 21.328125 -39.125 Z M 35.921875 -10.1875 C 43.015625 -10.1875 46.5625 -13.410156 46.5625 -19.859375 C 46.5625 -26.328125 43.015625 -29.5625 35.921875 -29.5625 L 21.328125 -29.5625 L 21.328125 -10.1875 Z M 35.921875 -10.1875 "/></g></g></g><g clip-path="url(#816f17d395)"><path fill="#ffffff" d="M 229.941406 105.582031 L 209.015625 75.425781 C 208.171875 74.207031 207.722656 72.777344 207.722656 71.285156 L 207.722656 42.253906 L 207.777344 42.253906 C 209.734375 42.253906 211.328125 40.640625 211.328125 38.660156 C 211.328125 36.679688 209.734375 35.066406 207.777344 35.066406 L 184.71875 35.066406 C 182.761719 35.066406 181.171875 36.679688 181.171875 38.660156 C 181.171875 40.640625 182.765625 42.253906 184.71875 42.253906 L 184.773438 42.253906 L 184.773438 71.285156 C 184.773438 72.777344 184.328125 74.207031 183.484375 75.425781 L 162.539062 105.609375 C 161.785156 106.816406 160.585938 109.335938 161 112.628906 C 161.128906 113.625 161.394531 114.59375 161.792969 115.511719 C 162.726562 117.671875 164.898438 119.0625 167.324219 119.0625 L 225.175781 119.0625 C 227.601562 119.0625 229.773438 117.671875 230.707031 115.511719 C 231.105469 114.59375 231.371094 113.625 231.5 112.628906 C 231.914062 109.335938 230.714844 106.816406 229.941406 105.582031 Z M 182.503906 38.660156 C 182.503906 37.414062 183.5 36.398438 184.71875 36.398438 L 207.777344 36.398438 C 209 36.398438 209.992188 37.414062 209.992188 38.660156 C 209.992188 39.90625 209 40.917969 207.777344 40.917969 L 184.71875 40.917969 C 183.5 40.917969 182.503906 39.90625 182.503906 38.660156 Z M 230.175781 112.460938 C 230.066406 113.332031 229.832031 114.179688 229.484375 114.984375 C 228.761719 116.652344 227.070312 117.730469 225.175781 117.730469 L 167.324219 117.730469 C 165.429688 117.730469 163.738281 116.652344 163.015625 114.980469 C 162.667969 114.179688 162.433594 113.332031 162.324219 112.460938 C 161.945312 109.472656 163.140625 107.164062 163.652344 106.339844 L 184.578125 76.1875 C 185.578125 74.746094 186.109375 73.050781 186.109375 71.285156 L 186.109375 65.660156 L 194.089844 65.660156 C 194.457031 65.660156 194.753906 65.363281 194.753906 64.996094 C 194.753906 64.628906 194.457031 64.328125 194.089844 64.328125 L 186.109375 64.328125 L 186.109375 56.882812 L 194.089844 56.882812 C 194.457031 56.882812 194.753906 56.585938 194.753906 56.21875 C 194.753906 55.847656 194.457031 55.550781 194.089844 55.550781 L 186.109375 55.550781 L 186.109375 48.105469 L 194.089844 48.105469 C 194.457031 48.105469 194.753906 47.804688 194.753906 47.4375 C 194.753906 47.070312 194.457031 46.773438 194.089844 46.773438 L 186.109375 46.773438 L 186.109375 42.253906 L 206.390625 42.253906 L 206.390625 71.285156 C 206.390625 73.050781 206.921875 74.746094 207.921875 76.1875 L 228.828125 106.3125 C 229.359375 107.164062 230.554688 109.46875 230.175781 112.460938 Z M 230.175781 112.460938 " fill-opacity="1" fill-rule="nonzero"/></g><path fill="#ffffff" d="M 223.632812 114.074219 L 172.804688 114.074219 C 170.464844 114.074219 168.453125 112.382812 168.125 110.136719 L 168.109375 110.03125 C 167.816406 107.710938 168.742188 105.921875 169.136719 105.289062 L 174.496094 97.5625 C 174.707031 97.261719 174.632812 96.84375 174.328125 96.636719 C 174.027344 96.425781 173.613281 96.5 173.402344 96.804688 L 168.023438 104.558594 C 167.417969 105.527344 166.453125 107.550781 166.785156 110.199219 L 166.804688 110.335938 C 167.226562 113.226562 169.808594 115.40625 172.804688 115.40625 L 223.632812 115.40625 C 224 115.40625 224.296875 115.109375 224.296875 114.738281 C 224.296875 114.371094 224 114.074219 223.632812 114.074219 Z M 223.632812 114.074219 " fill-opacity="1" fill-rule="nonzero"/><path fill="#ffffff" d="M 206.511719 80.007812 C 206.640625 80.195312 206.847656 80.292969 207.058594 80.292969 C 207.191406 80.292969 207.324219 80.253906 207.441406 80.171875 C 207.742188 79.960938 207.816406 79.542969 207.601562 79.242188 L 205.441406 76.167969 C 204.578125 74.941406 204.121094 73.496094 204.121094 71.988281 L 204.121094 62.070312 C 204.121094 61.699219 203.824219 61.402344 203.453125 61.402344 C 203.085938 61.402344 202.789062 61.699219 202.789062 62.070312 L 202.789062 71.992188 C 202.789062 73.773438 203.328125 75.484375 204.347656 76.933594 Z M 206.511719 80.007812 " fill-opacity="1" fill-rule="nonzero"/></svg>