<svg xmlns="http://www.w3.org/2000/svg" xmlns:xlink="http://www.w3.org/1999/xlink" width="1000" zoomAndPan="magnify" viewBox="0 0 750 749.999995" height="1000" preserveAspectRatio="xMidYMid meet" version="1.0"><defs><g/><clipPath id="55b882000c"><path d="M 101 49.472656 L 649 49.472656 L 649 700.472656 L 101 700.472656 Z M 101 49.472656 " clip-rule="nonzero"/></clipPath></defs><g clip-path="url(#55b882000c)"><path fill="#ffffff" d="M 636.011719 595.894531 L 473.90625 362.300781 C 467.359375 352.863281 463.898438 341.777344 463.898438 330.234375 L 463.898438 105.316406 L 464.316406 105.316406 C 479.480469 105.316406 491.808594 92.828125 491.808594 77.480469 C 491.808594 62.132812 479.480469 49.648438 464.316406 49.648438 L 285.695312 49.648438 C 270.535156 49.648438 258.207031 62.132812 258.207031 77.480469 C 258.207031 92.828125 270.539062 105.316406 285.695312 105.316406 L 286.117188 105.316406 L 286.117188 330.234375 C 286.117188 341.777344 282.65625 352.863281 276.105469 362.300781 L 113.863281 596.109375 C 108.027344 605.472656 98.726562 624.988281 101.953125 650.496094 C 102.929688 658.203125 104.996094 665.71875 108.078125 672.832031 C 115.3125 689.546875 132.132812 700.34375 150.925781 700.34375 L 599.09375 700.34375 C 617.886719 700.34375 634.707031 689.546875 641.9375 672.839844 C 645.023438 665.722656 647.085938 658.210938 648.066406 650.5 C 651.289062 624.988281 641.992188 605.472656 636.011719 595.894531 Z M 268.535156 77.480469 C 268.535156 67.832031 276.234375 59.980469 285.695312 59.980469 L 464.316406 59.980469 C 473.777344 59.980469 481.480469 67.832031 481.480469 77.480469 C 481.480469 87.132812 473.777344 94.988281 464.316406 94.988281 L 285.695312 94.988281 C 276.234375 94.988281 268.535156 87.132812 268.535156 77.480469 Z M 637.816406 649.199219 C 636.964844 655.941406 635.15625 662.511719 632.460938 668.730469 C 626.863281 681.660156 613.765625 690.015625 599.09375 690.015625 L 150.925781 690.015625 C 136.253906 690.015625 123.15625 681.660156 117.554688 668.722656 C 114.863281 662.511719 113.054688 655.9375 112.203125 649.199219 C 109.269531 626.03125 118.519531 608.171875 122.484375 601.785156 L 284.597656 368.191406 C 292.347656 357.015625 296.449219 343.894531 296.449219 330.234375 L 296.449219 286.660156 L 358.265625 286.660156 C 361.121094 286.660156 363.429688 284.34375 363.429688 281.492188 C 363.429688 278.644531 361.121094 276.328125 358.265625 276.328125 L 296.449219 276.328125 L 296.449219 218.65625 L 358.265625 218.65625 C 361.121094 218.65625 363.429688 216.34375 363.429688 213.492188 C 363.429688 210.640625 361.121094 208.328125 358.265625 208.328125 L 296.449219 208.328125 L 296.449219 150.652344 L 358.265625 150.652344 C 361.121094 150.652344 363.429688 148.339844 363.429688 145.488281 C 363.429688 142.636719 361.121094 140.324219 358.265625 140.324219 L 296.449219 140.324219 L 296.449219 105.316406 L 453.578125 105.316406 L 453.578125 330.234375 C 453.578125 343.894531 457.675781 357.015625 465.429688 368.191406 L 627.394531 601.570312 C 631.5 608.167969 640.75 626.027344 637.816406 649.199219 Z M 637.816406 649.199219 " fill-opacity="1" fill-rule="nonzero"/></g><path fill="#ffffff" d="M 587.125 661.6875 L 193.402344 661.6875 C 175.265625 661.6875 159.679688 648.597656 157.132812 631.191406 L 157.019531 630.371094 C 154.746094 612.398438 161.914062 598.546875 164.960938 593.640625 L 206.5 533.789062 C 208.125 531.445312 207.542969 528.226562 205.203125 526.597656 C 202.863281 524.96875 199.644531 525.5625 198.011719 527.894531 L 156.339844 587.964844 C 151.652344 595.492188 144.179688 611.167969 146.769531 631.671875 L 146.917969 632.738281 C 150.191406 655.132812 170.179688 672.015625 193.402344 672.015625 L 587.125 672.015625 C 589.980469 672.015625 592.289062 669.707031 592.289062 666.851562 C 592.289062 663.996094 589.972656 661.6875 587.125 661.6875 Z M 587.125 661.6875 " fill-opacity="1" fill-rule="nonzero"/><path fill="#ffffff" d="M 454.515625 397.804688 C 455.519531 399.234375 457.117188 399.996094 458.742188 399.996094 C 459.761719 399.996094 460.800781 399.691406 461.703125 399.054688 C 464.039062 397.414062 464.601562 394.191406 462.953125 391.859375 L 446.203125 368.042969 C 439.519531 358.542969 435.988281 347.355469 435.988281 335.675781 L 435.988281 258.824219 C 435.988281 255.972656 433.679688 253.660156 430.824219 253.660156 C 427.96875 253.660156 425.660156 255.972656 425.660156 258.824219 L 425.660156 335.683594 C 425.660156 349.496094 429.839844 362.738281 437.753906 373.984375 Z M 454.515625 397.804688 " fill-opacity="1" fill-rule="nonzero"/><g fill="#ffffff" fill-opacity="1"><g transform="translate(185.209638, 621.54481)"><g><path d="M 15.234375 0.625 C 13.015625 0.625 10.976562 0.363281 9.125 -0.15625 C 7.269531 -0.675781 5.6875 -1.394531 4.375 -2.3125 C 3.070312 -3.226562 2.101562 -4.28125 1.46875 -5.46875 L 6.015625 -10.359375 L 6.640625 -10.359375 C 7.722656 -8.898438 9.003906 -7.804688 10.484375 -7.078125 C 11.960938 -6.359375 13.566406 -6 15.296875 -6 C 16.890625 -6 18.085938 -6.28125 18.890625 -6.84375 C 19.703125 -7.414062 20.109375 -8.234375 20.109375 -9.296875 C 20.109375 -10.128906 19.816406 -10.820312 19.234375 -11.375 C 18.648438 -11.9375 17.710938 -12.378906 16.421875 -12.703125 L 12.109375 -13.734375 C 8.878906 -14.492188 6.519531 -15.664062 5.03125 -17.25 C 3.550781 -18.84375 2.8125 -20.859375 2.8125 -23.296875 C 2.8125 -25.328125 3.328125 -27.085938 4.359375 -28.578125 C 5.390625 -30.078125 6.84375 -31.21875 8.71875 -32 C 10.601562 -32.789062 12.796875 -33.1875 15.296875 -33.1875 C 18.222656 -33.1875 20.648438 -32.757812 22.578125 -31.90625 C 24.515625 -31.0625 26.023438 -29.929688 27.109375 -28.515625 L 22.734375 -23.796875 L 22.140625 -23.796875 C 21.234375 -24.816406 20.210938 -25.5625 19.078125 -26.03125 C 17.953125 -26.507812 16.691406 -26.75 15.296875 -26.75 C 12.066406 -26.75 10.453125 -25.742188 10.453125 -23.734375 C 10.453125 -22.890625 10.75 -22.203125 11.34375 -21.671875 C 11.945312 -21.140625 13.007812 -20.707031 14.53125 -20.375 L 18.546875 -19.484375 C 21.847656 -18.773438 24.257812 -17.640625 25.78125 -16.078125 C 27.3125 -14.515625 28.078125 -12.410156 28.078125 -9.765625 C 28.078125 -7.703125 27.566406 -5.882812 26.546875 -4.3125 C 25.523438 -2.738281 24.046875 -1.519531 22.109375 -0.65625 C 20.179688 0.195312 17.890625 0.625 15.234375 0.625 Z M 15.234375 0.625 "/></g></g><g transform="translate(215.23454, 621.54481)"><g><path d="M 8.765625 -36.46875 C 7.296875 -36.46875 6.097656 -36.914062 5.171875 -37.8125 C 4.242188 -38.707031 3.78125 -39.863281 3.78125 -41.28125 C 3.78125 -42.675781 4.242188 -43.820312 5.171875 -44.71875 C 6.097656 -45.613281 7.296875 -46.0625 8.765625 -46.0625 C 9.753906 -46.0625 10.628906 -45.851562 11.390625 -45.4375 C 12.160156 -45.019531 12.753906 -44.453125 13.171875 -43.734375 C 13.597656 -43.023438 13.8125 -42.207031 13.8125 -41.28125 C 13.8125 -40.351562 13.597656 -39.523438 13.171875 -38.796875 C 12.753906 -38.066406 12.160156 -37.492188 11.390625 -37.078125 C 10.628906 -36.671875 9.753906 -36.46875 8.765625 -36.46875 Z M 4.6875 0 L 4.6875 -32.5625 L 12.875 -32.5625 L 12.875 0 Z M 4.6875 0 "/></g></g><g transform="translate(232.771209, 621.54481)"><g><path d="M 4.6875 0 L 4.6875 -32.5625 L 12.546875 -32.5625 L 12.546875 -28.203125 L 13.171875 -28.078125 C 14.234375 -29.828125 15.476562 -31.113281 16.90625 -31.9375 C 18.332031 -32.769531 20.15625 -33.1875 22.375 -33.1875 C 24.84375 -33.1875 26.820312 -32.695312 28.3125 -31.71875 C 29.8125 -30.75 30.90625 -29.328125 31.59375 -27.453125 L 32.21875 -27.453125 C 33.21875 -29.398438 34.507812 -30.84375 36.09375 -31.78125 C 37.675781 -32.71875 39.648438 -33.1875 42.015625 -33.1875 C 48.765625 -33.1875 52.140625 -29.425781 52.140625 -21.90625 L 52.140625 0 L 43.96875 0 L 43.96875 -20.875 C 43.96875 -22.78125 43.59375 -24.15625 42.84375 -25 C 42.09375 -25.851562 40.890625 -26.28125 39.234375 -26.28125 C 34.753906 -26.28125 32.515625 -23.273438 32.515625 -17.265625 L 32.515625 0 L 24.328125 0 L 24.328125 -20.875 C 24.328125 -22.78125 23.945312 -24.15625 23.1875 -25 C 22.4375 -25.851562 21.234375 -26.28125 19.578125 -26.28125 C 17.472656 -26.28125 15.828125 -25.578125 14.640625 -24.171875 C 13.460938 -22.765625 12.875 -20.523438 12.875 -17.453125 L 12.875 0 Z M 4.6875 0 "/></g></g><g transform="translate(289.101115, 621.54481)"><g><path d="M 13.515625 0.625 C 10.585938 0.625 8.347656 -0.164062 6.796875 -1.75 C 5.253906 -3.34375 4.484375 -5.75 4.484375 -8.96875 L 4.484375 -45.640625 L 12.671875 -45.640625 L 12.671875 -9.296875 C 12.671875 -7.304688 13.492188 -6.3125 15.140625 -6.3125 C 15.617188 -6.3125 16.125 -6.394531 16.65625 -6.5625 L 17.0625 -6.4375 L 17.796875 -0.140625 C 17.347656 0.0859375 16.75 0.269531 16 0.40625 C 15.25 0.550781 14.421875 0.625 13.515625 0.625 Z M 13.515625 0.625 "/></g></g><g transform="translate(307.818704, 621.54481)"><g><path d="M 12.703125 0.625 C 10.609375 0.625 8.789062 0.238281 7.25 -0.53125 C 5.71875 -1.300781 4.539062 -2.425781 3.71875 -3.90625 C 2.894531 -5.394531 2.484375 -7.179688 2.484375 -9.265625 C 2.484375 -11.203125 2.894531 -12.820312 3.71875 -14.125 C 4.539062 -15.4375 5.816406 -16.507812 7.546875 -17.34375 C 9.285156 -18.175781 11.550781 -18.820312 14.34375 -19.28125 C 16.289062 -19.59375 17.769531 -19.9375 18.78125 -20.3125 C 19.800781 -20.6875 20.488281 -21.109375 20.84375 -21.578125 C 21.195312 -22.054688 21.375 -22.660156 21.375 -23.390625 C 21.375 -24.429688 21.007812 -25.226562 20.28125 -25.78125 C 19.550781 -26.332031 18.34375 -26.609375 16.65625 -26.609375 C 14.84375 -26.609375 13.117188 -26.203125 11.484375 -25.390625 C 9.847656 -24.585938 8.429688 -23.523438 7.234375 -22.203125 L 6.640625 -22.203125 L 3.21875 -27.375 C 4.875 -29.195312 6.890625 -30.617188 9.265625 -31.640625 C 11.648438 -32.671875 14.25 -33.1875 17.0625 -33.1875 C 21.375 -33.1875 24.492188 -32.269531 26.421875 -30.4375 C 28.347656 -28.601562 29.3125 -26.003906 29.3125 -22.640625 L 29.3125 -8.5 C 29.3125 -7.039062 29.953125 -6.3125 31.234375 -6.3125 C 31.722656 -6.3125 32.207031 -6.398438 32.6875 -6.578125 L 33.09375 -6.46875 L 33.6875 -0.765625 C 33.238281 -0.472656 32.609375 -0.234375 31.796875 -0.046875 C 30.992188 0.140625 30.109375 0.234375 29.140625 0.234375 C 27.191406 0.234375 25.671875 -0.132812 24.578125 -0.875 C 23.484375 -1.625 22.703125 -2.800781 22.234375 -4.40625 L 21.609375 -4.453125 C 20.015625 -1.066406 17.046875 0.625 12.703125 0.625 Z M 15.296875 -5.484375 C 17.179688 -5.484375 18.691406 -6.117188 19.828125 -7.390625 C 20.960938 -8.660156 21.53125 -10.429688 21.53125 -12.703125 L 21.53125 -16 L 20.96875 -16.125 C 20.46875 -15.726562 19.816406 -15.394531 19.015625 -15.125 C 18.222656 -14.863281 17.082031 -14.601562 15.59375 -14.34375 C 13.820312 -14.050781 12.546875 -13.546875 11.765625 -12.828125 C 10.984375 -12.109375 10.59375 -11.085938 10.59375 -9.765625 C 10.59375 -8.367188 11.003906 -7.304688 11.828125 -6.578125 C 12.660156 -5.847656 13.816406 -5.484375 15.296875 -5.484375 Z M 15.296875 -5.484375 "/></g></g><g transform="translate(342.153965, 621.54481)"><g><path d="M 22.765625 0.625 C 18.609375 0.625 15.519531 -0.929688 13.5 -4.046875 L 12.875 -3.921875 L 12.875 0 L 4.6875 0 L 4.6875 -45.640625 L 12.875 -45.640625 L 12.875 -28.734375 L 13.5 -28.609375 C 14.613281 -30.160156 15.929688 -31.3125 17.453125 -32.0625 C 18.984375 -32.8125 20.8125 -33.1875 22.9375 -33.1875 C 25.570312 -33.1875 27.875 -32.566406 29.84375 -31.328125 C 31.8125 -30.085938 33.347656 -28.203125 34.453125 -25.671875 C 35.554688 -23.140625 36.109375 -20.003906 36.109375 -16.265625 C 36.109375 -12.566406 35.535156 -9.453125 34.390625 -6.921875 C 33.253906 -4.390625 31.679688 -2.5 29.671875 -1.25 C 27.660156 0 25.359375 0.625 22.765625 0.625 Z M 20.28125 -6.3125 C 22.6875 -6.3125 24.519531 -7.113281 25.78125 -8.71875 C 27.039062 -10.320312 27.671875 -12.835938 27.671875 -16.265625 C 27.671875 -19.710938 27.039062 -22.238281 25.78125 -23.84375 C 24.519531 -25.445312 22.6875 -26.25 20.28125 -26.25 C 17.976562 -26.25 16.148438 -25.421875 14.796875 -23.765625 C 13.453125 -22.109375 12.78125 -19.609375 12.78125 -16.265625 C 12.78125 -12.921875 13.453125 -10.425781 14.796875 -8.78125 C 16.148438 -7.132812 17.976562 -6.3125 20.28125 -6.3125 Z M 20.28125 -6.3125 "/></g></g><g transform="translate(381.153863, 621.54481)"><g><path d="M 20.671875 -17.359375 L 2.5625 -17.359375 L 2.5625 -24.5625 L 20.671875 -24.5625 Z M 20.671875 -17.359375 "/></g></g><g transform="translate(404.447519, 621.54481)"><g><path d="M 5.703125 0 L 5.703125 -26.09375 L 1.09375 -26.09375 L 1.09375 -32.59375 L 5.703125 -32.59375 C 5.367188 -33.96875 5.203125 -35.257812 5.203125 -36.46875 C 5.203125 -38.53125 5.671875 -40.296875 6.609375 -41.765625 C 7.554688 -43.234375 8.914062 -44.347656 10.6875 -45.109375 C 12.457031 -45.878906 14.5625 -46.265625 17 -46.265625 C 20.601562 -46.265625 23.289062 -45.644531 25.0625 -44.40625 L 23.140625 -38.390625 L 22.53125 -38.265625 C 21.3125 -39.128906 19.742188 -39.5625 17.828125 -39.5625 C 16.359375 -39.5625 15.253906 -39.203125 14.515625 -38.484375 C 13.773438 -37.765625 13.40625 -36.785156 13.40625 -35.546875 C 13.40625 -35.015625 13.4375 -34.523438 13.5 -34.078125 C 13.570312 -33.640625 13.695312 -33.144531 13.875 -32.59375 L 23.171875 -32.59375 L 23.171875 -26.09375 L 13.875 -26.09375 L 13.875 0 Z M 5.703125 0 "/></g></g><g transform="translate(427.947837, 621.54481)"><g><path d="M 22.46875 -7.765625 L 24.59375 -1.71875 C 23.707031 -0.988281 22.59375 -0.414062 21.25 0 C 19.914062 0.414062 18.40625 0.625 16.71875 0.625 C 13.1875 0.625 10.503906 -0.332031 8.671875 -2.25 C 6.847656 -4.175781 5.9375 -6.96875 5.9375 -10.625 L 5.9375 -26.09375 L 0.96875 -26.09375 L 0.96875 -32.59375 L 5.9375 -32.59375 L 5.9375 -38.9375 L 14.109375 -40.265625 L 14.109375 -32.59375 L 23.359375 -32.59375 L 23.359375 -26.09375 L 14.109375 -26.09375 L 14.109375 -11.21875 C 14.109375 -9.601562 14.441406 -8.425781 15.109375 -7.6875 C 15.785156 -6.945312 16.765625 -6.578125 18.046875 -6.578125 C 19.492188 -6.578125 20.757812 -6.972656 21.84375 -7.765625 Z M 22.46875 -7.765625 "/></g></g><g transform="translate(453.249057, 621.54481)"><g><path d="M 14.90625 0.625 C 11.25 0.625 8.546875 -0.375 6.796875 -2.375 C 5.054688 -4.375 4.1875 -7.242188 4.1875 -10.984375 L 4.1875 -32.5625 L 12.375 -32.5625 L 12.375 -12.015625 C 12.375 -10.023438 12.800781 -8.570312 13.65625 -7.65625 C 14.507812 -6.738281 15.832031 -6.28125 17.625 -6.28125 C 19.882812 -6.28125 21.644531 -7.023438 22.90625 -8.515625 C 24.164062 -10.003906 24.796875 -12.34375 24.796875 -15.53125 L 24.796875 -32.5625 L 32.984375 -32.5625 L 32.984375 0 L 25.125 0 L 25.125 -4.78125 L 24.5 -4.9375 C 23.457031 -3.0625 22.179688 -1.664062 20.671875 -0.75 C 19.171875 0.164062 17.25 0.625 14.90625 0.625 Z M 14.90625 0.625 "/></g></g><g transform="translate(490.92042, 621.54481)"><g><path d="M 4.6875 0 L 4.6875 -32.5625 L 12.546875 -32.5625 L 12.546875 -28.203125 L 13.171875 -28.078125 C 14.234375 -29.828125 15.476562 -31.113281 16.90625 -31.9375 C 18.332031 -32.769531 20.15625 -33.1875 22.375 -33.1875 C 24.84375 -33.1875 26.820312 -32.695312 28.3125 -31.71875 C 29.8125 -30.75 30.90625 -29.328125 31.59375 -27.453125 L 32.21875 -27.453125 C 33.21875 -29.398438 34.507812 -30.84375 36.09375 -31.78125 C 37.675781 -32.71875 39.648438 -33.1875 42.015625 -33.1875 C 48.765625 -33.1875 52.140625 -29.425781 52.140625 -21.90625 L 52.140625 0 L 43.96875 0 L 43.96875 -20.875 C 43.96875 -22.78125 43.59375 -24.15625 42.84375 -25 C 42.09375 -25.851562 40.890625 -26.28125 39.234375 -26.28125 C 34.753906 -26.28125 32.515625 -23.273438 32.515625 -17.265625 L 32.515625 0 L 24.328125 0 L 24.328125 -20.875 C 24.328125 -22.78125 23.945312 -24.15625 23.1875 -25 C 22.4375 -25.851562 21.234375 -26.28125 19.578125 -26.28125 C 17.472656 -26.28125 15.828125 -25.578125 14.640625 -24.171875 C 13.460938 -22.765625 12.875 -20.523438 12.875 -17.453125 L 12.875 0 Z M 4.6875 0 "/></g></g><g transform="translate(547.250326, 621.54481)"><g><path d="M 8.765625 -36.46875 C 7.296875 -36.46875 6.097656 -36.914062 5.171875 -37.8125 C 4.242188 -38.707031 3.78125 -39.863281 3.78125 -41.28125 C 3.78125 -42.675781 4.242188 -43.820312 5.171875 -44.71875 C 6.097656 -45.613281 7.296875 -46.0625 8.765625 -46.0625 C 9.753906 -46.0625 10.628906 -45.851562 11.390625 -45.4375 C 12.160156 -45.019531 12.753906 -44.453125 13.171875 -43.734375 C 13.597656 -43.023438 13.8125 -42.207031 13.8125 -41.28125 C 13.8125 -40.351562 13.597656 -39.523438 13.171875 -38.796875 C 12.753906 -38.066406 12.160156 -37.492188 11.390625 -37.078125 C 10.628906 -36.671875 9.753906 -36.46875 8.765625 -36.46875 Z M 2.546875 13.8125 C 0.140625 13.8125 -1.789062 13.5 -3.25 12.875 L -2.25 6.4375 L -1.6875 6.265625 C -0.894531 6.640625 0.03125 6.828125 1.09375 6.828125 C 3.488281 6.828125 4.6875 5.40625 4.6875 2.5625 L 4.6875 -32.5625 L 12.875 -32.5625 L 12.875 2.328125 C 12.875 6.128906 12 8.992188 10.25 10.921875 C 8.5 12.847656 5.929688 13.8125 2.546875 13.8125 Z M 2.546875 13.8125 "/></g></g></g></svg>