<svg xmlns="http://www.w3.org/2000/svg" xmlns:xlink="http://www.w3.org/1999/xlink" width="1080" zoomAndPan="magnify" viewBox="0 0 810 151.500001" height="202" preserveAspectRatio="xMidYMid meet" version="1.0"><defs><g/><clipPath id="68f3c6165e"><path d="M 160.582031 35.046875 L 231.597656 35.046875 L 231.597656 118.769531 L 160.582031 118.769531 Z M 160.582031 35.046875 " clip-rule="nonzero"/></clipPath></defs><g fill="#000000" fill-opacity="1"><g transform="translate(239.149114, 115.850665)"><g><path d="M 28.84375 0.9375 C 24.332031 0.9375 20.316406 0.378906 16.796875 -0.734375 C 13.285156 -1.847656 10.359375 -3.304688 8.015625 -5.109375 C 5.671875 -6.921875 3.875 -8.910156 2.625 -11.078125 L 9.703125 -19.71875 L 10.8125 -19.71875 C 12.769531 -16.8125 15.253906 -14.492188 18.265625 -12.765625 C 21.285156 -11.046875 24.8125 -10.1875 28.84375 -10.1875 C 32.28125 -10.1875 34.875 -10.914062 36.625 -12.375 C 38.375 -13.832031 39.25 -15.832031 39.25 -18.375 C 39.25 -19.925781 38.96875 -21.21875 38.40625 -22.25 C 37.84375 -23.289062 36.910156 -24.179688 35.609375 -24.921875 C 34.304688 -25.660156 32.539062 -26.300781 30.3125 -26.84375 L 21.9375 -28.75 C 16.09375 -30.082031 11.738281 -32.300781 8.875 -35.40625 C 6.007812 -38.507812 4.578125 -42.535156 4.578125 -47.484375 C 4.578125 -51.171875 5.5 -54.40625 7.34375 -57.1875 C 9.1875 -59.976562 11.863281 -62.144531 15.375 -63.6875 C 18.894531 -65.238281 23.101562 -66.015625 28 -66.015625 C 33.007812 -66.015625 37.300781 -65.351562 40.875 -64.03125 C 44.457031 -62.707031 47.476562 -60.679688 49.9375 -57.953125 L 43.578125 -49.234375 L 42.46875 -49.234375 C 40.625 -51.160156 38.515625 -52.601562 36.140625 -53.5625 C 33.765625 -54.53125 31.050781 -55.015625 28 -55.015625 C 24.46875 -55.015625 21.78125 -54.390625 19.9375 -53.140625 C 18.101562 -51.898438 17.1875 -50.179688 17.1875 -47.984375 C 17.1875 -45.929688 17.828125 -44.296875 19.109375 -43.078125 C 20.398438 -41.867188 22.632812 -40.921875 25.8125 -40.234375 L 34.359375 -38.453125 C 40.679688 -37.117188 45.265625 -34.859375 48.109375 -31.671875 C 50.960938 -28.484375 52.390625 -24.320312 52.390625 -19.1875 C 52.390625 -15.113281 51.515625 -11.570312 49.765625 -8.5625 C 48.015625 -5.550781 45.375 -3.210938 41.84375 -1.546875 C 38.3125 0.109375 33.976562 0.9375 28.84375 0.9375 Z M 28.84375 0.9375 "/></g></g></g><g fill="#000000" fill-opacity="1"><g transform="translate(295.04879, 115.850665)"><g><path d="M 21.3125 0 L 8.453125 0 L 8.453125 -65.078125 L 21.3125 -65.078125 Z M 21.3125 0 "/></g></g></g><g fill="#000000" fill-opacity="1"><g transform="translate(324.867885, 115.850665)"><g><path d="M 20.25 0 L 8.453125 0 L 8.453125 -65.078125 L 25.28125 -65.078125 L 41.75 -17.21875 L 42.6875 -17.21875 L 59.0625 -65.078125 L 75.484375 -65.078125 L 75.484375 0 L 63.296875 0 L 63.296875 -43 L 62.1875 -43.171875 L 47.140625 0 L 36.40625 0 L 21.359375 -43.171875 L 20.25 -43 Z M 20.25 0 "/></g></g></g><g fill="#000000" fill-opacity="1"><g transform="translate(408.850952, 115.850665)"><g><path d="M 21.3125 -65.078125 L 21.3125 -10.765625 L 50.5625 -10.765625 L 50.5625 0 L 8.453125 0 L 8.453125 -65.078125 Z M 21.3125 -65.078125 "/></g></g></g><g fill="#000000" fill-opacity="1"><g transform="translate(461.546188, 115.850665)"><g><path d="M 62.453125 0 L 48.921875 0 L 44.015625 -15 L 19.09375 -15 L 14.203125 0 L 0.984375 0 L 23.453125 -65.078125 L 39.96875 -65.078125 Z M 30.9375 -51.5 L 22.5625 -25.8125 L 40.453125 -25.8125 L 32.046875 -51.5 Z M 30.9375 -51.5 "/></g></g></g><g fill="#000000" fill-opacity="1"><g transform="translate(524.96743, 115.850665)"><g><path d="M 8.453125 0 L 8.453125 -65.078125 L 36.234375 -65.078125 C 40.234375 -65.078125 43.617188 -64.445312 46.390625 -63.1875 C 49.171875 -61.925781 51.273438 -60.128906 52.703125 -57.796875 C 54.128906 -55.460938 54.84375 -52.710938 54.84375 -49.546875 C 54.84375 -46.660156 54.144531 -44.117188 52.75 -41.921875 C 51.351562 -39.734375 49.347656 -37.96875 46.734375 -36.625 L 46.734375 -35.703125 C 50.828125 -34.628906 53.984375 -32.679688 56.203125 -29.859375 C 58.429688 -27.046875 59.546875 -23.59375 59.546875 -19.5 C 59.546875 -13.257812 57.671875 -8.445312 53.921875 -5.0625 C 50.171875 -1.6875 44.597656 0 37.203125 0 Z M 33.5625 -39.125 C 39.550781 -39.125 42.546875 -41.820312 42.546875 -47.21875 C 42.546875 -49.976562 41.800781 -52.035156 40.3125 -53.390625 C 38.832031 -54.742188 36.582031 -55.421875 33.5625 -55.421875 L 21.3125 -55.421875 L 21.3125 -39.125 Z M 35.921875 -10.1875 C 43.015625 -10.1875 46.5625 -13.40625 46.5625 -19.84375 C 46.5625 -26.3125 43.015625 -29.546875 35.921875 -29.546875 L 21.3125 -29.546875 L 21.3125 -10.1875 Z M 35.921875 -10.1875 "/></g></g></g><g clip-path="url(#68f3c6165e)"><path fill="#3a322b" d="M 229.636719 105.316406 L 208.800781 75.273438 C 207.960938 74.0625 207.515625 72.636719 207.515625 71.152344 L 207.515625 42.226562 L 207.570312 42.226562 C 209.519531 42.226562 211.101562 40.621094 211.101562 38.644531 C 211.101562 36.671875 209.519531 35.066406 207.570312 35.066406 L 184.613281 35.066406 C 182.664062 35.066406 181.082031 36.671875 181.082031 38.644531 C 181.082031 40.621094 182.664062 42.226562 184.613281 42.226562 L 184.667969 42.226562 L 184.667969 71.152344 C 184.667969 72.636719 184.222656 74.0625 183.382812 75.273438 L 162.53125 105.34375 C 161.78125 106.546875 160.585938 109.058594 161 112.335938 C 161.125 113.328125 161.390625 114.296875 161.785156 115.210938 C 162.714844 117.359375 164.878906 118.75 167.292969 118.75 L 224.890625 118.75 C 227.304688 118.75 229.46875 117.359375 230.398438 115.210938 C 230.792969 114.296875 231.058594 113.328125 231.183594 112.339844 C 231.597656 109.058594 230.40625 106.546875 229.636719 105.316406 Z M 182.410156 38.644531 C 182.410156 37.40625 183.398438 36.394531 184.613281 36.394531 L 207.570312 36.394531 C 208.785156 36.394531 209.773438 37.40625 209.773438 38.644531 C 209.773438 39.886719 208.785156 40.898438 207.570312 40.898438 L 184.613281 40.898438 C 183.398438 40.898438 182.410156 39.886719 182.410156 38.644531 Z M 229.867188 112.171875 C 229.757812 113.039062 229.527344 113.882812 229.179688 114.683594 C 228.460938 116.347656 226.777344 117.421875 224.890625 117.421875 L 167.292969 117.421875 C 165.40625 117.421875 163.726562 116.347656 163.003906 114.683594 C 162.660156 113.882812 162.425781 113.039062 162.316406 112.171875 C 161.941406 109.191406 163.128906 106.894531 163.636719 106.074219 L 184.472656 76.03125 C 185.46875 74.59375 185.996094 72.90625 185.996094 71.152344 L 185.996094 65.546875 L 193.941406 65.546875 C 194.308594 65.546875 194.605469 65.25 194.605469 64.882812 C 194.605469 64.515625 194.308594 64.21875 193.941406 64.21875 L 185.996094 64.21875 L 185.996094 56.800781 L 193.941406 56.800781 C 194.308594 56.800781 194.605469 56.503906 194.605469 56.136719 C 194.605469 55.769531 194.308594 55.472656 193.941406 55.472656 L 185.996094 55.472656 L 185.996094 48.054688 L 193.941406 48.054688 C 194.308594 48.054688 194.605469 47.757812 194.605469 47.390625 C 194.605469 47.023438 194.308594 46.726562 193.941406 46.726562 L 185.996094 46.726562 L 185.996094 42.226562 L 206.1875 42.226562 L 206.1875 71.152344 C 206.1875 72.90625 206.714844 74.59375 207.710938 76.03125 L 228.527344 106.046875 C 229.054688 106.894531 230.246094 109.191406 229.867188 112.171875 Z M 229.867188 112.171875 " fill-opacity="1" fill-rule="nonzero"/></g><path fill="#3a322b" d="M 223.351562 113.777344 L 172.753906 113.777344 C 170.421875 113.777344 168.417969 112.09375 168.089844 109.855469 L 168.078125 109.75 C 167.785156 107.4375 168.707031 105.65625 169.097656 105.027344 L 174.433594 97.328125 C 174.644531 97.027344 174.570312 96.613281 174.269531 96.40625 C 173.96875 96.195312 173.554688 96.269531 173.34375 96.570312 L 167.988281 104.296875 C 167.386719 105.265625 166.425781 107.28125 166.757812 109.917969 L 166.777344 110.054688 C 167.199219 112.933594 169.769531 115.105469 172.753906 115.105469 L 223.351562 115.105469 C 223.71875 115.105469 224.015625 114.808594 224.015625 114.441406 C 224.015625 114.074219 223.71875 113.777344 223.351562 113.777344 Z M 223.351562 113.777344 " fill-opacity="1" fill-rule="nonzero"/><path fill="#3a322b" d="M 206.308594 79.839844 C 206.4375 80.023438 206.644531 80.121094 206.851562 80.121094 C 206.984375 80.121094 207.117188 80.082031 207.234375 80 C 207.535156 79.789062 207.605469 79.375 207.394531 79.078125 L 205.242188 76.011719 C 204.382812 74.792969 203.929688 73.351562 203.929688 71.851562 L 203.929688 61.96875 C 203.929688 61.601562 203.632812 61.304688 203.265625 61.304688 C 202.898438 61.304688 202.601562 61.601562 202.601562 61.96875 L 202.601562 71.851562 C 202.601562 73.628906 203.140625 75.332031 204.15625 76.777344 Z M 206.308594 79.839844 " fill-opacity="1" fill-rule="nonzero"/></svg>